<?xml version="1.0" encoding="UTF-8"?>
<svg width="350px" height="142px" viewBox="0 0 350 142" version="1.1" xmlns="http://www.w3.org/2000/svg" xmlns:xlink="http://www.w3.org/1999/xlink">
    <!-- Generator: Sketch 53.2 (72643) - https://sketchapp.com -->
    <title>Group 4 Copy 4</title>
    <desc>Created with Sketch.</desc>
    <g id="Web" stroke="none" stroke-width="1" fill="none" fill-rule="evenodd">
        <g id="About-us" transform="translate(-165.000000, -6064.000000)">
            <g id="Group-4-Copy-4" transform="translate(165.000000, 6064.000000)">
                <rect id="Rectangle" fill="#FFFFFF" x="0" y="0" width="350" height="142"></rect>
                <g id="FIBA-3x3-World-Tour-1" transform="translate(135.000000, 39.000000)" fill="#000000" fill-rule="nonzero">
                    <path d="M26.9762886,8.34069719 C28.0340995,7.86657787 31.8913696,6.36568227 34.086535,8.58333716 L34.0809946,8.59449777 L34.1553936,8.65195426 C34.1985292,8.69949019 34.3018171,8.82680384 34.4165815,9.03637533 C31.6452198,9.53860286 29.0733107,10.258669 26.72539,11.201534 C24.1748508,12.2254168 21.8807506,13.506407 19.866438,15.0287971 C21.80279,12.4382951 24.210863,10.1726909 26.9762886,8.34069719 M42.2264947,3.33578285 L42.2264947,8.22867772 C40.7780892,8.27828044 39.3716321,8.37748588 38.0067276,8.52340054 C37.56904,7.27217196 36.9121129,6.56491985 36.6778353,6.34129426 C35.9710451,5.63280209 35.1981664,5.12850778 34.3983775,4.78128875 C36.8749134,3.9843384 39.5006431,3.4874845 42.2264947,3.33578285 M45.7719223,3.33578285 C48.47957,3.48624443 51.0886786,3.9777247 53.5505722,4.76516787 C52.7365366,5.11280026 51.9498071,5.62164148 51.2315404,6.34129426 C51.0028032,6.55995958 50.3700162,7.24406375 49.9331201,8.44403619 C48.5856281,8.31506912 47.1989579,8.23363799 45.7719223,8.203463 L45.7719223,3.33578285 Z M53.7436929,8.66435494 L53.8236322,8.58333716 C56.3488441,6.03293069 61.166969,8.44899646 61.2152492,8.47338447 L61.2160406,8.47173104 C63.8144643,10.2222937 66.0923391,12.356864 67.949939,14.7857438 C66.051578,13.3621458 63.914982,12.1555596 61.5571678,11.1837597 C59.1202058,10.1784779 56.446196,9.42575667 53.5565083,8.92559592 C53.6368433,8.79373536 53.7057019,8.70734396 53.7436929,8.66435494 M14,18 L21.5657422,18 C23.4874518,16.4536352 25.7297101,15.1672714 28.2663984,14.1628163 C30.2739834,13.3679328 32.4707318,12.7491388 34.8404182,12.3051945 C34.7699766,13.529555 34.4711935,15.0139163 32.7687234,18 L36.7348218,18 C38.3047192,14.9052037 38.3712034,13.3530519 38.4084029,11.7864327 C39.6423177,11.6545722 40.9138278,11.5623938 42.2264947,11.5148579 L42.2264947,18 L45.7719223,18 L45.7719223,11.4896431 C47.0513472,11.5185781 48.2931768,11.590502 49.4989942,11.7041749 C49.5354022,13.2989023 49.576559,14.8502273 51.174554,18 L55.141048,18 C53.3800086,14.9130575 53.1207994,13.4303495 53.06223,12.1828411 C55.5688421,12.6267855 57.8858952,13.2769944 59.9932065,14.1347081 C62.4713254,15.1432967 64.6688652,16.4387544 66.5581242,18 L74,18 C68.8506414,7.39907225 57.3409623,0 43.9994064,0 C36.9971968,0 30.4999505,2.03991182 25.1614286,5.5087953 C25.0577449,5.55798466 24.9916565,5.59229321 24.9683079,5.60428053 L24.9805758,5.62536169 C20.2313096,8.75529325 16.4163836,13.025674 14,18" id="Shape"></path>
                    <polygon id="Path" points="30.8951256 38 22.6254988 45.2396578 19.8698825 45.2349775 18 52.9762084 27.8018034 53 36 45.8172859"></polygon>
                    <polygon id="Path" points="51.4664649 20 43 27.1696173 48.2461743 35 56.7827785 27.7694611 60.0764707 27.7776621 62 20.0249935"></polygon>
                    <polygon id="Path" points="52.8556653 45.8195338 36.1133299 19.0260265 25.8920644 19 24 27.1739595 27.1443347 27.1820928 43.8846906 53.9756001 54.1075397 54 56 45.8260405"></polygon>
                    <polygon id="Path" points="5.6798205 24.9107187 3.78226327 32.5986483 7.2564998 36.7454157 1.92526759 40.956474 0 48.9880826 4.1786419 53.9718231 15.3423024 54 17.2366468 46.1199911 13.1475616 46.1108634 14.3744478 41.0548948 19.6755601 41.0660068 21.6574532 32.6740513 16.3009202 32.6617487 17.4502977 27.9935102 21.0823628 27.9998599 23 20.0242083 12.2367341 20"></polygon>
                    <polygon id="Path" points="63.1422351 27.8792441 67.1421497 27.8887683 66.023666 32.4825799 60.841646 32.4706747 58.9015794 40.8638258 64.1405447 40.8765246 62.9321267 46.006863 58.8744813 45.9965452 57 53.9722212 68.0332451 54 74.4437121 49.0879232 76.3802442 40.9392252 72.983164 36.791461 78.1958166 32.578615 80 25.0116834 75.9129002 20.0253977 64.9962947 20"></polygon>
                    <polygon id="Path" points="11.7272372 59 10.5204349 63.5215028 10.55322 59 8.67783663 59 7.28954558 63.5215028 7.50420965 59 6.05815445 59 6 65 7.94212434 65 9.34758851 60.4348801 9.33041539 65 11.1484249 65 13 59"></polygon>
                    <path d="M15.4369418,63.6168897 L15.9289032,60.382295 L16.1254019,60.1646172 L17.3586995,60.1646172 L17.5473383,60.382295 L17.0564487,63.6168897 L16.8667381,63.8345676 L15.6262951,63.8345676 L15.4369418,63.6168897 Z M15.4072883,59 L14.6505895,59.8694884 L14,64.1305116 L14.7491961,65 L17.5927117,65 L18.3426224,64.1305116 L19,59.8694884 L18.2436584,59 L15.4072883,59 Z" id="Shape"></path>
                    <path d="M23.1000424,60.0606699 L24.4379413,60.0606699 L24.5876165,60.2347306 L24.3927563,61.4780216 L24.2508472,61.6431143 L22.8607032,61.6431143 L23.1000424,60.0606699 Z M21.9111127,59 L21,65 L22.3527252,65 L22.6965546,62.738841 L23.7499294,62.738841 L24.146357,65 L25.4616634,65 L25.6335781,63.8606563 L25.2300904,63.8606563 L24.983338,62.5126028 L25.723242,61.6520823 L26,59.8433997 L25.2745693,59 L21.9111127,59 L21.9111127,59 Z" id="Shape"></path>
                    <polygon id="Path" points="27.0630723 59 26 65 29.7905134 65 30 63.7916837 27.7870151 63.7916837 28.6315465 59"></polygon>
                    <path d="M34.0774499,60.1646172 L35.3853431,60.1646172 L35.5802033,60.382295 L35.0866987,63.6168897 L34.8918385,63.8345676 L33.5246399,63.8345676 L34.0774499,60.1646172 Z M32.9118187,59 L32,65 L35.609503,65 L36.3568201,64.1305116 L37,59.8694884 L36.2523299,59 L32.9118187,59 L32.9118187,59 Z" id="Shape"></path>
                    <polygon id="Path" points="42.1762847 59 42 60.2347306 43.2892067 60.2347306 42.6060203 65 43.8736072 65 44.556461 60.2347306 45.817063 60.2347306 46 59"></polygon>
                    <path d="M48.4366872,63.6168897 L48.929041,60.382295 L49.1251965,60.1646172 L50.3585822,60.1646172 L50.5472345,60.382295 L50.0555953,63.6168897 L49.8665857,63.8345676 L48.626054,63.8345676 L48.4366872,63.6168897 Z M48.4073889,59 L47.650636,59.8694884 L47,64.1305116 L47.7488924,65 L50.5929684,65 L51.3418608,64.1305116 L52,59.8694884 L51.2436044,59 L48.4073889,59 Z" id="Shape"></path>
                    <polygon id="Path" points="57.6494678 59 56.9555227 63.5826483 56.7690844 63.7999185 55.6197928 63.7999185 55.4256009 63.5826483 56.1272996 59 54.7767675 59 54 64.1305116 54.746458 65 57.4774794 65 58.2165363 64.1305116 59 59"></polygon>
                    <path d="M63.1007484,60.0606699 L64.4379413,60.0606699 L64.5876165,60.2347306 L64.3934623,61.4780216 L64.2508472,61.6431143 L62.8607032,61.6431143 L63.1007484,60.0606699 Z M61.9111127,59 L61,65 L62.3527252,65 L62.6969077,62.738841 L63.7499294,62.738841 L64.14671,65 L65.4616634,65 L65.6335781,63.8606563 L65.2300904,63.8606563 L64.983691,62.5126028 L65.723242,61.6520823 L66,59.8433997 L65.2745693,59 L61.9111127,59 L61.9111127,59 Z" id="Shape"></path>
                </g>
            </g>
        </g>
    </g>
</svg>