<?xml version="1.0" encoding="UTF-8"?>
<svg width="350px" height="142px" viewBox="0 0 350 142" version="1.1" xmlns="http://www.w3.org/2000/svg" xmlns:xlink="http://www.w3.org/1999/xlink">
    <!-- Generator: Sketch 53.2 (72643) - https://sketchapp.com -->
    <title>Group 4 Copy 2</title>
    <desc>Created with Sketch.</desc>
    <g id="Web" stroke="none" stroke-width="1" fill="none" fill-rule="evenodd">
        <g id="About-us" transform="translate(-925.000000, -5640.000000)">
            <g id="Group-4-Copy-2" transform="translate(925.000000, 5640.000000)">
                <rect id="Rectangle" fill="#FFFFFF" x="0" y="0" width="350" height="142"></rect>
                <g id="Grand-Chelem-Event-SA-_-Sport-&amp;-Event-Management-1" transform="translate(96.000000, 48.000000)" fill="#000000" fill-rule="nonzero">
                    <path d="M18,0 C18,0 34.760978,5.07618506 26.8121498,22 C26.8121498,22 40.6571981,5.92977495 18,0 L18,0 Z" id="Path"></path>
                    <path d="M23.6896445,10.2263122 C24.5413617,12.6093283 23.5798507,15.1112015 21.5418712,15.8147281 C19.5041635,16.5182547 17.1618051,15.1566075 16.3103597,12.7735914 C15.4586424,10.3908423 16.4201535,7.88870204 18.4578612,7.18517541 C20.4955689,6.48191588 22.8379272,7.84329599 23.6896445,10.2263122 L23.6896445,10.2263122 Z" id="Path"></path>
                    <path d="M29.3126394,26 C29.3126394,26 49.9979683,50.2070274 28,43.6039162 C28,43.6039162 56.3542262,55.5754628 29.3126394,26 L29.3126394,26 Z" id="Path"></path>
                    <path d="M0,2 C0,2 53.0875256,56.1236378 1.07862948,43.8905971 C1.07862948,43.8905971 31.7781058,55.0115693 26.3584439,35.1899922 C22.7386604,21.9510547 0,2 0,2 L0,2 Z" id="Path"></path>
                    <path d="M66.9830774,38.4309568 L65.3804877,36.7736312 C64.1633596,37.9337881 63.0475643,38.6588138 61.303052,38.6588138 C58.584667,38.6588138 56.6167685,36.3384999 56.6167685,33.4792726 C56.6167685,30.6203351 58.584667,28.3411862 61.303052,28.3411862 C62.9257948,28.3411862 64.1429228,29.0662119 65.2788711,30.1437489 L66.8814609,28.2582765 C65.5224103,26.9323 63.9399735,26 61.323205,26 C57.0226671,26 54,29.3769785 54,33.5207274 C54,37.7059312 57.0834099,41 61.2218723,41 C63.8792306,41 65.5022572,40.0056626 66.9830774,38.4309568 L66.9830774,38.4309568 Z M82.9277952,34.6394295 L82.9277952,40.7515606 L85.4227941,40.7515606 L85.4227941,26.2487293 L82.9277952,26.2487293 L82.9277952,32.2776607 L76.1521275,32.2776607 L76.1521275,26.2487293 L73.6568447,26.2487293 L73.6568447,40.7515606 L76.1521275,40.7515606 L76.1521275,34.6394295 L82.9277952,34.6394295 L82.9277952,34.6394295 Z M103.659845,26.2487293 L93.1314609,26.2487293 L93.1314609,40.7515606 L103.761462,40.7515606 L103.761462,38.4724117 L95.6267436,38.4724117 L95.6267436,34.5773921 L102.746999,34.5773921 L102.746999,32.2985331 L95.6267436,32.2985331 L95.6267436,28.5275883 L103.659845,28.5275883 L103.659845,26.2487293 L103.659845,26.2487293 Z M110.780385,40.7515606 L120.740795,40.7515606 L120.740795,38.4309568 L113.275384,38.4309568 L113.275384,26.2487293 L110.780385,26.2487293 L110.780385,40.7515606 L110.780385,40.7515606 Z M137.922794,26.2487293 L127.39441,26.2487293 L127.39441,40.7515606 L138.024127,40.7515606 L138.024127,38.4724117 L129.889409,38.4724117 L129.889409,34.5773921 L137.009948,34.5773921 L137.009948,32.2985331 L129.889409,32.2985331 L129.889409,28.5275883 L137.922794,28.5275883 L137.922794,26.2487293 L137.922794,26.2487293 Z M156.504717,30.3507334 L156.504717,40.7515606 L159,40.7515606 L159,26.2487293 L156.342358,26.2487293 L152.021383,33.1064685 L147.700692,26.2487293 L145.04305,26.2487293 L145.04305,40.7515606 L147.497743,40.7515606 L147.497743,30.3921883 L151.940487,37.1878901 L152.021383,37.1878901 L156.504717,30.3507334 L156.504717,30.3507334 Z" id="Shape"></path>
                    <path d="M67.2702611,18.7417672 L67.2702611,12.6506262 L61.2327062,12.6506262 L61.2327062,14.8674049 L64.8592646,14.8674049 L64.8592646,17.5813428 C63.9881308,18.2443182 62.772569,18.6794411 61.4353943,18.6794411 C58.5382297,18.6794411 56.6134012,16.4835343 56.6134012,13.4794179 C56.6134012,10.6616999 58.5988944,8.341141 61.2125791,8.341141 C63.0155113,8.341141 64.0893331,8.94208024 65.1835656,9.89494434 L66.7636825,7.96834416 C65.304895,6.7044295 63.7854427,6 61.3137814,6 C57.0389045,6 54,9.43923933 54,13.520872 C54,17.7680311 56.9172917,21 61.3543191,21 C63.8665179,21 65.8721382,19.9639378 67.2702611,18.7417672 L67.2702611,18.7417672 Z M86.5982042,20.7512755 L82.7689577,15.2610737 C84.7544509,14.7015886 86.1522903,13.2512755 86.1522903,10.8480983 C86.1522903,8.00979824 84.14667,6.24872449 80.8846668,6.24872449 L74.563632,6.24872449 L74.563632,20.7512755 L77.0557038,20.7512755 L77.0557038,15.6961967 L80.1756836,15.6961967 L83.660502,20.7512755 L86.5982042,20.7512755 L86.5982042,20.7512755 Z M83.6199644,10.9930427 C83.6199644,12.4848098 82.4854778,13.4379638 80.7023892,13.4379638 L77.0557038,13.4379638 L77.0557038,8.56899351 L80.6822622,8.56899351 C82.525732,8.56899351 83.6199644,9.39778525 83.6199644,10.9930427 L83.6199644,10.9930427 Z M100.395171,6.14523423 L98.0853768,6.14523423 L91.8454172,20.7512755 L94.3981537,20.7512755 L95.8569413,17.25 L102.562942,17.25 L104.001319,20.7512755 L106.635131,20.7512755 L100.395171,6.14523423 L100.395171,6.14523423 Z M101.65127,14.9917672 L96.7686126,14.9917672 L99.1997362,9.19080473 L101.65127,14.9917672 L101.65127,14.9917672 Z M123.025371,16.2762639 L115.427827,6.24872449 L113.118316,6.24872449 L113.118316,20.7512755 L115.569567,20.7512755 L115.569567,10.4338474 L123.389927,20.7512755 L125.476622,20.7512755 L125.476622,6.24872449 L123.025371,6.24872449 L123.025371,16.2762639 L123.025371,16.2762639 Z M146,13.4794179 C146,9.37720315 142.920274,6.24872449 138.46312,6.24872449 L133.175369,6.24872449 L133.175369,20.7512755 L138.46312,20.7512755 C142.920274,20.7512755 146,17.5813428 146,13.4794179 L146,13.4794179 Z M143.386315,13.520872 C143.386315,16.3797542 141.44136,18.4310065 138.46312,18.4310065 L135.667441,18.4310065 L135.667441,8.56899351 L138.46312,8.56899351 C141.44136,8.56899351 143.386315,10.6616999 143.386315,13.520872 L143.386315,13.520872 Z" id="Shape"></path>
                </g>
            </g>
        </g>
    </g>
</svg>