<?xml version="1.0" encoding="UTF-8"?>
<svg width="350px" height="142px" viewBox="0 0 350 142" version="1.1" xmlns="http://www.w3.org/2000/svg" xmlns:xlink="http://www.w3.org/1999/xlink">
    <!-- Generator: Sketch 53.2 (72643) - https://sketchapp.com -->
    <title>Group 4</title>
    <desc>Created with Sketch.</desc>
    <g id="Web" stroke="none" stroke-width="1" fill="none" fill-rule="evenodd">
        <g id="About-us" transform="translate(-165.000000, -5640.000000)">
            <g id="Group-4" transform="translate(165.000000, 5640.000000)">
                <rect id="Rectangle" fill="#FFFFFF" x="0" y="0" width="350" height="142"></rect>
                <g id="postfinance-seeklogo.com" transform="translate(89.000000, 56.000000)" fill-rule="nonzero">
                    <g id="g10" transform="translate(86.000000, 15.525000) scale(-1, 1) rotate(-180.000000) translate(-86.000000, -15.525000) translate(0.000000, 0.525000)">
                        <g id="g12">
                            <g id="g14">
                                <g id="g16-Clipped">
                                    <g id="g16">
                                        <path d="M162.19,20.329125 C162.19,20.329125 164.1775,29.440375 164.205,29.525875 L151.575,29.525875 C151.575,29.46825 148.96375,17.434625 148.96375,17.3775 C148.99125,17.3775 152.2,17.3775 152.2,17.3775 C152.2275,17.3775 154.18625,26.4605 154.18625,26.4605 L160.31625,26.4605 C160.31625,26.4605 158.38625,17.349625 158.33,17.292 C158.38625,17.292 167.6675,17.292 167.6675,17.292 L166.4475,11.672875 C166.4475,11.672875 157.195,11.672875 157.165,11.672875 C157.165,11.61575 155.2925,3.101125 155.2925,3.101125 C155.2925,3.101125 148.33875,3.101125 148.2825,3.101125 C148.2825,3.07325 147.6575,0.0361375 147.63,0.0078125 L157.96,0.0078125 C157.96,0.0361375 159.80625,8.607875 159.80625,8.607875 C159.80625,8.607875 169.03,8.607875 169.0875,8.607875 C169.0875,8.63625 171.52875,20.273 171.52875,20.329125 L162.19,20.329125" id="path26" fill="#000000"></path>
                                        <path d="M139.335,17.632375 C140.66875,17.632375 141.5775,16.724625 141.5775,15.22025 C141.5775,14.965375 141.54875,14.73825 141.52125,14.482875 L135.75875,14.482875 C136.355,16.38375 137.63125,17.632375 139.335,17.632375 Z M142.20125,6.336 L142.94,9.713875 C141.69125,9.289 140.47,8.94875 138.91,8.94875 C137.0925,8.94875 135.50375,9.57225 135.41875,11.75825 L144.785,11.75825 C145.125,12.86575 145.32375,13.971625 145.32375,14.993125 C145.32375,18.11575 143.5075,20.670875 139.61875,20.670875 C134.56625,20.670875 131.50125,16.525375 131.50125,11.956 C131.50125,8.04 134.1125,5.74025 138.17125,5.74025 C139.8175,5.74025 141.1225,5.996625 142.20125,6.336 L142.20125,6.336 L142.20125,6.336 Z M126.79,9.203625 C124.945,9.203625 123.69625,9.998 123.69625,12.296875 C123.69625,14.993125 125.39875,17.235875 128.09625,17.235875 C128.9475,17.235875 129.9125,16.9805 130.8775,16.610875 L131.55875,19.846625 C130.45125,20.243625 129.145,20.527875 127.84,20.527875 C123.38375,20.527875 119.58,17.2075 119.58,12.097625 C119.58,7.8975 122.16375,5.911625 125.88125,5.911625 C127.13,5.911625 128.18,6.138125 128.9475,6.44975 L129.685,9.7715 C128.83375,9.459 127.89625,9.203625 126.79,9.203625 L126.79,9.203625 L126.79,9.203625 Z M107.17775,6.1665 L108.73875,13.347625 C109.36275,16.24225 110.78275,17.235875 112.25825,17.235875 C114.160125,17.235875 114.38725,15.815875 114.017625,14.19875 L112.3145,6.1665 L116.37375,6.1665 L118.16125,14.3975 C119.04125,18.51275 117.14,20.670875 114.160125,20.670875 C112.513125,20.670875 110.924375,20.017625 109.5615,18.569875 L109.930125,20.243625 L106.15575,20.243625 L103.118625,6.1665 L107.17775,6.1665 L107.17775,6.1665 Z M92.589375,10.225125 C92.589375,11.6435 93.837875,12.4395 95.909125,12.4395 C96.307625,12.4395 97.186,12.410125 97.981875,12.296875 L97.811,11.502 C97.327625,9.828625 95.96675,8.691875 94.349625,8.691875 C93.185,8.691875 92.589375,9.25975 92.589375,10.225125 L92.589375,10.225125 Z M96.506375,20.5855 C94.63275,20.5855 92.731,20.159125 92.106875,19.9605 L91.42575,16.69625 C92.3325,16.951125 94.121125,17.434625 95.711375,17.434625 C97.839375,17.434625 98.606,16.78175 98.606,15.674375 C98.606,15.4765 98.606,15.2485 98.54975,15.0225 L98.49225,14.73825 C97.47075,14.8515 96.506375,14.936 96.05075,14.936 C92.0215,14.936 88.786625,13.376 88.786625,9.6855 C88.786625,7.2735 90.659125,5.825625 93.099625,5.825625 C94.8315,5.825625 96.307625,6.506875 97.272,7.642125 L96.9595,6.1665 L100.564,6.1665 L102.32425,14.2265 C102.465875,14.82375 102.522,15.44725 102.522,16.043 C102.522,18.4565 101.189,20.5855 96.506375,20.5855 L96.506375,20.5855 L96.506375,20.5855 Z M76.836875,6.1665 L78.3975,13.347625 C79.0225,16.24225 80.440375,17.235875 81.918,17.235875 C83.819875,17.235875 84.046375,15.815875 83.67825,14.19875 L81.974125,6.1665 L86.03275,6.1665 L87.819875,14.3975 C88.70025,18.51275 86.799375,20.670875 83.819875,20.670875 C82.171375,20.670875 80.582,20.017625 79.22025,18.569875 L79.588875,20.243625 L75.8145,20.243625 L72.777375,6.1665 L76.836875,6.1665 L76.836875,6.1665 Z M69.57125,24.13275 C69.484875,22.856 70.422375,21.86225 71.670875,21.86225 C73.0615,21.86225 74.055125,22.856 74.139125,24.13275 C74.225125,25.409625 73.288625,26.403375 72.0395,26.403375 C70.649375,26.403375 69.65575,25.409625 69.57125,24.13275 L69.57125,24.13275 Z M69.0025,20.243625 L65.965875,6.1665 L69.996625,6.1665 L73.03375,20.243625 L69.0025,20.243625 Z M57.535125,6.1665 L59.1245,13.517625 L65.256375,13.517625 L65.995125,17.122125 L59.891625,17.122125 L60.829125,21.63525 L67.272,21.63525 L68.066375,25.24025 L57.423375,25.24025 L53.392625,6.1665 L57.535125,6.1665 Z M53.53375,17.150375 L54.187,20.243625 L49.84525,20.243625 L50.69575,24.160625 L46.46625,23.224625 L43.826625,11.190875 C43.089875,7.78375 44.961875,5.911625 48.367625,5.911625 C49.078625,5.911625 50.2695,6.05275 51.122125,6.336 L51.80325,9.430625 C51.122125,9.25975 50.2695,9.089875 49.53275,9.089875 C48.367625,9.089875 47.544875,9.486875 47.829625,10.90675 L49.164,17.150375 L53.53375,17.150375 Z M38.150375,10.3105 C38.150375,9.174375 36.76025,8.9765 35.596625,8.9765 C34.120125,8.9765 32.474625,9.373 31.59575,9.65775 L30.913125,6.479 C32.190875,6.1665 33.808625,5.911625 35.340875,5.911625 C38.973125,5.911625 41.92625,7.2735 41.92625,10.67925 C41.92625,15.078625 36.647,14.312 36.647,16.27 C36.647,17.150375 37.4985,17.462875 38.8315,17.462875 C40.108375,17.462875 41.8985,16.951125 42.493625,16.78175 L43.17475,19.98825 C41.954625,20.329125 40.506875,20.527875 39.200625,20.527875 C35.256375,20.527875 32.8725,18.767625 32.8725,15.84425 C32.8725,11.559625 38.150375,12.2685 38.150375,10.3105 L38.150375,10.3105 L38.150375,10.3105 Z M22.880875,5.74025 C27.337375,5.74025 30.34575,8.9765 31.026875,13.205125 C31.736875,17.434625 29.381375,20.670875 24.924375,20.670875 C20.46875,20.670875 17.46,17.434625 16.77875,13.205125 C16.069375,8.9765 18.42525,5.74025 22.880875,5.74025 L22.880875,5.74025 L22.880875,5.74025 Z M23.251,9.004375 C21.632375,9.004375 20.3555,10.28175 20.950625,13.205125 C21.546375,16.128375 22.96625,17.40525 24.584,17.40525 C26.202125,17.40525 27.4795,16.100625 26.8545,13.205125 C26.25825,10.3105 24.868125,9.004375 23.251,9.004375 L23.251,9.004375 Z M6.13525,11.985375 L7.923875,11.985375 C13.628875,11.985375 16.808125,14.794375 16.808125,19.478 C16.808125,22.96925 14.336875,25.24025 10.108375,25.24025 L4.830625,25.24025 L0.7998,6.1665 L4.88675,6.1665 L6.13525,11.985375 L6.13525,11.985375 Z M6.84475,15.4765 L8.17875,21.7485 L9.881875,21.7485 C11.755375,21.7485 12.662625,20.981875 12.662625,19.193875 C12.662625,16.895 11.215875,15.4765 8.548875,15.4765 L6.84475,15.4765" id="path28" fill="#231F20"></path>
                                    </g>
                                </g>
                            </g>
                        </g>
                    </g>
                </g>
            </g>
        </g>
    </g>
</svg>