<?xml version="1.0" encoding="UTF-8"?>
<svg width="350px" height="142px" viewBox="0 0 350 142" version="1.1" xmlns="http://www.w3.org/2000/svg" xmlns:xlink="http://www.w3.org/1999/xlink">
    <!-- Generator: Sketch 53.2 (72643) - https://sketchapp.com -->
    <title>Group 4 Copy 8</title>
    <desc>Created with Sketch.</desc>
    <defs>
        <polygon id="path-1" points="0 0 76 0 76 36 0 36"></polygon>
    </defs>
    <g id="Web" stroke="none" stroke-width="1" fill="none" fill-rule="evenodd">
        <g id="About-us" transform="translate(-925.000000, -5852.000000)">
            <g id="Group-4-Copy-8" transform="translate(925.000000, 5852.000000)">
                <rect id="Rectangle" fill="#FFFFFF" x="0" y="0" width="350" height="142"></rect>
                <g id="Group-3" transform="translate(137.000000, 53.000000)">
                    <mask id="mask-2" fill="white">
                        <use xlink:href="#path-1"></use>
                    </mask>
                    <g id="Clip-2"></g>
                    <path d="M14.89257,13.2495882 C10.5293918,13.2363696 6.8472319,16.9187011 6.80913038,21.3333446 C6.77139879,25.7132419 10.4587375,29.4643102 14.8256149,29.4888591 C19.220976,29.5137857 22.8565263,25.8590244 22.8705831,21.4013261 C22.8842701,16.9394733 19.2864514,13.2631845 14.89257,13.2495882 L14.89257,13.2495882 Z M38.3309198,13.2488329 C33.9651521,13.2310822 30.2670858,16.9137914 30.2267647,21.3189929 C30.1868136,25.6996456 33.867124,29.4522246 38.2373306,29.4881038 C42.6301022,29.5239829 46.2863679,25.8643119 46.303754,21.414167 C46.3215101,16.9489151 42.7259109,13.2665836 38.3309198,13.2488329 L38.3309198,13.2488329 Z M61.192568,13.2488329 C56.8216215,13.2714934 53.1627664,16.9949915 53.1812623,21.4020814 C53.1993882,25.8129481 56.8915359,29.5073652 61.2624824,29.4884814 C65.6363882,29.4695977 69.3107798,25.7249498 69.2674995,21.3307008 C69.2242191,16.8869764 65.5661039,13.2261724 61.192568,13.2488329 L61.192568,13.2488329 Z M69.3296456,35.3205392 C69.2915441,34.7672453 69.2578816,34.2781562 69.2138614,33.6413961 C65.9622856,35.5452559 62.5686615,36.4089987 58.911656,35.8145382 C55.2394838,35.217434 52.2146675,33.427632 49.7709918,30.4311583 C46.699196,34.1406824 42.8117318,36.0437869 38.1204366,35.9886464 C33.4147147,35.9331281 29.5690512,33.9322058 26.6241371,30.1788714 C20.9373937,36.5853729 14.3732057,37.6107606 6.85315058,33.7018241 C6.82281734,34.2396333 6.79396376,34.7506276 6.76178093,35.3250713 L0.0207723067,35.3250713 L0.0207723067,34.2577617 C0.0207723067,23.2417365 0.0326096702,12.2253336 5.69204679e-05,1.20930833 C-0.00290242042,0.263610056 0.221637569,-0.038152292 1.17343558,0.00376963617 C3.00711718,0.0845920923 4.84671746,0.0271854879 6.78286623,0.0271854879 L6.78286623,9.13746253 C14.3007018,5.15676773 20.8896743,6.17837868 26.5897348,12.48744 C32.2757384,4.92374223 43.9085375,4.96679719 49.7110651,12.186433 C55.4107557,6.19424103 61.8887529,5.21153061 69.2268085,9.1046048 C69.2423451,8.7779159 69.2634304,8.45198235 69.2719385,8.12567113 C69.2793368,7.8159776 69.2734182,7.50628408 69.2734182,7.12747603 L76,7.12747603 L76,35.3205392 L69.3296456,35.3205392 Z" id="Fill-1" fill="#1D1D1B" mask="url(#mask-2)"></path>
                </g>
            </g>
        </g>
    </g>
</svg>