<?xml version="1.0" encoding="UTF-8"?>
<svg width="350px" height="142px" viewBox="0 0 350 142" version="1.1" xmlns="http://www.w3.org/2000/svg" xmlns:xlink="http://www.w3.org/1999/xlink">
    <!-- Generator: Sketch 53.2 (72643) - https://sketchapp.com -->
    <title>Group 4 Copy 3</title>
    <desc>Created with Sketch.</desc>
    <g id="Web" stroke="none" stroke-width="1" fill="none" fill-rule="evenodd">
        <g id="About-us" transform="translate(-165.000000, -5852.000000)">
            <g id="Group-4-Copy-3" transform="translate(165.000000, 5852.000000)">
                <rect id="Rectangle" fill="#FFFFFF" x="0" y="0" width="350" height="142"></rect>
                <g id="Swiss-Open-Gstaad-1" transform="translate(79.000000, 45.000000)" fill="#000000" fill-rule="nonzero">
                    <path d="M34.0666667,49.3417722 L35.7333333,51.8481013 L35.4,51.8481013 L34.0666667,49.3417722 Z M32,46 L34.5333333,52 L35.2666667,52 L35.2666667,52 L36,52 L32,46 L32,46 L32,46 L32,46 Z" id="Shape"></path>
                    <path d="M28.4,49.4177215 L27.4,51.7721519 L27.1333333,51.7721519 L28.4,49.4177215 Z M26,52 L26.7333333,52 L27.4666667,52 L30,46 L26,52 Z" id="Shape"></path>
                    <g id="Group" transform="translate(28.000000, 35.000000)">
                        <path d="M3.075,2.175 C3.6,2.625 4.125,2.775 4.65,2.7 C5.1,2.625 5.4,2.4 5.55,2.25 C5.175,1.2 4.2,0.45 3.075,0.45 C2.25,0.45 1.5,0.825 1.05,1.425 C1.05,1.425 1.05,1.425 1.125,1.425 C1.65,1.35 2.325,1.575 3.075,2.175 M3.9,0.9 C3.975,0.9 3.975,0.9 3.9,0.9 C4.05,0.975 4.05,0.975 4.125,0.975 C4.125,0.975 4.2,0.975 4.2,1.05 L4.275,1.125 C4.275,1.125 4.35,1.125 4.35,1.2 L4.425,1.275 L4.5,1.35 L4.5,1.35 L4.5,1.35 C4.575,1.425 4.65,1.5 4.65,1.5 L4.65,1.5 L4.725,1.575 L4.725,1.575 L4.725,1.575 C4.725,1.65 4.8,1.65 4.8,1.725 L4.8,1.725 L4.8,1.725 C4.875,1.8 4.95,1.95 4.95,2.025 C4.875,2.1 4.725,2.175 4.575,2.25 C4.725,1.8 4.35,1.275 3.9,0.9 L3.9,0.9" id="Shape"></path>
                        <path d="M5.7,3.075 C5.7,2.925 5.7,2.85 5.7,2.7 C5.475,2.85 5.175,3.075 4.8,3.15 C4.725,3.15 4.65,3.15 4.5,3.15 C3.975,3.15 3.45,2.925 2.925,2.55 C2.25,2.025 1.65,1.8 1.2,1.875 C0.825,1.95 0.675,2.1 0.675,2.175 C0.525,2.475 0.45,2.775 0.45,3.15 C0.45,4.575 1.65,5.775 3.075,5.775 C4.5,5.7 5.7,4.5 5.7,3.075 M3.9,5.25 C4.5,4.8 4.875,4.05 4.95,3.3 C5.1,3.225 5.25,3.225 5.4,3.15 C5.4,4.125 4.8,4.95 3.9,5.25" id="Shape"></path>
                    </g>
                    <path d="M25.3333333,30 L24,31.3333333 L25.6666667,33 L27,31.6666667 L25.3333333,30 Z M25.6666667,32.6666667 L25.5,32.5 L26.5,31.5 L26.6666667,31.6666667 L25.6666667,32.6666667 Z" id="Shape"></path>
                    <path d="M37.5557702,22.7793131 C38.2590322,22.6312673 38.9622942,22.4832215 39.6655563,22.1871299 C39.7358825,22.1871299 39.8062087,22.113107 39.8062087,22.113107 L39.8765349,22.113107 C40.6501232,21.8170154 41.3533852,21.4469009 42.0566472,20.9287406 L42.0566472,20.9287406 L42.0566472,20.9287406 C42.0566472,20.9287406 42.0566472,20.9287406 42.1269734,20.9287406 L42.1269734,20.9287406 C42.2676259,20.7806948 42.4082783,20.7066719 42.5489307,20.5586261 C42.7599093,20.3365574 42.9708879,20.1885116 43.1818665,19.966443 C44.7993692,18.2639163 45.7839361,16.0432294 45.7839361,14.0446111 C45.7839361,13.8225424 45.7839361,13.6004737 45.7136099,13.3784051 C45.7839361,13.7485195 45.8542623,14.118634 45.8542623,14.4887485 C45.8542623,16.4133439 44.9400216,18.5600079 43.3928451,20.1885116 C43.1818665,20.4105803 43.0412141,20.5586261 42.8302355,20.7806948 C42.6895831,20.9287406 42.5489307,21.0027635 42.4082783,21.1508093 L42.4082783,21.1508093 C42.4082783,21.1508093 42.3379521,21.1508093 42.3379521,21.2248322 C41.7050162,21.7429925 41.0017542,22.113107 40.2984921,22.4091986 L40.2281659,22.4091986 C40.1578397,22.4091986 40.1578397,22.4832215 40.0875135,22.4832215 L40.0875135,22.4832215 L40.0875135,22.4832215 C39.3842515,22.7052902 38.6809894,22.853336 37.9777274,23.0013818 C36.5008771,23.2974734 34.9537006,23.6675878 33.1955455,24.8519542 C33.1955455,24.9259771 33.2658717,24.9259771 33.2658717,25 C35.094353,23.8156336 36.5712033,23.519542 37.9777274,23.1494276 C38.6809894,23.0013818 39.3842515,22.853336 40.0875135,22.5572444 C40.1578397,22.5572444 40.2281659,22.4832215 40.2984921,22.4832215 C41.0017542,22.1871299 41.7050162,21.8170154 42.4082783,21.2988551 L42.4786045,21.2248322 C42.6192569,21.0767864 42.7599093,21.0027635 42.9005617,20.8547177 C43.1115403,20.7066719 43.3225189,20.4846032 43.4631713,20.2625345 C46.2058933,17.3756415 46.8388291,13.3043822 44.7993692,11.231741 C42.8302355,9.15909988 38.9622942,9.75128306 36.2195723,12.6381761 C36.0085937,12.8602448 35.8679412,13.0823135 35.6569626,13.2303593 C35.5163102,13.3784051 35.445984,13.5264508 35.3053316,13.6744966 L35.2350054,13.7485195 C34.742722,14.4887485 34.3207647,15.2289775 34.1097861,15.9692065 C34.1097861,16.0432294 34.0394599,16.1172523 34.0394599,16.1912752 C33.8284813,16.9315041 33.6878289,17.6717331 33.5471765,18.4119621 C33.2658717,19.8924201 32.9845669,21.372878 32,23.0754047 C32.2813048,23.519542 32.5626096,24.0377023 32.9845669,24.4818397 C34.6723958,23.3714962 36.1492461,23.0754047 37.5557702,22.7793131 M42.6895831,19.3002369 C40.3688183,21.7429925 37.2041391,22.4091986 35.6569626,20.7066719 C34.1097861,19.0781682 34.6723958,15.7471378 36.9931605,13.3043822 C39.3139253,10.8616265 42.4786045,10.1954205 44.025781,11.8979471 C45.5729575,13.6004737 45.0103478,16.9315041 42.6895831,19.3002369 M36.7118557,13.0823135 C38.3996846,11.3057639 40.5797969,10.491512 42.1972996,10.8616265 C40.5094707,10.6395578 38.4700108,11.5278326 36.8525081,13.2303593 C35.445984,14.7108172 34.6020696,16.6354126 34.6020696,18.3379392 C34.6020696,18.485985 34.6020696,18.6340308 34.6020696,18.7820766 C34.5317434,18.485985 34.5317434,18.1898934 34.5317434,17.8938018 C34.5317434,16.339321 35.3756578,14.4887485 36.7118557,13.0823135 M34.1801123,20.5586261 C34.391091,20.9287406 34.6020696,21.2988551 34.8833744,21.5949467 C35.1646792,21.8910383 35.5163102,22.113107 35.8679412,22.3351757 C34.9537006,22.6312673 34.0394599,23.0013818 32.9845669,23.5935649 C33.5471765,22.4832215 33.8988075,21.5209238 34.1801123,20.5586261" id="Shape"></path>
                    <g id="Group" transform="translate(34.000000, 11.000000)">
                        <path d="M7.26,0.806666667 L7.11333333,0.953333333 L6.96666667,0.806666667 C6.89333333,0.806666667 6.82,0.806666667 6.67333333,0.88 L6.89333333,1.1 L6.23333333,1.76 L5.64666667,1.17333333 C5.42666667,1.24666667 5.20666667,1.32 4.98666667,1.46666667 L4.62,1.83333333 L4.54666667,1.76 C4.47333333,1.76 4.4,1.83333333 4.32666667,1.83333333 L4.47333333,1.98 L3.81333333,2.64 L3.52,2.34666667 C3.44666667,2.42 3.37333333,2.42 3.37333333,2.49333333 L3.66666667,2.78666667 L3.00666667,3.44666667 L2.71333333,3.15333333 L2.64,3.22666667 L2.56666667,3.3 L2.86,3.59333333 L2.2,4.25333333 L1.90666667,3.96 C1.83333333,4.03333333 1.83333333,4.10666667 1.76,4.10666667 L2.05333333,4.4 L1.61333333,4.84 L1.46666667,4.69333333 C1.39333333,4.76666667 1.39333333,4.84 1.39333333,4.91333333 L1.46666667,4.98666667 L1.1,5.35333333 C1.02666667,5.57333333 0.88,5.79333333 0.806666667,6.01333333 L1.39333333,6.6 L0.88,7.18666667 L0.66,6.96666667 C0.66,7.04 0.66,7.11333333 0.586666667,7.26 L0.733333333,7.40666667 L0.586666667,7.55333333 C0.586666667,7.62666667 0.586666667,7.77333333 0.586666667,7.84666667 L0.88,7.55333333 L1.54,8.21333333 L0.88,8.8 L0.66,8.58 C0.733333333,8.8 0.733333333,8.94666667 0.806666667,9.16666667 L0.88,9.09333333 L1.54,9.75333333 L1.39333333,9.9 L1.46666667,9.97333333 L1.46666667,9.97333333 L1.54,10.0466667 L1.68666667,9.9 L2.34666667,10.56 L2.27333333,10.6333333 C2.42,10.7066667 2.64,10.78 2.86,10.78 L2.64,10.56 L3.3,9.9 L3.96,10.56 L3.66666667,10.8533333 C3.74,10.8533333 3.88666667,10.8533333 3.96,10.8533333 L4.10666667,10.7066667 L4.25333333,10.8533333 C4.32666667,10.8533333 4.4,10.8533333 4.54666667,10.78 L4.32666667,10.56 L4.98666667,9.9 L5.57333333,10.4866667 C5.79333333,10.4133333 6.01333333,10.34 6.23333333,10.1933333 L6.52666667,9.9 L6.6,9.97333333 C6.67333333,9.97333333 6.74666667,9.9 6.82,9.9 L6.67333333,9.75333333 L7.33333333,9.09333333 L7.62666667,9.38666667 C7.7,9.31333333 7.77333333,9.31333333 7.77333333,9.24 L7.48,8.94666667 L8.14,8.28666667 L8.43333333,8.58 L8.50666667,8.50666667 L8.58,8.43333333 L8.28666667,8.14 L8.94666667,7.48 L9.24,7.77333333 C9.31333333,7.7 9.31333333,7.62666667 9.38666667,7.62666667 L8.8,7.33333333 L9.46,6.67333333 L9.60666667,6.82 C9.68,6.74666667 9.68,6.67333333 9.68,6.6 L9.60666667,6.6 L9.97333333,6.23333333 C10.0466667,6.01333333 10.1933333,5.79333333 10.2666667,5.57333333 L9.68,4.98666667 L10.34,4.32666667 L10.56,4.54666667 C10.56,4.47333333 10.56,4.4 10.6333333,4.25333333 L10.4866667,4.10666667 L10.6333333,3.96 C10.6333333,3.88666667 10.6333333,3.74 10.6333333,3.66666667 L10.34,3.96 L9.68,3.3 L10.34,2.64 L10.56,2.86 C10.4866667,2.64 10.4866667,2.49333333 10.4133333,2.27333333 L10.34,2.34666667 L9.68,1.68666667 L9.82666667,1.54 L9.75333333,1.46666667 L9.68,1.39333333 L9.53333333,1.54 L8.87333333,0.88 L8.94666667,0.806666667 C8.8,0.733333333 8.58,0.66 8.36,0.66 L8.58,0.88 L7.92,1.54 L7.26,0.806666667 L7.55333333,0.586666667 C7.40666667,0.806666667 7.33333333,0.806666667 7.26,0.806666667 M6.30666667,2.05333333 L6.96666667,2.71333333 L6.30666667,3.37333333 L5.64666667,2.71333333 L6.30666667,2.05333333 Z M4.10666667,5.79333333 L4.76666667,5.13333333 L5.42666667,5.79333333 L4.76666667,6.45333333 L4.10666667,5.79333333 Z M4.62,6.6 L3.96,7.26 L3.37333333,6.6 L4.03333333,5.94 L4.62,6.6 Z M4.91333333,4.98666667 L5.57333333,4.32666667 L6.23333333,4.98666667 L5.57333333,5.64666667 L4.91333333,4.98666667 Z M5.5,5.94 L6.16,6.6 L5.5,7.26 L4.91333333,6.6 L5.5,5.94 Z M5.64666667,5.79333333 L6.30666667,5.13333333 L6.96666667,5.79333333 L6.30666667,6.45333333 L5.64666667,5.79333333 Z M6.45333333,4.98666667 L7.11333333,4.32666667 L7.77333333,4.98666667 L7.11333333,5.64666667 L6.45333333,4.98666667 Z M6.30666667,4.84 L5.64666667,4.18 L6.30666667,3.52 L6.96666667,4.18 L6.30666667,4.84 Z M5.5,4.10666667 L4.84,3.44666667 L5.5,2.78666667 L6.16,3.44666667 L5.5,4.10666667 Z M5.35333333,4.25333333 L4.69333333,4.91333333 L4.03333333,4.25333333 L4.69333333,3.59333333 L5.35333333,4.25333333 Z M4.62,4.98666667 L3.96,5.64666667 L3.3,4.98666667 L3.96,4.32666667 L4.62,4.98666667 Z M3.81333333,5.79333333 L3.15333333,6.45333333 L2.49333333,5.79333333 L3.15333333,5.13333333 L3.81333333,5.79333333 Z M3.08,6.6 L2.42,7.26 L1.76,6.6 L2.42,5.94 L3.08,6.6 Z M3.08,8.14 L2.42,8.8 L1.76,8.14 L2.42,7.48 L3.08,8.14 Z M2.56666667,7.33333333 L3.22666667,6.67333333 L3.81333333,7.33333333 L3.15333333,7.99333333 L2.56666667,7.33333333 Z M3.96,7.48 L4.62,8.14 L3.96,8.8 L3.3,8.14 L3.96,7.48 Z M4.10666667,7.33333333 L4.76666667,6.67333333 L5.42666667,7.33333333 L4.76666667,7.99333333 L4.10666667,7.33333333 Z M5.5,7.48 L6.16,8.14 L5.5,8.8 L4.84,8.14 L5.5,7.48 Z M5.64666667,7.33333333 L6.30666667,6.67333333 L6.96666667,7.33333333 L6.30666667,7.99333333 L5.64666667,7.33333333 Z M6.45333333,6.6 L7.11333333,5.94 L7.77333333,6.6 L7.11333333,7.26 L6.45333333,6.6 Z M7.26,5.79333333 L7.92,5.13333333 L8.58,5.79333333 L7.92,6.45333333 L7.26,5.79333333 Z M7.99333333,4.98666667 L8.65333333,4.32666667 L9.31333333,4.98666667 L8.65333333,5.64666667 L7.99333333,4.98666667 Z M7.99333333,3.44666667 L8.65333333,2.78666667 L9.31333333,3.44666667 L8.65333333,4.10666667 L7.99333333,3.44666667 Z M8.50666667,4.25333333 L7.84666667,4.91333333 L7.18666667,4.25333333 L7.84666667,3.59333333 L8.50666667,4.25333333 Z M7.11333333,4.10666667 L6.45333333,3.44666667 L7.11333333,2.78666667 L7.77333333,3.44666667 L7.11333333,4.10666667 Z M5.5,1.24666667 L6.16,1.90666667 L5.5,2.56666667 L4.84,1.90666667 L5.5,1.24666667 Z M4.76666667,2.05333333 L5.42666667,2.71333333 L4.76666667,3.37333333 L4.10666667,2.71333333 L4.76666667,2.05333333 Z M3.96,2.86 L4.62,3.52 L3.96,4.18 L3.3,3.52 L3.96,2.86 Z M3.22666667,3.59333333 L3.88666667,4.25333333 L3.22666667,4.91333333 L2.56666667,4.25333333 L3.22666667,3.59333333 Z M2.42,4.4 L3.08,5.06 L2.42,5.72 L1.76,5.06 L2.42,4.4 Z M1.02666667,5.79333333 L1.61333333,5.13333333 L2.27333333,5.79333333 L1.61333333,6.45333333 L1.02666667,5.79333333 Z M1.02666667,7.33333333 L1.68666667,6.67333333 L2.34666667,7.33333333 L1.61333333,7.99333333 L1.02666667,7.33333333 Z M1.02666667,8.94666667 L1.68666667,8.28666667 L2.34666667,8.94666667 L1.61333333,9.53333333 L1.02666667,8.94666667 Z M2.42,10.34 L1.76,9.68 L2.42,9.02 L3.08,9.68 L2.42,10.34 Z M2.56666667,8.94666667 L3.22666667,8.28666667 L3.88666667,8.94666667 L3.22666667,9.53333333 L2.56666667,8.94666667 Z M3.96,10.34 L3.3,9.68 L3.96,9.02 L4.62,9.68 L3.96,10.34 Z M4.10666667,8.94666667 L4.76666667,8.28666667 L5.42666667,8.94666667 L4.76666667,9.53333333 L4.10666667,8.94666667 Z M5.5,10.34 L4.84,9.68 L5.5,9.02 L6.16,9.68 L5.5,10.34 Z M6.30666667,9.53333333 L5.64666667,8.87333333 L6.30666667,8.21333333 L6.96666667,8.87333333 L6.30666667,9.53333333 Z M7.11333333,8.8 L6.45333333,8.14 L7.11333333,7.48 L7.77333333,8.14 L7.11333333,8.8 Z M7.84666667,7.99333333 L7.26,7.33333333 L7.92,6.67333333 L8.58,7.33333333 L7.84666667,7.99333333 Z M8.65333333,7.18666667 L7.99333333,6.6 L8.65333333,5.94 L9.31333333,6.6 L8.65333333,7.18666667 Z M10.0466667,5.79333333 L9.38666667,6.45333333 L8.72666667,5.79333333 L9.38666667,5.13333333 L10.0466667,5.79333333 Z M10.0466667,4.25333333 L9.38666667,4.91333333 L8.72666667,4.25333333 L9.38666667,3.59333333 L10.0466667,4.25333333 Z M10.0466667,2.71333333 L9.38666667,3.37333333 L8.72666667,2.71333333 L9.38666667,2.05333333 L10.0466667,2.71333333 Z M8.65333333,1.24666667 L9.31333333,1.90666667 L8.65333333,2.56666667 L7.99333333,1.90666667 L8.65333333,1.24666667 Z M8.50666667,2.71333333 L7.84666667,3.37333333 L7.18666667,2.71333333 L7.84666667,2.05333333 L8.50666667,2.71333333 Z M7.7,1.90666667 L7.04,2.56666667 L6.38,1.90666667 L7.04,1.24666667 L7.7,1.90666667 Z" id="Shape"></path>
                    </g>
                    <path d="M30.0126582,26.5384615 C30.3164557,26.2307692 30.6962025,25.9230769 31,25.6923077 C30.9240506,25.6923077 30.9240506,25.6153846 30.8481013,25.6153846 C30.5443038,25.8461538 30.3164557,26.0769231 30.0126582,26.3846154 L29.8607595,26.2307692 C30.164557,26 30.3924051,25.7692308 30.6962025,25.5384615 C30.4683544,25.3076923 30.164557,25.1538462 29.9367089,25 C29.7088608,25.2307692 29.4810127,25.5384615 29.1772152,25.8461538 L28.8734177,25.5384615 L25,29.4615385 L26.5189873,31 L30.3924051,27.0769231 L30.0126582,26.5384615 Z M26.2911392,30.3846154 L29.9367089,26.6923077 L30.0886076,26.8461538 L26.443038,30.5384615 L26.2911392,30.3846154 Z" id="Shape"></path>
                    <path d="M39,31.3333333 L37.6666667,30 L36,31.6666667 L37.3333333,33 L39,31.3333333 Z M37.6666667,30.3333333 L38.6666667,31.3333333 L38.5,31.5 L37.5,30.5 L37.6666667,30.3333333 Z" id="Shape"></path>
                    <path d="M20.2818933,20.8341582 C20.4289315,20.9814893 20.5759698,21.0551548 20.723008,21.2024858 L20.7965271,21.2761513 C21.5317182,21.79181 22.2669094,22.2338031 23.0021005,22.4547997 C23.0756197,22.4547997 23.1491388,22.5284652 23.2226579,22.5284652 C23.957849,22.7494618 24.6930402,22.8967928 25.4282313,23.0441238 C27.6338048,23.486117 29.9128974,24.0017756 33.0742193,26.9483964 L32.7801428,27.2430585 L36.5296177,31 L38,29.5266896 L34.2505251,25.7697481 L33.9564487,26.0644102 C30.942165,22.8967928 30.5010503,20.6131617 30.0599356,18.4031961 C29.9128974,17.6665409 29.7658591,16.9298857 29.4717827,16.1932305 C29.4717827,16.1195649 29.3982635,16.0458994 29.3982635,15.9722339 C29.1041871,15.2355787 28.7365915,14.4989235 28.2219577,13.7622683 L28.1484386,13.6886028 C28.0014004,13.5412717 27.9278812,13.3939407 27.780843,13.2466097 C27.6338048,13.0256131 27.4132474,12.8046165 27.1926901,12.6572855 C24.3254446,9.78433022 20.2818933,9.12134054 18.2233581,11.2576406 C16.1648229,13.3202752 16.7529758,17.3718788 19.6202213,20.2448341 C19.8407786,20.4658306 20.0613359,20.6868272 20.2818933,20.8341582 M34.2505251,26.1380757 L37.7794427,29.6740206 L37.5588853,29.8213517 L34.0299678,26.2854067 L34.2505251,26.1380757 Z M27.6338048,22.4547997 C28.0014004,22.2338031 28.3689959,22.0128065 28.6630724,21.7181445 C28.9571489,21.4234824 29.1777062,21.0551548 29.3982635,20.6868272 C29.69234,21.6444789 30.0599356,22.6021307 30.6480885,23.7071135 C29.5453018,23.1177894 28.5160342,22.6757962 27.6338048,22.4547997 M21.4581991,10.2263233 C23.3696961,10.2263233 25.5017505,11.1839751 27.119171,12.8046165 C27.3397283,13.0256131 27.4867666,13.1729441 27.7073239,13.3939407 C27.8543621,13.5412717 27.9278812,13.6886028 28.0749195,13.8359338 L28.0749195,13.8359338 C28.0749195,13.8359338 28.0749195,13.9095993 28.1484386,13.9095993 C28.6630724,14.572589 29.030668,15.3092442 29.3247444,16.0458994 L29.3247444,16.1195649 C29.3247444,16.1932305 29.3982635,16.1932305 29.3982635,16.266896 L29.3982635,16.266896 L29.3982635,16.266896 C29.6188209,17.0035512 29.7658591,17.7402064 29.9128974,18.4768616 C30.354012,20.6868272 30.8686458,22.9704583 33.7358913,26.1380757 L33.5888531,26.2854067 C30.7216076,23.1914549 30.2804929,20.9814893 29.8393782,18.8451892 C29.69234,18.108534 29.5453018,17.3718788 29.2512253,16.6352236 C29.2512253,16.5615581 29.1777062,16.4878925 29.1777062,16.4878925 L29.1777062,16.414227 C28.8836297,15.6039063 28.5160342,14.8672511 28.0014004,14.1305959 L28.0014004,14.1305959 L28.0014004,14.1305959 C28.0014004,14.1305959 28.0014004,14.1305959 28.0014004,14.0569304 L28.0014004,14.0569304 C27.8543621,13.9095993 27.780843,13.7622683 27.6338048,13.6149373 C27.4132474,13.3939407 27.2662092,13.1729441 27.0456519,12.9519476 C25.3547122,11.2576406 23.1491388,10.2263233 21.1641227,10.2263233 C20.9435653,10.2263233 20.723008,10.2263233 20.5024506,10.2999889 C20.723008,10.2263233 21.0170844,10.2263233 21.4581991,10.2263233 M19.0320683,12.0679613 C20.6494889,10.4473199 23.957849,11.0366441 26.3839798,13.4676062 C28.8101106,15.8985684 29.4717827,19.2135168 27.780843,20.8341582 C26.1634225,22.4547997 22.8550623,21.8654755 20.4289315,19.4345133 C18.0028007,17.0035512 17.4146478,13.7622683 19.0320683,12.0679613 M18.0028007,13.9832649 C17.7822434,15.7512373 18.6644728,17.8875374 20.3554124,19.5818444 C21.8257947,21.0551548 23.7372917,21.939141 25.4282313,21.939141 C25.5752696,21.939141 25.7223078,21.939141 25.869346,21.939141 C25.5752696,22.0128065 25.2811931,22.0128065 24.9871167,22.0128065 C23.3696961,22.0128065 21.6052374,21.1288203 20.1348551,19.7291754 C18.3703963,17.9612029 17.561686,15.6775718 18.0028007,13.9832649" id="Shape"></path>
                    <g id="Group" transform="translate(17.000000, 12.000000)">
                        <path d="M2.71333333,7.5 L2.78666667,7.57142857 L2.86,7.64285714 L3.15333333,7.35714286 L3.81333333,8 L3.52,8.28571429 C3.59333333,8.35714286 3.66666667,8.35714286 3.66666667,8.42857143 L3.96,8.14285714 L4.62,8.78571429 L4.47333333,8.92857143 C4.54666667,9 4.62,9 4.69333333,9 L4.76666667,8.92857143 L5.13333333,9.28571429 C5.35333333,9.35714286 5.57333333,9.5 5.79333333,9.57142857 L6.38,9 L7.04,9.64285714 L6.74666667,9.71428571 C6.82,9.71428571 6.89333333,9.71428571 7.04,9.78571429 L7.18666667,9.64285714 L7.33333333,9.78571429 C7.40666667,9.78571429 7.55333333,9.78571429 7.62666667,9.78571429 L7.33333333,9.5 L7.99333333,8.85714286 L8.65333333,9.5 L8.43333333,9.71428571 C8.65333333,9.64285714 8.8,9.64285714 9.02,9.57142857 L8.94666667,9.5 L9.60666667,8.85714286 L9.75333333,9 L9.82666667,8.92857143 L9.9,8.85714286 L9.75333333,8.71428571 L10.4133333,8.07142857 L10.4866667,8.14285714 C10.56,8 10.6333333,7.78571429 10.6333333,7.57142857 L10.1933333,7.85714286 L9.53333333,7.21428571 L10.1933333,6.57142857 L10.4866667,6.85714286 C10.4866667,6.78571429 10.4866667,6.64285714 10.4866667,6.57142857 L10.34,6.42857143 L10.4866667,6.28571429 C10.4866667,6.21428571 10.4866667,6.14285714 10.4133333,6 L10.1933333,6.21428571 L9.60666667,5.71428571 L10.1933333,5.14285714 C10.12,4.92857143 10.0466667,4.71428571 9.9,4.5 L9.60666667,4.21428571 L9.68,4.14285714 C9.68,4.07142857 9.60666667,4 9.60666667,3.92857143 L9.46,4.07142857 L8.8,3.42857143 L9.09333333,3.14285714 C9.02,3.07142857 9.02,3 8.94666667,3 L8.65333333,3.28571429 L7.99333333,2.64285714 L8.28666667,2.35714286 L8.21333333,2.28571429 L8.14,2.21428571 L7.84666667,2.5 L7.18666667,1.85714286 L7.48,1.57142857 C7.40666667,1.5 7.33333333,1.5 7.33333333,1.42857143 L7.04,1.71428571 L6.38,1.07142857 L6.52666667,0.928571429 C6.45333333,0.857142857 6.38,0.857142857 6.30666667,0.857142857 L6.23333333,0.928571429 L6.01333333,0.642857143 C5.79333333,0.571428571 5.57333333,0.428571429 5.35333333,0.357142857 L4.76666667,0.928571429 L4.10666667,0.285714286 L4.32666667,0.0714285714 C4.25333333,0.0714285714 4.18,0.0714285714 4.03333333,2.53765263e-15 L3.88666667,0.142857143 L3.74,0 C3.66666667,0 3.52,0 3.44666667,0 L3.74,0.285714286 L3.08,0.928571429 L2.42,0.285714286 L2.64,0.0714285714 C2.42,0.142857143 2.27333333,0.142857143 2.05333333,0.214285714 L2.12666667,0.285714286 L1.46666667,0.928571429 L1.32,0.785714286 L1.24666667,0.857142857 L1.17333333,0.928571429 L1.32,1.07142857 L0.88,1.78571429 L0.806666667,1.71428571 C0.733333333,1.85714286 0.66,2.07142857 0.66,2.28571429 L0.88,2.07142857 L1.54,2.71428571 L0.88,3.28571429 L0.586666667,3 C0.586666667,3.07142857 0.586666667,3.21428571 0.586666667,3.28571429 L0.733333333,3.42857143 L0.586666667,3.57142857 C0.586666667,3.64285714 0.586666667,3.71428571 0.66,3.85714286 L0.88,3.57142857 L1.54,4.21428571 L0.88,4.78571429 C0.953333333,5 1.02666667,5.21428571 1.17333333,5.42857143 L1.54,5.78571429 L1.46666667,5.85714286 C1.46666667,5.92857143 1.54,6 1.54,6.07142857 L1.68666667,5.92857143 L2.34666667,6.57142857 L2.05333333,6.85714286 C2.12666667,6.92857143 2.12666667,7 2.2,7 L2.49333333,6.71428571 L3.15333333,7.35714286 L2.71333333,7.5 Z M3.37333333,7.21428571 L4.03333333,6.57142857 L4.69333333,7.21428571 L3.96,7.85714286 L3.37333333,7.21428571 Z M4.76666667,4.28571429 L5.42666667,4.92857143 L4.76666667,5.57142857 L4.10666667,4.92857143 L4.76666667,4.28571429 Z M3.96,4.78571429 L3.3,4.14285714 L3.96,3.5 L4.62,4.14285714 L3.96,4.78571429 Z M6.30666667,5.57142857 L5.64666667,4.92857143 L6.30666667,4.28571429 L6.96666667,4.92857143 L6.30666667,5.57142857 Z M7.11333333,5.07142857 L7.77333333,5.71428571 L7.11333333,6.35714286 L6.45333333,5.71428571 L7.11333333,5.07142857 Z M6.16,5.71428571 L5.5,6.35714286 L4.91333333,5.71428571 L5.57333333,5.07142857 L6.16,5.71428571 Z M5.57333333,4.78571429 L4.91333333,4.14285714 L5.57333333,3.5 L6.23333333,4.14285714 L5.57333333,4.78571429 Z M5.42666667,6.42857143 L4.76666667,7.07142857 L4.10666667,6.42857143 L4.76666667,5.78571429 L5.42666667,6.42857143 Z M5.57333333,6.57142857 L6.23333333,7.21428571 L5.57333333,7.85714286 L4.91333333,7.21428571 L5.57333333,6.57142857 Z M5.72,6.42857143 L6.38,5.78571429 L7.04,6.42857143 L6.38,7.07142857 L5.72,6.42857143 Z M7.11333333,6.57142857 L7.77333333,7.21428571 L7.11333333,7.85714286 L6.45333333,7.21428571 L7.11333333,6.57142857 Z M7.26,6.42857143 L7.92,5.78571429 L8.58,6.42857143 L7.92,7.07142857 L7.26,6.42857143 Z M8.65333333,6.57142857 L9.31333333,7.21428571 L8.65333333,7.85714286 L7.99333333,7.21428571 L8.65333333,6.57142857 Z M8.06666667,5.71428571 L8.72666667,5.07142857 L9.38666667,5.71428571 L8.72666667,6.35714286 L8.06666667,5.71428571 Z M7.92,5.57142857 L7.26,4.92857143 L7.92,4.28571429 L8.58,4.92857143 L7.92,5.57142857 Z M7.11333333,4.78571429 L6.45333333,4.14285714 L7.11333333,3.5 L7.77333333,4.14285714 L7.11333333,4.78571429 Z M6.30666667,4 L5.64666667,3.35714286 L6.30666667,2.71428571 L6.96666667,3.35714286 L6.30666667,4 Z M5.57333333,3.28571429 L4.91333333,2.64285714 L5.57333333,2 L6.23333333,2.64285714 L5.57333333,3.28571429 Z M5.42666667,3.42857143 L4.76666667,4.07142857 L4.10666667,3.42857143 L4.76666667,2.78571429 L5.42666667,3.42857143 Z M3.96,3.28571429 L3.3,2.64285714 L3.96,2 L4.62,2.64285714 L3.96,3.28571429 Z M3.81333333,3.42857143 L3.15333333,4.07142857 L2.49333333,3.42857143 L3.15333333,2.78571429 L3.81333333,3.42857143 Z M2.42,3.28571429 L1.76,2.64285714 L2.42,2 L3.08,2.64285714 L2.42,3.28571429 Z M3.08,4.14285714 L2.42,4.78571429 L1.76,4.14285714 L2.42,3.5 L3.08,4.14285714 Z M3.22666667,4.28571429 L3.88666667,4.92857143 L3.22666667,5.57142857 L2.56666667,4.92857143 L3.22666667,4.28571429 Z M3.96,5.07142857 L4.62,5.71428571 L3.96,6.35714286 L3.37333333,5.71428571 L3.96,5.07142857 Z M4.10666667,8 L4.76666667,7.35714286 L5.42666667,8 L4.76666667,8.57142857 L4.10666667,8 Z M5.57333333,9.35714286 L4.91333333,8.71428571 L5.57333333,8.07142857 L6.23333333,8.71428571 L5.57333333,9.35714286 Z M5.72,8 L6.38,7.35714286 L7.04,8 L6.30666667,8.57142857 L5.72,8 Z M7.11333333,9.35714286 L6.45333333,8.71428571 L7.11333333,8.07142857 L7.77333333,8.71428571 L7.11333333,9.35714286 Z M7.26,8 L7.92,7.35714286 L8.58,8 L7.92,8.57142857 L7.26,8 Z M8.65333333,9.35714286 L7.99333333,8.71428571 L8.65333333,8.07142857 L9.31333333,8.71428571 L8.65333333,9.35714286 Z M10.0466667,8 L9.46,8.57142857 L8.8,7.92857143 L9.46,7.28571429 L10.0466667,8 Z M10.0466667,6.42857143 L9.38666667,7.07142857 L8.8,6.42857143 L9.46,5.78571429 L10.0466667,6.42857143 Z M10.0466667,4.92857143 L9.38666667,5.57142857 L8.72666667,4.92857143 L9.38666667,4.28571429 L10.0466667,4.92857143 Z M9.31333333,4.14285714 L8.65333333,4.78571429 L7.99333333,4.14285714 L8.65333333,3.5 L9.31333333,4.14285714 Z M8.50666667,3.42857143 L7.84666667,4.07142857 L7.18666667,3.42857143 L7.84666667,2.78571429 L8.50666667,3.42857143 Z M7.77333333,2.64285714 L7.11333333,3.28571429 L6.45333333,2.64285714 L7.11333333,2 L7.77333333,2.64285714 Z M6.96666667,1.92857143 L6.30666667,2.57142857 L5.64666667,1.92857143 L6.30666667,1.28571429 L6.96666667,1.92857143 Z M5.57333333,0.5 L6.23333333,1.14285714 L5.57333333,1.78571429 L4.91333333,1.14285714 L5.57333333,0.5 Z M5.42666667,1.92857143 L4.76666667,2.57142857 L4.10666667,1.92857143 L4.76666667,1.28571429 L5.42666667,1.92857143 Z M3.96,0.5 L4.62,1.14285714 L3.96,1.78571429 L3.3,1.14285714 L3.96,0.5 Z M3.81333333,1.92857143 L3.15333333,2.57142857 L2.49333333,1.92857143 L3.15333333,1.28571429 L3.81333333,1.92857143 Z M2.42,0.5 L3.08,1.14285714 L2.42,1.78571429 L1.76,1.14285714 L2.42,0.5 Z M1.02666667,1.92857143 L1.68666667,1.28571429 L2.34666667,1.92857143 L1.68666667,2.57142857 L1.02666667,1.92857143 Z M1.02666667,3.42857143 L1.68666667,2.78571429 L2.34666667,3.42857143 L1.68666667,4.07142857 L1.02666667,3.42857143 Z M1.02666667,4.92857143 L1.68666667,4.28571429 L2.34666667,4.92857143 L1.68666667,5.57142857 L1.02666667,4.92857143 Z M1.83333333,5.71428571 L2.49333333,5.07142857 L3.08,5.71428571 L2.42,6.35714286 L1.83333333,5.71428571 Z M2.56666667,6.42857143 L3.22666667,5.78571429 L3.81333333,6.42857143 L3.15333333,7.07142857 L2.56666667,6.42857143 Z" id="Shape"></path>
                    </g>
                    <g id="Group">
                        <polyline id="Path" points="23.0143396 11.9208955 23.0143396 11.9208955 23.0871698 11.9208955 23.0143396 11.9208955"></polyline>
                        <path d="M0.0728301887,19.3074627 C0.0728301887,19.3074627 0.436981132,21.4283582 1.96641509,24.1343284 C3.49584906,26.8402985 5.09811321,28.2298507 5.09811321,28.2298507 L5.09811321,28.2298507 L5.09811321,28.2298507 C5.09811321,28.2298507 4.73396226,26.1089552 3.27735849,23.4029851 C1.74792453,20.6970149 0.0728301887,19.3074627 0.0728301887,19.3074627 Z M2.98603774,23.5492537 C3.56867925,24.5731343 3.93283019,25.5238806 4.22415094,26.2552239 L1.3109434,21.0626866 C1.82075472,21.6477612 2.40339623,22.5253731 2.98603774,23.5492537" id="Shape"></path>
                        <path d="M8.81245283,25.7432836 L8.81245283,25.7432836 C8.81245283,25.7432836 8.44830189,27.8641791 8.95811321,30.8626866 C9.54075472,33.861194 10.5603774,35.7626866 10.5603774,35.7626866 C10.5603774,35.7626866 10.9245283,33.641791 10.414717,30.6432836 C9.90490566,27.5716418 8.81245283,25.7432836 8.81245283,25.7432836 L8.81245283,25.7432836 Z M9.46792453,27.7179104 C9.75924528,28.5223881 10.050566,29.4731343 10.2690566,30.6432836 C10.4875472,31.8134328 10.5603774,32.8373134 10.5603774,33.641791 L9.46792453,27.7179104 Z" id="Shape"></path>
                        <path d="M7.93849057,33.5686567 C7.93849057,33.5686567 6.84603774,31.7402985 4.44264151,29.7656716 C2.03924528,27.8641791 0,27.1328358 0,27.1328358 C0,27.1328358 1.09245283,28.961194 3.49584906,30.9358209 C5.89924528,32.8373134 7.93849057,33.5686567 7.93849057,33.5686567 M1.82075472,28.3029851 C2.5490566,28.6686567 3.35018868,29.2537313 4.29698113,29.9850746 C5.1709434,30.7164179 5.89924528,31.4477612 6.48188679,32.0328358 L1.82075472,28.3029851 Z" id="Shape"></path>
                        <path d="M11.8713208,38.3223881 L2.62188679,34.1537313 C2.62188679,34.1537313 4.15132075,35.6895522 6.91886792,36.9328358 C9.75924528,38.1761194 11.8713208,38.3223881 11.8713208,38.3223881" id="Path"></path>
                        <path d="M2.62188679,34.1537313 L11.8713208,38.3223881 C11.8713208,38.3223881 10.3418868,36.7865672 7.57433962,35.5432836 C4.73396226,34.3 2.62188679,34.1537313 2.62188679,34.1537313 M4.66113208,34.8119403 C5.46226415,35.0313433 6.4090566,35.3238806 7.50150943,35.8358209 C8.59396226,36.2746269 9.46792453,36.8597015 10.1233962,37.2985075 L4.66113208,34.8119403 Z" id="Shape"></path>
                        <path d="M18.2803774,42.3447761 L12.5267925,33.9343284 C12.5267925,33.9343284 13.0366038,36.0552239 14.7845283,38.541791 C16.5324528,41.0283582 18.2803774,42.3447761 18.2803774,42.3447761" id="Path"></path>
                        <path d="M16.0226415,37.6641791 C14.274717,35.1044776 12.5267925,33.861194 12.5267925,33.861194 L18.2803774,42.2716418 C18.2803774,42.3447761 17.770566,40.2238806 16.0226415,37.6641791 M15.8769811,37.8104478 C16.5324528,38.761194 17.0422642,39.638806 17.3335849,40.3701493 L13.9833962,35.5432836 C14.4932075,36.1283582 15.2215094,36.8597015 15.8769811,37.8104478" id="Shape"></path>
                        <path d="M16.0226415,41.9791045 C16.0226415,41.9791045 14.2018868,40.8089552 11.2158491,40.1507463 C8.22981132,39.4925373 6.11773585,39.7850746 6.11773585,39.7850746 C6.11773585,39.7850746 7.93849057,40.9552239 10.9245283,41.6134328 C13.910566,42.1985075 16.0226415,41.9791045 16.0226415,41.9791045 M11.2158491,40.3701493 C12.3811321,40.5895522 13.3279245,40.9552239 14.0562264,41.2477612 L8.22981132,39.9313433 C9.0309434,40.0044776 10.050566,40.0776119 11.2158491,40.3701493" id="Shape"></path>
                        <path d="M27.3841509,45.7089552 L19.1543396,39.7119403 C19.1543396,39.7119403 20.3196226,41.5402985 22.7958491,43.2955224 C25.2720755,45.1238806 27.3841509,45.7089552 27.3841509,45.7089552" id="Path"></path>
                        <path d="M23.6698113,42.1253731 C21.1935849,40.2970149 19.1543396,39.7119403 19.1543396,39.7119403 L27.3841509,45.7089552 C27.3841509,45.7089552 26.1460377,43.9537313 23.6698113,42.1253731 M23.5241509,42.3447761 C24.4709434,43.0029851 25.1992453,43.7343284 25.7818868,44.319403 L20.9750943,40.8089552 C21.7762264,41.1014925 22.6501887,41.6134328 23.5241509,42.3447761" id="Shape"></path>
                        <path d="M11.58,44.6119403 C11.58,44.6119403 13.5464151,45.4164179 16.605283,45.4895522 C19.6641509,45.5626866 21.7033962,44.9044776 21.7033962,44.9044776 L11.58,44.6119403 Z" id="Path"></path>
                        <path d="M11.58,44.6900005 L21.7033962,45.0211932 C21.7033962,45.0211932 19.7369811,44.1104134 16.6781132,44.0276152 C13.6192453,43.9448171 11.58,44.6900005 11.58,44.6900005 M13.6920755,44.441606 C14.3475472,44.3588079 15.2215094,44.2760097 16.0954717,44.2760097 C16.2411321,44.2760097 16.4596226,44.2760097 16.605283,44.2760097 C17.770566,44.2760097 18.7901887,44.441606 19.5913208,44.6072024 L13.6920755,44.441606 Z" id="Shape"></path>
                        <path d="M27.3841509,46.8791045 L27.3841509,46.8791045 L27.3841509,46.8791045 C27.3841509,46.8791045 25.2720755,46.3671642 22.2860377,46.8059701 C19.2271698,47.1716418 17.3335849,48.1955224 17.3335849,48.1955224 C17.3335849,48.1955224 19.4456604,48.7074627 22.4316981,48.2686567 C25.4177358,47.8298507 27.3841509,46.8791045 27.3841509,46.8791045 L27.3841509,46.8791045 Z M19.3728302,47.6104478 C20.1739623,47.3910448 21.1207547,47.1716418 22.2860377,47.0253731 C23.0871698,46.9522388 23.8154717,46.8791045 24.6166038,46.8791045 C24.8350943,46.8791045 25.0535849,46.8791045 25.2720755,46.8791045 L19.3728302,47.6104478 Z" id="Shape"></path>
                        <path d="M8.44830189,4.82686567 C6.99169811,7.53283582 6.62754717,9.65373134 6.62754717,9.65373134 L11.5071698,0.731343284 C11.5071698,0.658208955 9.90490566,2.12089552 8.44830189,4.82686567" id="Path"></path>
                        <path d="M9.68641509,5.48507463 C11.1430189,2.77910448 11.5071698,0.658208955 11.5071698,0.658208955 L6.62754717,9.58059701 C6.62754717,9.65373134 8.22981132,8.19104478 9.68641509,5.48507463 M10.7060377,2.70597015 C10.414717,3.51044776 10.050566,4.3880597 9.46792453,5.4119403 C8.88528302,6.4358209 8.30264151,7.24029851 7.86566038,7.89850746 L10.7060377,2.70597015 Z" id="Shape"></path>
                        <path d="M10.6332075,8.48358209 C10.6332075,8.48358209 8.88528302,9.8 7.21018868,12.3597015 C5.53509434,14.919403 5.02528302,17.0402985 5.02528302,17.0402985 C5.02528302,17.0402985 6.77320755,15.7238806 8.44830189,13.1641791 C10.1233962,10.6044776 10.6332075,8.48358209 10.6332075,8.48358209 M6.4090566,15.4313433 L9.68641509,10.458209 C9.32226415,11.1895522 8.88528302,12.1402985 8.22981132,13.0910448 C7.64716981,14.041791 6.99169811,14.8462687 6.4090566,15.4313433" id="Shape"></path>
                        <path d="M1.60226415,16.2358209 C2.5490566,19.161194 3.86,20.8432836 3.86,20.8432836 L3.86,20.8432836 L3.86,20.8432836 C3.86,20.8432836 3.93283019,18.7223881 2.98603774,15.7970149 C2.03924528,12.8716418 0.728301887,11.1895522 0.728301887,11.1895522 C0.728301887,11.1895522 0.655471698,13.3104478 1.60226415,16.2358209 M2.76754717,15.8701493 C3.13169811,16.9671642 3.35018868,17.9910448 3.42301887,18.7955224 L1.60226415,13.1641791 C2.03924528,13.8223881 2.40339623,14.7731343 2.76754717,15.8701493" id="Shape"></path>
                        <path d="M6.4090566,27.4985075 L6.91886792,17.3328358 C6.91886792,17.3328358 6.04490566,19.3074627 5.89924528,22.3791045 C5.82641509,25.4507463 6.4090566,27.4985075 6.4090566,27.4985075" id="Path"></path>
                        <path d="M6.99169811,17.3328358 L6.48188679,27.4985075 C6.48188679,27.4985075 7.35584906,25.5238806 7.50150943,22.4522388 C7.57433962,19.380597 6.99169811,17.3328358 6.99169811,17.3328358 M7.21018868,22.4522388 C7.13735849,23.6223881 6.99169811,24.5731343 6.84603774,25.3776119 L7.13735849,19.4537313 C7.21018868,20.258209 7.28301887,21.2820896 7.21018868,22.4522388" id="Shape"></path>
                        <path d="M4.44264151,4.82686567 C4.44264151,4.82686567 3.71433962,6.87462687 3.64150943,9.94626866 C3.64150943,13.0179104 4.29698113,15.0656716 4.29698113,15.0656716 L4.44264151,4.82686567 Z" id="Path"></path>
                        <path d="M4.29698113,15.0656716 C4.29698113,15.0656716 5.29063128,13.0179104 5.29063128,9.94626866 C5.38096311,6.87462687 4.47764479,4.82686567 4.47764479,4.82686567 L4.29698113,15.0656716 Z M4.74864029,6.94776119 C4.92930395,7.75223881 5.01963578,8.7761194 5.01963578,9.94626866 C5.01963578,11.1164179 4.83897212,12.1402985 4.65830846,12.9447761 L4.74864029,6.94776119 Z" id="Shape"></path>
                        <path d="M57.6086792,28.2298507 L57.6086792,28.2298507 L57.6086792,28.2298507 L57.6086792,28.2298507 L57.6086792,28.2298507 C57.6086792,28.2298507 59.2109434,26.8402985 60.7403774,24.1343284 C62.2698113,21.5014925 62.6339623,19.3074627 62.6339623,19.3074627 L62.6339623,19.3074627 L62.6339623,19.3074627 C62.6339623,19.3074627 60.9588679,20.6970149 59.5022642,23.4029851 C57.9728302,26.0358209 57.6086792,28.1567164 57.6086792,28.2298507 M61.3958491,21.0626866 L58.4826415,26.2552239 C58.7739623,25.4507463 59.1381132,24.5731343 59.7207547,23.5492537 C60.3033962,22.5253731 60.8860377,21.6477612 61.3958491,21.0626866" id="Shape"></path>
                        <path d="M53.8943396,25.7432836 L53.8943396,25.7432836 C53.8943396,25.7432836 52.8018868,27.5716418 52.2920755,30.6432836 C51.709434,33.641791 52.1464151,35.7626866 52.1464151,35.7626866 C52.1464151,35.7626866 53.2388679,33.9343284 53.7486792,30.8626866 C54.2584906,27.8641791 53.8943396,25.7432836 53.8943396,25.7432836 L53.8943396,25.7432836 Z M52.2192453,33.641791 C52.2192453,32.8373134 52.2920755,31.8134328 52.510566,30.6432836 C52.7290566,29.4731343 53.0203774,28.5223881 53.3116981,27.7179104 L52.2192453,33.641791 Z" id="Shape"></path>
                        <path d="M58.2641509,29.7656716 C55.8607547,31.6671642 54.7683019,33.5686567 54.7683019,33.5686567 C54.7683019,33.5686567 56.8075472,32.9104478 59.2109434,30.9358209 C61.6143396,29.0343284 62.7067925,27.1328358 62.7067925,27.1328358 C62.7067925,27.1328358 60.6675472,27.8641791 58.2641509,29.7656716 M56.2977358,32.0328358 C56.8075472,31.4477612 57.5358491,30.7164179 58.4826415,29.9850746 C59.3566038,29.2537313 60.230566,28.741791 60.9588679,28.3029851 L56.2977358,32.0328358 Z" id="Shape"></path>
                        <path d="M55.7879245,36.9328358 C58.5554717,35.6895522 60.0849057,34.1537313 60.0849057,34.1537313 L50.8354717,38.3223881 C50.8354717,38.3223881 52.9475472,38.1761194 55.7879245,36.9328358" id="Path"></path>
                        <path d="M55.1324528,35.5432836 C52.3649057,36.7865672 50.8354717,38.3223881 50.8354717,38.3223881 L60.0849057,34.1537313 C60.0849057,34.1537313 57.9728302,34.3 55.1324528,35.5432836 M55.2781132,35.7626866 C56.370566,35.2507463 57.3173585,34.958209 58.1184906,34.738806 L52.7290566,37.1522388 C53.3116981,36.7865672 54.1856604,36.2746269 55.2781132,35.7626866" id="Shape"></path>
                        <path d="M50.18,33.9343284 L44.4264151,42.3447761 C44.4264151,42.3447761 46.1743396,41.1014925 47.9222642,38.541791 C49.5973585,35.9820896 50.18,33.9343284 50.18,33.9343284" id="Path"></path>
                        <path d="M50.18,33.9343284 C50.18,33.9343284 48.4320755,35.1776119 46.6841509,37.7373134 C44.9362264,40.2970149 44.4264151,42.3447761 44.4264151,42.3447761 L50.18,33.9343284 Z M46.9026415,37.8104478 C47.5581132,36.8597015 48.2135849,36.0552239 48.7962264,35.4701493 L45.4460377,40.3701493 C45.7373585,39.7119403 46.2471698,38.761194 46.9026415,37.8104478" id="Shape"></path>
                        <path d="M51.4909434,40.0776119 C48.5049057,40.7358209 46.6841509,41.9059701 46.6841509,41.9059701 C46.6841509,41.9059701 48.7962264,42.1985075 51.7822642,41.5402985 C54.7683019,40.8820896 56.5890566,39.7119403 56.5890566,39.7119403 C56.5890566,39.7119403 54.4041509,39.419403 51.4909434,40.0776119 M51.4909434,40.3701493 C52.6562264,40.0776119 53.6758491,40.0044776 54.4769811,39.9313433 L48.650566,41.2477612 C49.4516981,40.9552239 50.3984906,40.5895522 51.4909434,40.3701493" id="Shape"></path>
                        <path d="M39.9109434,43.2955224 C42.3871698,41.4671642 43.5524528,39.7119403 43.5524528,39.7119403 L35.3226415,45.7089552 C35.3226415,45.7089552 37.434717,45.1238806 39.9109434,43.2955224" id="Path"></path>
                        <path d="M43.5524528,39.7119403 C43.5524528,39.7119403 41.5132075,40.2970149 39.0369811,42.1253731 C36.5607547,43.9537313 35.3954717,45.7089552 35.3954717,45.7089552 L43.5524528,39.7119403 Z M39.1826415,42.3447761 C40.129434,41.6865672 41.0033962,41.1746269 41.7316981,40.8089552 L36.9249057,44.319403 C37.5075472,43.7343284 38.2358491,43.0029851 39.1826415,42.3447761" id="Shape"></path>
                        <path d="M46.1015094,45.4895522 C49.1603774,45.4164179 51.1267925,44.6119403 51.1267925,44.6119403 L41.0033962,44.9044776 C41.0033962,44.9044776 43.0426415,45.5626866 46.1015094,45.4895522" id="Path"></path>
                        <path d="M46.0286792,44.0276152 C42.9698113,44.1104134 41.0033962,45.0211932 41.0033962,45.0211932 L51.1267925,44.6900005 C51.1267925,44.6900005 49.0875472,43.9448171 46.0286792,44.0276152 M46.0286792,44.2760097 C46.1743396,44.2760097 46.3928302,44.2760097 46.5384906,44.2760097 C47.485283,44.2760097 48.2864151,44.3588079 48.9418868,44.441606 L43.1154717,44.6900005 C43.8437736,44.441606 44.8633962,44.3588079 46.0286792,44.2760097" id="Shape"></path>
                        <path d="M45.4460377,48.1223881 C45.4460377,48.1223881 43.5524528,47.0985075 40.4935849,46.7328358 C37.434717,46.3671642 35.3954717,46.8059701 35.3954717,46.8059701 L35.3954717,46.8059701 L35.3954717,46.8059701 L35.3954717,46.8059701 L35.3954717,46.8059701 C35.3954717,46.8059701 37.2890566,47.8298507 40.3479245,48.1955224 C43.3339623,48.6343284 45.4460377,48.1223881 45.4460377,48.1223881 L45.4460377,48.1223881 L45.4460377,48.1223881 Z M37.434717,46.8791045 C37.6532075,46.8791045 37.8716981,46.8791045 38.0901887,46.8791045 C38.8184906,46.8791045 39.6196226,46.9522388 40.4207547,47.0253731 C41.5860377,47.1716418 42.5328302,47.3910448 43.3339623,47.6104478 L37.434717,46.8791045 Z" id="Shape"></path>
                        <path d="M54.2584906,4.82686567 C52.8018868,2.12089552 51.1996226,0.731343284 51.1996226,0.731343284 L56.0792453,9.65373134 C56.0792453,9.65373134 55.7879245,7.53283582 54.2584906,4.82686567" id="Path"></path>
                        <path d="M56.0792453,9.65373134 L51.1996226,0.658208955 C51.1996226,0.658208955 51.4909434,2.77910448 53.0203774,5.48507463 C54.4769811,8.19104478 56.0792453,9.65373134 56.0792453,9.65373134 M54.8411321,7.89850746 C54.3313208,7.24029851 53.7486792,6.4358209 53.2388679,5.4119403 C52.6562264,4.3880597 52.2920755,3.43731343 52.0007547,2.70597015 L54.8411321,7.89850746 Z" id="Shape"></path>
                        <path d="M55.4966038,12.3597015 C53.8215094,9.8 52.0735849,8.48358209 52.0735849,8.48358209 C52.0735849,8.48358209 52.5833962,10.6044776 54.2584906,13.1641791 C55.9335849,15.7238806 57.6815094,17.0402985 57.6815094,17.0402985 C57.6815094,17.0402985 57.1716981,14.919403 55.4966038,12.3597015 M54.4769811,13.0910448 C53.8215094,12.1402985 53.3845283,11.1895522 53.0203774,10.458209 L56.2977358,15.4313433 C55.7150943,14.8462687 55.1324528,14.041791 54.4769811,13.0910448" id="Shape"></path>
                        <path d="M58.8467925,20.9164179 L58.8467925,20.9164179 C58.8467925,20.9164179 60.1577358,19.2343284 61.1045283,16.3089552 C62.0513208,13.3835821 61.9784906,11.2626866 61.9784906,11.1895522 L61.9784906,11.1895522 L61.9784906,11.1895522 L61.9784906,11.1895522 C61.9784906,11.1895522 60.6675472,12.8716418 59.7207547,15.7970149 C58.7739623,18.7223881 58.8467925,20.9164179 58.8467925,20.9164179 M59.9392453,15.8701493 C60.3033962,14.7731343 60.6675472,13.8223881 61.0316981,13.0910448 L59.2109434,18.7955224 C59.3566038,17.9910448 59.5750943,16.9671642 59.9392453,15.8701493" id="Shape"></path>
                        <path d="M56.734717,22.3791045 C56.5890566,19.3074627 55.7150943,17.3328358 55.7150943,17.3328358 L56.2249057,27.4985075 C56.2977358,27.4985075 56.8803774,25.4507463 56.734717,22.3791045" id="Path"></path>
                        <path d="M55.2781132,22.4522388 C55.4237736,25.5238806 56.2977358,27.4985075 56.2977358,27.4985075 L55.7879245,17.3328358 C55.7150943,17.3328358 55.1324528,19.380597 55.2781132,22.4522388 M55.4966038,22.4522388 C55.4237736,21.2820896 55.4966038,20.258209 55.569434,19.4537313 L55.8607547,25.3776119 C55.7150943,24.5731343 55.569434,23.6223881 55.4966038,22.4522388" id="Shape"></path>
                        <path d="M59.065283,9.94626866 C59.065283,6.87462687 58.2641509,4.82686567 58.2641509,4.82686567 L58.4098113,14.9925373 C58.4098113,15.0656716 59.065283,13.0179104 59.065283,9.94626866" id="Path"></path>
                        <path d="M58.6035597,15.0656716 L58.422896,4.9 C58.422896,4.9 57.5195777,6.94776119 57.6099095,10.019403 C57.6099095,13.0179104 58.6035597,15.0656716 58.6035597,15.0656716 M58.1519005,6.94776119 L58.2422323,12.8716418 C58.0615687,12.0671642 57.880905,11.0432836 57.880905,9.87313433 C57.880905,8.7761194 57.9712368,7.75223881 58.1519005,6.94776119" id="Shape"></path>
                        <path d="M149.010566,37.2253731 C149.010566,39.638806 147.335472,41.3940299 144.786415,41.3940299 L142.383019,41.3940299 L142.383019,33.0567164 L144.786415,33.0567164 C147.335472,33.0567164 149.010566,34.8119403 149.010566,37.2253731 M151.268302,37.1522388 C151.268302,33.7149254 148.646415,31.0089552 144.786415,31.0089552 L140.270943,31.0089552 L140.270943,43.2223881 L144.786415,43.2223881 C148.646415,43.2955224 151.268302,40.6626866 151.268302,37.1522388 M133.424906,38.4686567 L129.200755,38.4686567 L131.31283,33.5686567 L133.424906,38.4686567 Z M132.332453,31.0089552 L130.366038,31.0089552 L124.976604,43.3686567 L127.161509,43.3686567 L128.399623,40.4432836 L134.153208,40.4432836 L135.391321,43.3686567 L137.649057,43.3686567 L132.332453,31.0089552 Z M119.58717,38.4686567 L115.363019,38.4686567 L117.475094,33.5686567 L119.58717,38.4686567 Z M118.494717,31.0089552 L116.528302,31.0089552 L111.138868,43.3686567 L113.323774,43.3686567 L114.561887,40.4432836 L120.315472,40.4432836 L121.553585,43.3686567 L123.811321,43.3686567 L118.494717,31.0089552 Z M106.987547,33.0567164 L110.847547,33.0567164 L110.847547,31.0820896 L100.942642,31.0820896 L100.942642,33.0567164 L104.802642,33.0567164 L104.802642,43.2955224 L106.987547,43.2955224 L106.987547,33.0567164 L106.987547,33.0567164 Z M92.64,34.3 C92.64,33.4955224 93.3683019,32.8373134 94.6064151,32.8373134 C95.6988679,32.8373134 96.7913208,33.2761194 97.8837736,34.080597 L99.0490566,32.4716418 C97.8109434,31.4477612 96.4271698,30.9358209 94.6064151,30.9358209 C92.2030189,30.9358209 90.4550943,32.3985075 90.4550943,34.519403 C90.4550943,36.7865672 91.9116981,37.5910448 94.5335849,38.1761194 C96.7913208,38.6880597 97.3011321,39.2 97.3011321,40.0776119 C97.3011321,41.0283582 96.5,41.6134328 95.1162264,41.6134328 C93.5867925,41.6134328 92.4215094,41.0283582 91.2562264,40.0044776 L89.945283,41.5402985 C91.4018868,42.8567164 93.1498113,43.5149254 95.0433962,43.5149254 C97.5924528,43.5149254 99.4132075,42.1253731 99.4132075,39.858209 C99.4132075,37.8104478 98.1022642,36.8597015 95.4803774,36.2746269 C93.1498113,35.6164179 92.64,35.2507463 92.64,34.3 M87.5418868,41.6134328 L87.5418868,36.4940299 L82.3709434,36.4940299 L82.3709434,38.3955224 L85.5026415,38.3955224 L85.5026415,40.6626866 C84.7743396,41.2477612 83.6818868,41.6134328 82.589434,41.6134328 C80.1132075,41.6134328 78.4381132,39.7850746 78.4381132,37.2253731 C78.4381132,34.8119403 80.1132075,32.9104478 82.3709434,32.9104478 C83.9003774,32.9104478 84.8471698,33.4223881 85.7939623,34.2268657 L87.1777358,32.6179104 C85.9396226,31.5208955 84.6286792,30.9358209 82.5166038,30.9358209 C78.8750943,30.9358209 76.2532075,33.861194 76.2532075,37.2985075 C76.2532075,40.8820896 78.729434,43.5880597 82.589434,43.5880597 C84.6286792,43.5149254 86.3766038,42.6373134 87.5418868,41.6134328" id="Shape"></path>
                        <path d="M190.232453,18.5029851 L183.677736,10.019403 L181.711321,10.019403 L181.711321,22.2328358 L183.823396,22.2328358 L183.823396,13.6029851 L190.523774,22.3059701 L192.344528,22.3059701 L192.344528,10.0925373 L190.232453,10.0925373 L190.232453,18.5029851 L190.232453,18.5029851 Z M178.652453,10.0925373 L169.621509,10.0925373 L169.621509,22.3059701 L178.725283,22.3059701 L178.725283,20.4044776 L171.733585,20.4044776 L171.733585,17.1134328 L177.851321,17.1134328 L177.851321,15.2119403 L171.733585,15.2119403 L171.733585,11.9940299 L178.652453,11.9940299 L178.652453,10.0925373 Z M164.814717,14.261194 C164.814717,15.5776119 163.795094,16.4552239 162.19283,16.4552239 L159.643774,16.4552239 L159.643774,12.0671642 L162.12,12.0671642 C163.722264,11.9940299 164.814717,12.7985075 164.814717,14.261194 M166.926792,14.1880597 C166.926792,11.7014925 165.106038,10.0925373 162.26566,10.0925373 L157.458868,10.0925373 L157.458868,22.3059701 L159.570943,22.3059701 L159.570943,18.3567164 L161.97434,18.3567164 C164.741887,18.3567164 166.926792,16.9671642 166.926792,14.1880597 M152.215094,16.2358209 C152.215094,18.6492537 150.54,20.5507463 148.136604,20.5507463 C145.733208,20.5507463 143.985283,18.5761194 143.985283,16.1626866 C143.985283,13.7492537 145.660377,11.8477612 148.063774,11.8477612 C150.54,11.8477612 152.215094,13.8223881 152.215094,16.2358209 M154.47283,16.1626866 C154.47283,12.7253731 151.850943,9.87313433 148.136604,9.87313433 C144.422264,9.87313433 141.727547,12.7253731 141.727547,16.2358209 C141.727547,19.6731343 144.349434,22.5253731 148.063774,22.5253731 C151.850943,22.5253731 154.47283,19.6731343 154.47283,16.1626866 M126.797358,13.2373134 C126.797358,12.4328358 127.52566,11.7746269 128.763774,11.7746269 C129.856226,11.7746269 130.948679,12.2134328 132.041132,13.0179104 L133.206415,11.4089552 C131.968302,10.3850746 130.584528,9.87313433 128.763774,9.87313433 C126.360377,9.87313433 124.612453,11.3358209 124.612453,13.4567164 C124.612453,15.7238806 126.069057,16.5283582 128.690943,17.1134328 C130.948679,17.6253731 131.458491,18.1373134 131.458491,19.0149254 C131.458491,19.9656716 130.657358,20.5507463 129.273585,20.5507463 C127.744151,20.5507463 126.578868,19.9656716 125.413585,18.941791 L124.102642,20.4776119 C125.559245,21.7940299 127.30717,22.4522388 129.200755,22.4522388 C131.749811,22.4522388 133.570566,21.0626866 133.570566,18.7955224 C133.570566,16.7477612 132.259623,15.7970149 129.637736,15.2119403 C127.38,14.6268657 126.797358,14.261194 126.797358,13.2373134 M115.435849,13.2373134 C115.435849,12.4328358 116.164151,11.7746269 117.402264,11.7746269 C118.494717,11.7746269 119.58717,12.2134328 120.679623,13.0179104 L121.844906,11.4089552 C120.606792,10.3850746 119.223019,9.87313433 117.402264,9.87313433 C114.998868,9.87313433 113.250943,11.3358209 113.250943,13.4567164 C113.250943,15.7238806 114.707547,16.5283582 117.329434,17.1134328 C119.58717,17.6253731 120.096981,18.1373134 120.096981,19.0149254 C120.096981,19.9656716 119.295849,20.5507463 117.912075,20.5507463 C116.382642,20.5507463 115.217358,19.9656716 114.052075,18.941791 L112.741132,20.4776119 C114.197736,21.7940299 115.94566,22.4522388 117.839245,22.4522388 C120.388302,22.4522388 122.209057,21.0626866 122.209057,18.7955224 C122.209057,16.7477612 120.898113,15.7970149 118.276226,15.2119403 C115.94566,14.6268657 115.435849,14.261194 115.435849,13.2373134 M107.788679,22.3059701 L109.900755,22.3059701 L109.900755,10.0925373 L107.788679,10.0925373 L107.788679,22.3059701 Z M92.0573585,19.161194 L89.1441509,10.0925373 L86.8135849,10.0925373 L91.0377358,22.4522388 L92.8584906,22.4522388 L95.8445283,13.6761194 L98.830566,22.4522388 L100.651321,22.4522388 L104.875472,10.0925373 L102.617736,10.0925373 L99.7045283,19.161194 L96.7184906,10.019403 L94.8977358,10.019403 L92.0573585,19.161194 Z M78.5109434,13.2373134 C78.5109434,12.4328358 79.2392453,11.7746269 80.4773585,11.7746269 C81.5698113,11.7746269 82.6622642,12.2134328 83.754717,13.0179104 L84.92,11.4089552 C83.6818868,10.3850746 82.2981132,9.87313433 80.4773585,9.87313433 C78.0739623,9.87313433 76.3260377,11.3358209 76.3260377,13.4567164 C76.3260377,15.7238806 77.7826415,16.5283582 80.4045283,17.1134328 C82.6622642,17.6253731 83.1720755,18.1373134 83.1720755,19.0149254 C83.1720755,19.9656716 82.3709434,20.5507463 80.9871698,20.5507463 C79.4577358,20.5507463 78.2924528,19.9656716 77.1271698,18.941791 L75.8162264,20.4776119 C77.2728302,21.7940299 79.0207547,22.4522388 80.9143396,22.4522388 C83.4633962,22.4522388 85.2841509,21.0626866 85.2841509,18.7955224 C85.2841509,16.7477612 83.9732075,15.7970149 81.3513208,15.2119403 C79.0935849,14.6268657 78.5109434,14.261194 78.5109434,13.2373134" id="Shape"></path>
                    </g>
                </g>
            </g>
        </g>
    </g>
</svg>