<?xml version="1.0" encoding="UTF-8"?>
<svg width="350px" height="142px" viewBox="0 0 350 142" version="1.1" xmlns="http://www.w3.org/2000/svg" xmlns:xlink="http://www.w3.org/1999/xlink">
    <!-- Generator: Sketch 53.2 (72643) - https://sketchapp.com -->
    <title>Group 4 Copy 11</title>
    <desc>Created with Sketch.</desc>
    <defs>
        <path d="M16.5980833,0.784928571 L16.2703333,0.784928571 L13.867625,0.784928571 L9.5,14.0391429 L5.18620833,0.784928571 L2.78508333,0.784928571 L2.40191667,0.784928571 L0,0.784928571 L6.93341667,21.2150714 L9.336125,21.2150714 L9.663875,21.2150714 L12.0657917,21.2150714 L19,0.784928571 L16.5980833,0.784928571 Z M17.3620417,1.22335714 L18.399125,1.22335714 L11.7926667,20.7766429 L10.7555833,20.7766429 L17.3620417,1.22335714 Z M9.71770833,14.7517857 L14.14075,1.22335714 L15.069375,1.22335714 L10.6463333,14.6417857 C10.5917083,15.0802143 10.374,15.6278571 10.2093333,16.2297143 L10.2093333,16.2297143 C10.0454583,15.7378571 9.88158333,15.1902143 9.71770833,14.7517857 L9.71770833,14.7517857 Z M8.243625,14.6967857 L3.876,1.22335714 L4.913875,1.22335714 L9.28229167,14.7517857 L9.008375,15.5728571 C8.95454167,15.8470714 8.84529167,16.0662857 8.79066667,16.3397143 L8.79066667,16.3397143 C8.571375,15.7378571 8.4075,15.1352143 8.243625,14.6967857 L8.243625,14.6967857 Z M0.600083333,1.22335714 L1.52870833,1.22335714 L8.18979167,20.7766429 L7.20654167,20.7766429 L0.600083333,1.22335714 Z M8.95454167,17.1057857 C9.11841667,16.6681429 9.226875,16.1755 9.39075,15.7378571 L9.39075,15.7378571 L9.445375,15.4636429 C9.60925,15.9562857 9.773125,16.4497143 9.937,16.9423571 L9.937,16.9423571 C9.773125,17.6542143 9.554625,18.3118571 9.445375,18.6402857 L9.445375,18.6402857 C9.336125,18.3118571 9.17225,17.7642143 8.95454167,17.1057857 L8.95454167,17.1057857 Z" id="path-1"></path>
        <path d="M7.73742857,0.784928571 L2.48442857,0.784928571 L0,0.784928571 L0,21.2150714 L2.48442857,21.2150714 L7.62490476,21.2150714 L10.1101429,21.2150714 C14.5714286,21.2150714 17,19.0787143 17,15.0802143 L17,15.0802143 C17,12.0135714 15.1923333,10.6432857 13.4988095,10.0422143 L13.4988095,10.0422143 C14.740619,9.43957143 16.0399048,8.2885 16.0399048,5.98871429 L16.0399048,5.98871429 C16.0399048,2.64785714 13.8930476,0.784928571 10.2218571,0.784928571 L10.2218571,0.784928571 L7.73742857,0.784928571 Z M15.4748571,15.0802143 C15.4748571,11.8485714 13.3854762,10.5890714 11.5219524,10.0964286 L11.5219524,10.0964286 C13.2729524,9.49378571 14.5147619,8.23428571 14.5147619,5.98871429 L14.5147619,5.98871429 C14.5147619,3.35971429 13.1588095,1.826 11.0135714,1.22335714 L11.0135714,1.22335714 C13.9505238,1.49757143 15.5881905,3.19628571 15.5881905,5.98871429 L15.5881905,5.98871429 C15.5881905,8.3985 14.0630476,9.43957143 12.7637619,9.87721429 L12.7637619,9.87721429 L12.0861905,10.0964286 L12.7637619,10.2606429 C14.5147619,10.6990714 16.5482857,11.9027857 16.5482857,15.026 L16.5482857,15.026 C16.5482857,18.4760714 14.7972857,20.3932143 11.2952857,20.7208571 L11.2952857,20.7208571 C14.0071905,20.064 15.4748571,18.2026429 15.4748571,15.0802143 L15.4748571,15.0802143 Z M0.395047619,20.7758571 L1.35514286,20.7758571 L1.35514286,1.22335714 L0.395047619,1.22335714 L0.395047619,20.7758571 Z M11.2394286,6.09792857 C11.2394286,4.72921429 10.674381,3.79735714 9.65842857,3.2505 L9.65842857,3.2505 L10.1101429,3.2505 L10.336,3.2505 C11.5778095,3.68814286 12.1995238,4.72921429 12.1995238,6.09792857 L12.1995238,6.09792857 C12.1995238,7.41242857 11.6344762,8.5635 10.2218571,9.05614286 L10.2218571,9.05614286 L9.94014286,9.05614286 L9.54509524,9.05614286 C10.6177143,8.50771429 11.2394286,7.52242857 11.2394286,6.09792857 L11.2394286,6.09792857 Z M5.19633333,3.2505 L7.62490476,3.2505 C9.65842857,3.2505 10.7877143,4.23578571 10.7877143,6.09792857 L10.7877143,6.09792857 C10.7877143,7.19321429 10.336,9.05614286 7.45490476,9.05614286 L7.45490476,9.05614286 L5.19633333,9.05614286 L5.19633333,3.2505 Z M3.67119048,9.05614286 L4.74461905,9.05614286 L4.74461905,3.2505 L3.67119048,3.2505 L3.67119048,9.05614286 Z M12.1995238,15.1902143 C12.1995238,13.4372857 11.3519524,12.1227857 9.88347619,11.4651429 L9.88347619,11.4651429 L10.1101429,11.4651429 L10.5618571,11.4651429 C12.1995238,11.9585714 13.2154762,13.2730714 13.2154762,15.1902143 L13.2154762,15.1902143 C13.2154762,16.9423571 12.5379048,18.2026429 10.7877143,18.6945 L10.7877143,18.6945 C10.6177143,18.7502857 10.3918571,18.7502857 10.2218571,18.7502857 L10.2218571,18.7502857 C11.5219524,18.1476429 12.1995238,16.9973571 12.1995238,15.1902143 L12.1995238,15.1902143 Z M5.13966667,11.4651429 L7.5682381,11.4651429 C10.166,11.4651429 11.7478095,12.8346429 11.7478095,15.1902143 L11.7478095,15.1902143 C11.7478095,17.6 10.4485238,18.7502857 7.6807619,18.7502857 L7.6807619,18.7502857 L5.13966667,18.7502857 L5.13966667,11.4651429 Z M3.67119048,18.7502857 L4.74461905,18.7502857 L4.74461905,11.4651429 L3.67119048,11.4651429 L3.67119048,18.7502857 Z" id="path-3"></path>
        <path d="M8.11547619,0.784928571 L2.41319048,0.784928571 L0,0.784928571 L0,21.2150714 L2.41319048,21.2150714 L2.63257143,21.2150714 L5.04495238,21.2150714 L5.04495238,12.7254286 L7.01938095,12.7254286 L11.2969048,21.2150714 L13.7100952,21.2150714 L14.3674286,21.2150714 L16.780619,21.2150714 L12.3387619,12.4512143 C15.3,11.7393571 17,9.65878571 17,6.64635714 L17,6.64635714 C17,2.97707143 14.5868095,0.784928571 10.5286667,0.784928571 L10.5286667,0.784928571 L8.11547619,0.784928571 Z M0.438761905,20.7758571 L1.37052381,20.7758571 L1.37052381,1.22335714 L0.438761905,1.22335714 L0.438761905,20.7758571 Z M10.8581429,12.287 C13.7100952,11.6843571 15.5744286,9.76721429 15.5744286,6.64635714 L15.5744286,6.64635714 C15.5744286,3.63392857 13.9286667,1.881 11.5162857,1.27914286 L11.5162857,1.27914286 C14.6969048,1.60678571 16.6162857,3.57892857 16.6162857,6.64635714 L16.6162857,6.64635714 C16.5612381,9.49378571 14.9162857,11.5201429 12.0100952,12.1227857 L12.0100952,12.1227857 L11.7356667,12.1777857 L16.1224762,20.7766429 L15.1356667,20.7766429 L10.8581429,12.287 Z M12.2837143,6.75557143 C12.2837143,5.00264286 11.6255714,3.85314286 10.3092857,3.2505 L10.3092857,3.2505 L10.419381,3.2505 L10.912381,3.2505 C12.4480476,3.74314286 13.2162857,4.89342857 13.2162857,6.70057143 L13.2162857,6.70057143 C13.2162857,8.5635 12.4480476,9.713 10.8581429,10.2056429 L10.8581429,10.2056429 C10.6387619,10.2056429 10.4744286,10.2056429 10.2550476,10.2606429 L10.2550476,10.2606429 C11.6255714,9.65878571 12.2837143,8.50771429 12.2837143,6.75557143 L12.2837143,6.75557143 Z M5.04495238,3.2505 L8.00619048,3.2505 C10.5837143,3.2505 11.9,4.4 11.9,6.75557143 L11.9,6.75557143 C11.9,9.16535714 10.5837143,10.2606429 7.7317619,10.2606429 L7.7317619,10.2606429 L5.04495238,10.2606429 L5.04495238,3.2505 Z M3.56433333,10.2606429 L4.60619048,10.2606429 L4.60619048,3.2505 L3.56433333,3.2505 L3.56433333,10.2606429 Z M7.51238095,12.7254286 L8.44495238,12.7254286 L12.5030952,20.7766429 L11.5713333,20.7766429 L7.51238095,12.7254286 Z M3.56433333,20.7766429 L4.60619048,20.7766429 L4.60619048,12.7254286 L3.56433333,12.7254286 L3.56433333,20.7766429 Z" id="path-5"></path>
        <path d="M9.63458333,0.784928571 L9.31158333,0.784928571 L6.94370833,0.784928571 L0,21.2150714 L2.36866667,21.2150714 L2.69166667,21.2150714 L5.05954167,21.2150714 L6.78141667,16.1212857 L12.2177917,16.1212857 L13.886625,21.2150714 L16.2552917,21.2150714 L16.632125,21.2150714 L19,21.2150714 L12.0562917,0.949928571 L12.00325,0.784928571 L9.63458333,0.784928571 Z M10.6574167,1.22335714 L11.68025,1.22335714 L18.354,20.7766429 L17.3319583,20.7766429 L10.6574167,1.22335714 Z M7.212875,1.22335714 L8.12804167,1.22335714 L1.45270833,20.7766429 L0.538333333,20.7766429 L7.212875,1.22335714 Z M8.88091667,4.94842857 C9.15008333,4.34578571 9.31158333,3.74314286 9.36541667,3.35971429 L9.36541667,3.35971429 C9.47308333,3.74314286 9.63458333,4.4 9.84991667,5.11264286 L9.84991667,5.11264286 C9.68841667,5.55107143 9.52691667,6.09792857 9.36541667,6.53635714 L9.36541667,6.53635714 C9.20391667,6.04371429 9.04241667,5.49528571 8.88091667,4.94842857 L8.88091667,4.94842857 Z M8.18108333,7.35821429 C8.34258333,6.86478571 8.55791667,6.26292857 8.71941667,5.7145 L8.71941667,5.7145 C8.88091667,6.26292857 9.04241667,6.75557143 9.20391667,7.24821429 L9.20391667,7.24821429 L9.20391667,7.30321429 L7.10441667,13.6565 L6.082375,13.6565 L8.18108333,7.35821429 Z M9.63458333,7.24821429 C9.79529167,6.80978571 9.95758333,6.31714286 10.1190833,5.8245 L10.1190833,5.8245 C10.2805833,6.31714286 10.442875,6.86478571 10.6035833,7.30321429 L10.6035833,7.30321429 L12.7022917,13.6565 L11.7332917,13.6565 L9.63458333,7.24821429 Z M9.41925,7.90585714 L11.3034167,13.6565 L7.535875,13.6565 L9.41925,7.90585714 Z M12.5407917,16.1212857 L13.4559583,16.1212857 L15.017125,20.7766429 L14.1019583,20.7766429 L12.5407917,16.1212857 Z M5.22104167,16.1212857 L6.243875,16.1212857 L4.68270833,20.7766429 L3.66066667,20.7766429 L5.22104167,16.1212857 Z" id="path-7"></path>
        <path d="M10.4115385,0.110785714 C10.0323077,0.055 9.59846154,0 9.22,0 L9.22,0 C4.23615385,0 0.768461538,4.35285714 0.768461538,10.6346429 L0.768461538,10.6346429 C0.768461538,16.8606429 4.23615385,21.2150714 9.16538462,21.2150714 L9.16538462,21.2150714 C9.59846154,21.2150714 9.97769231,21.1592857 10.3569231,21.1042857 L10.3569231,21.1042857 C10.7369231,21.1592857 11.1153846,21.2150714 11.5484615,21.2150714 L11.5484615,21.2150714 C16.5323077,21.2150714 19.9992308,16.8606429 19.9992308,10.5796429 L19.9992308,10.5796429 C20.0538462,4.35285714 16.5861538,0 11.6030769,0 L11.6030769,0 C11.1692308,0 10.7907692,0.055 10.4115385,0.110785714 L10.4115385,0.110785714 Z M18.5915385,10.5796429 C18.5915385,5.40021429 16.2076923,1.48735714 12.4153846,0.495785714 L12.4153846,0.495785714 C16.7492308,0.936571429 19.6207692,4.84864286 19.6207692,10.5796429 L19.6207692,10.5796429 C19.6207692,16.2556429 16.6415385,20.2777143 12.3615385,20.7185 L12.3615385,20.7185 C16.1530769,19.7269286 18.5915385,15.7590714 18.5915385,10.5796429 L18.5915385,10.5796429 Z M1.20230769,10.6346429 C1.20230769,5.01442857 4.07307692,0.991571429 8.29923077,0.495785714 L8.29923077,0.495785714 C4.56153846,1.54235714 2.12384615,5.45521429 2.12384615,10.6346429 L2.12384615,10.6346429 C2.12384615,15.8140714 4.50692308,19.6719286 8.24538462,20.7185 L8.24538462,20.7185 C4.01923077,20.2227143 1.20230769,16.3098571 1.20230769,10.6346429 L1.20230769,10.6346429 Z M4.39846154,10.5796429 C4.39846154,6.28178571 6.18615385,3.30628571 8.84076923,2.47971429 L8.84076923,2.47971429 L9.16538462,2.47971429 L9.43692308,2.47971429 C6.99923077,3.58128571 5.42846154,6.55678571 5.42846154,10.5246429 L5.42846154,10.5246429 C5.42846154,14.5467143 7.05307692,17.578 9.54461538,18.6245714 L9.54461538,18.6245714 C9.43692308,18.7345714 9.32846154,18.7345714 9.27384615,18.7345714 L9.27384615,18.7345714 L8.94923077,18.7345714 C6.29461538,17.908 4.39846154,14.8775 4.39846154,10.5796429 L4.39846154,10.5796429 Z M15.4492308,10.6896429 C15.4492308,6.66757143 13.8246154,3.63628571 11.3330769,2.53471429 L11.3330769,2.53471429 L11.5484615,2.53471429 L11.82,2.53471429 C14.5276923,3.36128571 16.4238462,6.39178571 16.4238462,10.6896429 L16.4238462,10.6896429 C16.4238462,14.9875 14.5823077,17.963 11.9284615,18.7895714 L11.9284615,18.7895714 C11.82,18.7345714 11.7661538,18.7345714 11.6569231,18.7345714 L11.6569231,18.7345714 L11.3869231,18.7345714 C13.8246154,17.633 15.4492308,14.6575 15.4492308,10.6896429 L15.4492308,10.6896429 Z M5.80769231,10.5796429 C5.80769231,6.39178571 7.59461538,3.30628571 10.3569231,2.64471429 L10.3569231,2.64471429 C13.1192308,3.36128571 15.0161538,6.44757143 15.0161538,10.6346429 L15.0161538,10.6346429 C15.0161538,14.8225 13.1746154,17.908 10.4653846,18.5703571 L10.4653846,18.5703571 C7.70230769,17.908 5.80769231,14.8225 5.80769231,10.5796429 L5.80769231,10.5796429 Z" id="path-9"></path>
        <path d="M14.6176818,0.784928571 L14.4546364,0.784928571 L12.0730909,0.784928571 L12.0730909,12.5604286 L4.87204545,0.784928571 L2.49127273,0.784928571 L2.38154545,0.784928571 L0,0.784928571 L0,21.2150714 L2.38154545,21.2150714 L2.54459091,21.2150714 L4.92690909,21.2150714 L4.92690909,9.60378571 L12.2361364,21.2150714 L14.6176818,21.2150714 L16.9992273,21.2150714 L16.9992273,0.784928571 L14.6176818,0.784928571 Z M15.5928636,20.7758571 L16.6213636,20.7758571 L16.6213636,1.22335714 L15.5928636,1.22335714 L15.5928636,20.7758571 Z M12.5606818,13.2730714 L12.5606818,1.22335714 L13.481,1.22335714 L13.481,14.806 L12.5606818,13.2730714 Z M12.0197727,14.9152143 L3.62718182,1.22335714 L4.60236364,1.22335714 L12.0730909,13.3822857 L12.0730909,14.971 C12.0730909,14.971 12.0730909,14.9152143 12.0197727,14.9152143 L12.0197727,14.9152143 Z M0.4335,20.7758571 L1.35381818,20.7758571 L1.35381818,1.22335714 L0.4335,1.22335714 L0.4335,20.7758571 Z M3.89763636,7.19321429 C3.78945455,6.97478571 3.62718182,6.75557143 3.46490909,6.48135714 L3.46490909,6.48135714 L3.46490909,6.20792857 L3.46490909,4.83842857 C3.62718182,5.22185714 4.11477273,6.04371429 4.49340909,6.70057143 L4.49340909,6.70057143 L4.49340909,8.12507143 L3.89763636,7.19321429 Z M3.46490909,7.30321429 C3.46490909,7.35821429 3.51977273,7.41242857 3.51977273,7.41242857 L3.51977273,7.41242857 L4.49340909,8.89114286 L4.49340909,20.7766429 L3.46490909,20.7766429 L3.46490909,7.30321429 Z M4.92690909,8.78192857 L4.92690909,7.35821429 L13.3720455,20.7766429 L12.5065909,20.7766429 L4.92690909,8.78192857 Z M12.5606818,15.7378571 L12.5606818,14.0941429 L13.1556818,15.026 C13.2646364,15.1902143 13.3720455,15.4086429 13.5358636,15.6278571 L13.5358636,15.6278571 L13.5358636,16.0662857 L13.481,16.0662857 L13.481,17.4357857 C13.3187273,17.1057857 12.8852273,16.3397143 12.5606818,15.7378571 L12.5606818,15.7378571 Z" id="path-11"></path>
    </defs>
    <g id="Web" stroke="none" stroke-width="1" fill="none" fill-rule="evenodd">
        <g id="About-us" transform="translate(-925.000000, -6276.000000)">
            <g id="Group-4-Copy-11" transform="translate(925.000000, 6276.000000)">
                <rect id="Rectangle" fill="#FFFFFF" x="0" y="0" width="350" height="142"></rect>
                <g id="Group-22" transform="translate(87.000000, 60.000000)">
                    <g id="Group-3">
                        <mask id="mask-2" fill="white">
                            <use xlink:href="#path-1"></use>
                        </mask>
                        <g id="Clip-2"></g>
                        <polygon id="Fill-1" fill="#020203" mask="url(#mask-2)" points="-3.95833333 25.1428571 22.9583333 25.1428571 22.9583333 -3.14285714 -3.95833333 -3.14285714"></polygon>
                    </g>
                    <path d="M26.6083333,1 L26.3908333,1 L24,1 L24,21 L26.3908333,21 L26.6083333,21 L29,21 L29,1 L26.6083333,1 Z M27.5866667,20.5707857 L28.6191667,20.5707857 L28.6191667,1.42921426 L27.5866667,1.42921426 L27.5866667,20.5707857 Z M24.435,20.5707857 L25.3591667,20.5707857 L25.3591667,1.42921426 L24.435,1.42921426 L24.435,20.5707857 Z" id="Fill-4" fill="#020203"></path>
                    <g id="Group-7" transform="translate(36.000000, 0.000000)">
                        <mask id="mask-4" fill="white">
                            <use xlink:href="#path-3"></use>
                        </mask>
                        <g id="Clip-6"></g>
                        <polygon id="Fill-5" fill="#020203" mask="url(#mask-4)" points="-4.04761905 25.1428571 21.047619 25.1428571 21.047619 -3.14285714 -4.04761905 -3.14285714"></polygon>
                    </g>
                    <g id="Group-10" transform="translate(57.000000, 0.000000)">
                        <mask id="mask-6" fill="white">
                            <use xlink:href="#path-5"></use>
                        </mask>
                        <g id="Clip-9"></g>
                        <polygon id="Fill-8" fill="#020203" mask="url(#mask-6)" points="-4.04761905 25.1428571 21.047619 25.1428571 21.047619 -3.14285714 -4.04761905 -3.14285714"></polygon>
                    </g>
                    <g id="Group-13" transform="translate(79.000000, 0.000000)">
                        <mask id="mask-8" fill="white">
                            <use xlink:href="#path-7"></use>
                        </mask>
                        <g id="Clip-12"></g>
                        <polygon id="Fill-11" fill="#020203" mask="url(#mask-8)" points="-3.95833333 25.1428571 22.9583333 25.1428571 22.9583333 -3.14285714 -3.95833333 -3.14285714"></polygon>
                    </g>
                    <path d="M116.563333,1 L104.436667,1 L102,1 L102,3.41298412 L104.436667,3.41298412 L107.924905,3.41298412 L107.924905,21 L110.360762,21 L110.582571,21 L113.019238,21 L113.019238,3.41298412 L113.074286,3.41298412 L116.563333,3.41298412 L119,3.41298412 L119,1 L116.563333,1 Z M117.50481,2.98376986 L118.55719,2.98376986 L118.55719,1.42921426 L117.50481,1.42921426 L117.50481,2.98376986 Z M102.44281,2.98376986 L103.384286,2.98376986 L103.384286,1.42921426 L102.44281,1.42921426 L102.44281,2.98376986 Z M111.579905,20.5707857 L112.632286,20.5707857 L112.632286,3.41298412 L111.579905,3.41298412 L111.579905,20.5707857 Z M108.367714,20.5707857 L109.30919,20.5707857 L109.30919,3.41298412 L108.367714,3.41298412 L108.367714,20.5707857 Z" id="Fill-14" fill="#020203"></path>
                    <path d="M126.609602,1 L126.392065,1 L124,1 L124,21 L126.392065,21 L126.609602,21 L129,21 L129,1 L126.609602,1 Z M127.533089,20.5707857 L128.565761,20.5707857 L128.565761,1.42921426 L127.533089,1.42921426 L127.533089,20.5707857 Z M124.380897,20.5707857 L125.304384,20.5707857 L125.304384,1.42921426 L124.380897,1.42921426 L124.380897,20.5707857 Z" id="Fill-15" fill="#020203"></path>
                    <g id="Group-18" transform="translate(134.000000, 0.000000)">
                        <mask id="mask-10" fill="white">
                            <use xlink:href="#path-9"></use>
                        </mask>
                        <g id="Clip-17"></g>
                        <polygon id="Fill-16" fill="#020203" mask="url(#mask-10)" points="-3.07692308 25.1428571 23.8461538 25.1428571 23.8461538 -3.92857143 -3.07692308 -3.92857143"></polygon>
                    </g>
                    <g id="Group-21" transform="translate(160.000000, 0.000000)">
                        <mask id="mask-12" fill="white">
                            <use xlink:href="#path-11"></use>
                        </mask>
                        <g id="Clip-20"></g>
                        <polygon id="Fill-19" fill="#020203" mask="url(#mask-12)" points="-3.86363636 25.1428571 20.8636364 25.1428571 20.8636364 -3.14285714 -3.86363636 -3.14285714"></polygon>
                    </g>
                </g>
            </g>
        </g>
    </g>
</svg>