<?xml version="1.0" encoding="UTF-8"?>
<svg width="350px" height="142px" viewBox="0 0 350 142" version="1.1" xmlns="http://www.w3.org/2000/svg" xmlns:xlink="http://www.w3.org/1999/xlink">
    <!-- Generator: Sketch 53.2 (72643) - https://sketchapp.com -->
    <title>Group 4 Copy 9</title>
    <desc>Created with Sketch.</desc>
    <defs>
        <polygon id="path-1" points="0.0478717949 0.0611025641 4.98153846 0.0611025641 4.98153846 4.99469231 0.0478717949 4.99469231"></polygon>
    </defs>
    <g id="Web" stroke="none" stroke-width="1" fill="none" fill-rule="evenodd">
        <g id="About-us" transform="translate(-165.000000, -6276.000000)">
            <g id="Group-4-Copy-9" transform="translate(165.000000, 6276.000000)">
                <rect id="Rectangle" fill="#FFFFFF" x="0" y="0" width="350" height="142"></rect>
                <g id="Group-38" transform="translate(97.000000, 58.000000)">
                    <path d="M116.887044,7.48011485 L116.888208,7.48011485 C116.888208,9.22130561 116.886138,10.9626254 116.889632,12.7038162 C116.890408,13.1539261 117.029791,13.3035324 117.472267,13.3083085 C118.272582,13.3170861 119.073803,13.3307688 119.873341,13.3023707 C120.946725,13.2645496 121.779653,12.7702936 122.363065,11.8721391 C122.854332,11.115717 123.048975,10.2644194 123.06567,9.37968955 C123.089353,8.12565529 123.096601,6.87007203 123.060364,5.61668317 C123.045351,5.09906327 122.953854,4.56840605 122.80153,4.07298829 C122.401243,2.77145175 121.566245,1.86335797 120.162329,1.71194446 C119.220432,1.61035671 118.259381,1.67851215 117.307131,1.68457902 C117.073016,1.68586984 116.931304,1.83921958 116.902962,2.07479473 C116.888597,2.1950994 116.887691,2.3174694 116.887691,2.43893581 C116.886785,4.11932883 116.887044,5.79972184 116.887044,7.48011485 M121.730475,14.6414702 C122.198705,15.828898 122.658395,16.9951563 123.118472,18.1612856 C124.041733,20.501289 124.965123,22.8411633 125.888255,25.1811667 C125.916079,25.2519038 125.945069,25.3225118 125.965905,25.3953142 C126.075262,25.7761069 125.919703,25.9899963 125.525887,25.9976121 C125.304843,26.0018718 125.083669,25.9992902 124.862625,25.9985157 C124.331239,25.9965794 124.167656,25.8875049 123.971848,25.3875693 C123.53403,24.2694587 123.099965,23.1501863 122.664089,22.0313011 C121.783924,19.7724905 120.900912,17.5145834 120.028124,15.2529329 C119.947238,15.0434324 119.847975,14.964434 119.616836,14.9703718 C118.931056,14.9880561 118.244628,14.9720499 117.558459,14.9795367 C117.008696,14.9856035 116.888208,15.1106842 116.88795,15.6592839 C116.886397,18.7997265 116.887173,21.9402981 116.886914,25.0808698 C116.886785,25.8520073 116.738991,25.9998065 115.963653,25.9977412 C115.804082,25.9973539 115.641534,26.0010973 115.485587,25.9737319 C115.200222,25.9235189 115.061746,25.7708146 115.024474,25.4847682 C115.005838,25.3421323 115.00092,25.1967857 115.00092,25.0527299 C114.999885,17.0075482 114.999885,8.96236657 115.000144,0.917184916 C115.000144,0.151210717 115.152597,0.00134619945 115.927934,0.00108803491 C117.170467,0.000700788095 118.413258,-0.00149361052 119.65605,0.00173344627 C120.768259,0.00483142078 121.823267,0.221818719 122.751316,0.873426026 C123.822501,1.6257175 124.434125,2.6880646 124.707583,3.93525751 C124.854601,4.60609807 124.927075,5.30210968 124.949076,5.98947277 C124.985183,7.1135212 124.974182,8.24040943 124.943511,9.36510326 C124.910121,10.5894486 124.65064,11.7624192 123.981554,12.8153433 C123.476698,13.6097156 122.786906,14.1872297 121.917741,14.5521453 C121.86261,14.5753801 121.809549,14.6036491 121.730475,14.6414702" id="Fill-1" fill="#000000"></path>
                    <path d="M93.4804313,25.9999999 C92.7194841,25.9998708 92.6197654,25.9238409 92.4434054,25.131401 C91.6488137,21.5600644 90.8588374,17.9873078 90.066432,14.4153257 C89.0639007,9.8963915 88.0605192,5.37784452 87.0576235,0.859039366 C86.9056769,0.174125488 87.0333314,0.00218706243 87.6927381,0.00218706243 C87.8213643,0.00218706243 87.9504763,-0.000652761418 88.0789811,0.00502688627 C88.4893946,0.0232275755 88.7038931,0.192713426 88.7979032,0.616492593 C89.0703381,1.84407099 89.3337849,3.07410196 89.5974747,4.30387477 C90.1374861,6.8229276 90.6750684,9.34236768 91.2138652,11.8616787 C91.8873612,15.0106561 92.5607358,18.1596335 93.2343532,21.3084818 C93.2534225,21.397549 93.2568234,21.4977173 93.3000631,21.5712946 C93.3471896,21.6519714 93.4335477,21.7615628 93.5001079,21.7593684 C93.5671538,21.757303 93.6674798,21.6446137 93.6895855,21.561097 C93.7842029,21.2030211 93.8572004,20.8383619 93.9349349,20.4751226 C94.6420753,17.1706003 95.3481226,13.8656907 96.055506,10.5611684 C96.7470996,7.33073974 97.4395434,4.1005692 98.1328374,0.870527744 C98.1596801,0.745059163 98.1946606,0.620494163 98.2351068,0.498898069 C98.3399268,0.184323037 98.5563686,0.0212913319 98.8668205,0.00838304172 C99.0954083,-0.00116909303 99.3249679,-0.00375075107 99.5534342,0.0069631298 C99.9028748,0.0234857413 100.056279,0.214528436 99.9814595,0.576605976 C99.7947754,1.48199345 99.5932731,2.38389569 99.3934713,3.28618517 C98.4479048,7.55379499 97.5010022,11.8208885 96.5547069,16.0882401 C95.8854619,19.1059402 95.2164599,22.1235112 94.5475794,25.1412113 C94.3760778,25.9144179 94.2700432,26.0001289 93.4804313,25.9999999" id="Fill-3" fill="#000000"></path>
                    <path d="M103.000303,12.9850822 C103.000303,8.9773447 103.000303,4.96973627 103.000426,0.961998756 C103.000426,0.132851747 103.127814,0.000276006675 103.924449,0.000276006675 C106.001474,1.78260714e-05 108.078376,-0.000240354532 110.155278,0.000405096977 C110.855359,0.000663277581 111.011983,0.169384302 110.998716,0.902875398 C110.988275,1.48003814 110.816786,1.66412091 110.261537,1.66541181 C108.684114,1.66902634 107.106444,1.66618635 105.528775,1.66734817 C104.884588,1.66786453 104.790736,1.76700588 104.79049,2.44769904 C104.789876,5.2462477 104.789753,8.04466726 104.790613,10.8432159 C104.790859,11.5081601 104.889256,11.6123359 105.518702,11.6129814 C107.060133,11.6145305 108.601563,11.6131105 110.142994,11.613885 C110.864695,11.6141432 111.019231,11.7842842 110.998102,12.5491443 C110.983115,13.0915817 110.815066,13.2714045 110.295319,13.2725663 C108.71765,13.2760518 107.140103,13.2737281 105.562434,13.2743736 C104.889379,13.2746318 104.790613,13.3758386 104.79049,14.0720226 C104.789876,17.2356386 104.789876,20.3992546 104.79049,23.5627416 C104.790736,24.2300093 104.886799,24.3331525 105.516,24.3337979 C107.05743,24.3356052 108.598861,24.3340561 110.140291,24.3348306 C110.861378,24.3350888 111.018494,24.5072953 110.998348,25.2690572 C110.983975,25.8094292 110.80917,25.9977719 110.297899,25.9982883 C108.098031,26.0006119 105.898041,26.0006119 103.698173,25.9980301 C103.209259,25.9973846 103.033471,25.8157546 103.003866,25.304557 C102.998215,25.2060611 103.000426,25.1069197 103.000426,25.0081657 C103.000303,21.0004281 103.000303,16.9926906 103.000303,12.9850822" id="Fill-5" fill="#000000"></path>
                    <path d="M141.000746,13.0040825 C141.000746,8.98855738 141.000623,4.97277407 141.000746,0.957248938 C141.000746,0.137387815 141.130615,0.00016338163 141.906024,0.00016338163 C143.969071,-9.48016867e-05 146.031995,3.42899718e-05 148.095042,0.00016338163 C148.181908,0.00016338163 148.268775,-0.000998443296 148.355518,0.00287430646 C148.804226,0.0232707885 148.980047,0.209808235 148.996388,0.67957278 C149.025385,1.51195579 148.882369,1.66673669 148.083492,1.66673669 C146.606886,1.66699488 145.130157,1.66673669 143.65355,1.66699488 C143.552309,1.66699488 143.450821,1.66634942 143.349579,1.66957671 C142.930974,1.68326043 142.797419,1.82590671 142.787221,2.26907837 C142.785623,2.33749695 142.785869,2.40591553 142.785869,2.4744632 C142.785869,5.25045022 142.785869,8.02617906 142.785992,10.8021661 C142.785992,10.9010503 142.784149,11.0003218 142.790538,11.0986896 C142.813268,11.4419443 142.93638,11.5754251 143.261116,11.6042126 C143.376364,11.6144108 143.492596,11.613249 143.608458,11.613249 C145.09944,11.6136363 146.590668,11.6135072 148.081895,11.6136363 C148.175888,11.6136363 148.270249,11.6123453 148.364119,11.6182836 C148.818232,11.6469419 148.980907,11.8237975 148.99688,12.3020821 C149.024279,13.1214268 148.883106,13.2740132 148.096516,13.2741423 C146.619787,13.2742713 145.143181,13.2741423 143.666451,13.2741423 C143.579585,13.2741423 143.492718,13.2732386 143.405852,13.2753041 C142.925691,13.2866641 142.787343,13.4296977 142.787098,13.9379316 C142.7855,17.1854904 142.7855,20.4329202 142.787343,23.6803499 C142.787589,24.1929729 142.91451,24.3299392 143.409169,24.3316174 C144.979891,24.336781 146.550736,24.333941 148.121458,24.3347156 C148.865782,24.3351028 149.015187,24.4956929 148.998231,25.2717919 C148.986436,25.8075223 148.808034,25.9978034 148.295805,25.9983198 C146.124145,26.0007725 143.952607,25.999998 141.781069,25.9993525 C141.175707,25.9990943 141.00394,25.8219806 141.001729,25.1877532 C140.998534,24.3283901 141.000746,23.4688978 141.000746,22.6095346 L141.000746,13.0040825 Z" id="Fill-7" fill="#000000"></path>
                    <path d="M133.885283,13.788455 C133.88516,17.5219923 133.885283,21.2556588 133.88516,24.9890671 C133.88516,25.095688 133.886142,25.2021797 133.883196,25.3085424 C133.870673,25.7849802 133.681607,25.9854429 133.228953,25.9957694 C133.041115,26.0001582 132.852417,26.0042888 132.665193,25.9908643 C132.314561,25.9659517 132.139122,25.7807206 132.112481,25.4159378 C132.101309,25.2645258 132.10266,25.1120812 132.10266,24.9600239 C132.102291,17.5080516 132.102414,10.0560793 132.102046,2.60410704 C132.102046,2.46741031 132.103642,2.3299391 132.092838,2.19388778 C132.062146,1.80780666 131.940849,1.68066193 131.574871,1.67265891 C131.141001,1.663236 130.706885,1.66788291 130.273016,1.66723751 C129.752347,1.66646302 129.231556,1.6720135 128.710888,1.66478497 C128.193534,1.65768552 128.010852,1.4586427 128.000417,0.913275685 C127.999803,0.882941662 128.000049,0.852478558 128.000049,0.822015454 C128.001276,0.192229502 128.177329,0.00157694033 128.775711,0.00118969749 C131.589112,-0.000359273905 134.402391,-0.0016500834 137.215792,0.00583661166 C137.397001,0.00635293546 137.602518,0.037977768 137.754385,0.131303294 C138.087461,0.336283842 138.079358,1.34246984 137.744809,1.5433198 C137.597362,1.63174025 137.400684,1.65923449 137.225614,1.66168703 C136.372361,1.67330431 135.518863,1.6665921 134.665364,1.66749567 C134.549838,1.66762475 134.433697,1.66685027 134.318661,1.67782215 C134.063791,1.70196028 133.940898,1.81929487 133.903207,2.08700876 C133.884301,2.22151111 133.885897,2.35988588 133.885897,2.49645353 C133.885037,6.26045401 133.885283,10.0244545 133.885283,13.788455" id="Fill-9" fill="#000000"></path>
                    <path d="M46.7304944,14.6472899 C46.7958697,14.6145139 46.8411794,14.5881899 46.889337,14.5683178 C47.9167006,14.1424878 48.6815273,13.4316099 49.1962447,12.4522009 C49.7020297,11.4900833 49.9193865,10.4532518 49.9417824,9.37796665 C49.9657317,8.22293512 49.982561,7.06635512 49.9481257,5.91209783 C49.9285778,5.25554544 49.8624258,4.58725047 49.7099265,3.94979591 C49.1432971,1.58205225 47.5385594,0.159005921 45.2333346,0.0431285535 C43.7040698,-0.0336498801 42.1683321,0.0146108496 40.6354424,0.0188691493 C40.2303743,0.0200305037 40.0548318,0.201976036 40.0123702,0.5992883 C39.9987774,0.727295369 40.0004603,0.857367068 40.0004603,0.986406453 C39.9999425,8.99910702 39.9999425,17.0118076 40.0000719,25.0246372 C40.0000719,25.8766842 40.1227963,25.9983684 40.9794073,25.9979813 C41.7332301,25.9975942 41.8809396,25.8525539 41.8809396,25.1085128 C41.8813279,21.9612422 41.8806806,18.8139716 41.8819752,15.666572 C41.8822341,15.1212516 42.0103957,14.9879539 42.5528167,14.9830504 C43.277253,14.9764694 44.0018188,14.9845989 44.7263846,14.9775017 C44.8756475,14.9760823 44.9381747,15.0372469 44.9889215,15.1682219 C45.9300674,17.5904202 46.8753558,20.01107 47.8201264,22.4318488 C48.2150969,23.4441628 48.6140806,24.4547993 49.005038,25.4684036 C49.1153346,25.7540968 49.2889353,25.9653343 49.6079151,25.9841741 C49.9498086,26.0044332 50.2944208,26.0049494 50.6364438,25.9874 C50.9066186,25.9734638 51.0358158,25.7835178 50.9914124,25.5115028 C50.9767839,25.4224656 50.9505043,25.3334284 50.9173635,25.2492948 C50.0390039,23.0227202 49.1589613,20.7967908 48.2794366,18.5707324 C47.7658843,17.2706606 47.2528498,15.9704598 46.7304944,14.6472899" id="Fill-11" fill="#FFFFFF"></path>
                    <path d="M26,12.9863904 L26.0030969,12.9863904 C26.0030969,15.398992 25.9978941,17.81172 26.005946,20.224448 C26.0086712,21.031514 26.1140881,21.8277079 26.3597305,22.5995028 C26.7747088,23.9032735 27.5196878,24.929552 28.7585529,25.5251172 C29.7177102,25.9862978 30.7337258,26.0764353 31.7740207,25.944832 C33.3391702,25.7468581 34.5170893,24.955721 35.2614489,23.5271736 C35.7905152,22.5116408 35.9916868,21.4092573 35.9936688,20.2724876 C36.0019684,15.454364 36.0032071,10.6363668 35.9906958,5.81849599 C35.9893332,5.25630571 35.9218218,4.68779443 35.8227225,4.13394788 C35.6260104,3.03434568 35.1846469,2.04599317 34.3778547,1.26244127 C33.4496659,0.36093939 32.3122537,0.0185937036 31.0577805,0.000642046519 C28.7683389,-0.0321007647 27.060858,1.18886476 26.3724895,3.35254512 C26.0900565,4.24052004 26,5.15542246 26,6.08334614 L26,12.9863904 Z" id="Fill-13" fill="#FFFFFF"></path>
                    <path d="M0,13.0022112 C0,17.0179906 0,21.033899 0.000245801246,25.0496784 C0.000245801246,25.1636772 -0.00110610561,25.2783216 0.0086030436,25.3916749 C0.043998423,25.8039039 0.212618078,25.9744503 0.603319158,25.9960106 C0.70434347,26.001433 0.805982285,25.9997546 0.907252398,25.9997546 C2.97075386,25.9998837 5.03425531,26.0000128 7.09775677,25.9998837 C7.88124824,25.9997546 8.02504197,25.8434097 7.99628323,25.0234703 C7.97956874,24.5478512 7.81217809,24.3669766 7.36113281,24.3410267 C7.26723673,24.3356043 7.17297195,24.3371535 7.07883008,24.3371535 C5.56555471,24.3368953 4.05240224,24.33767 2.53912687,24.3366371 C1.88197724,24.3362498 1.78463994,24.2339995 1.78463994,23.5460043 C1.78414834,20.3895411 1.78414834,17.2330778 1.78463994,14.0767436 C1.78463994,13.3798403 1.88480395,13.275137 2.55510395,13.2747497 C4.09013273,13.273846 5.62503861,13.2746206 7.16006739,13.273846 C7.27571687,13.273846 7.39259537,13.2755243 7.50689295,13.2595154 C7.80123994,13.2182021 7.96469777,13.0439118 7.98608247,12.735095 C7.99984734,12.5385988 7.99997024,12.3391331 7.98460767,12.1428951 C7.96162525,11.8491835 7.8130384,11.6885782 7.5363891,11.6419716 C7.41557778,11.6215732 7.29157105,11.6140852 7.16903913,11.6136978 C6.38714537,11.611374 5.60512871,11.6124068 4.82323494,11.6124068 C4.04846942,11.6124068 3.27370389,11.6138269 2.49893836,11.6117613 C1.8947589,11.610212 1.78513155,11.4968587 1.78488575,10.8707044 C1.78402544,8.04900777 1.78402544,5.22718202 1.78488575,2.40548538 C1.78500865,1.78010569 1.89549631,1.66507404 2.49893836,1.66442852 C4.02671601,1.66262106 5.55437075,1.663783 7.08214839,1.66352479 C7.88641007,1.66339569 8.0313099,1.50304854 7.99493132,0.654706269 C7.97575882,0.209426632 7.80074834,0.0241624172 7.37698699,0.00337667601 C7.29021915,-0.000883755423 7.20320551,0.000149076438 7.11631477,0.000149076438 C5.03843394,1.99724556e-05 2.9603073,-0.000109131527 0.882426472,0.000149076438 C0.130397561,0.000278180421 0,0.137903026 0,0.931763416 C0,4.95515993 0,8.97868555 0,13.0022112" id="Fill-15" fill="#FFFFFF"></path>
                    <path d="M67.0001161,12.9951754 L67.0001161,15.0945148 C67.0001161,18.4563498 66.9995019,21.8180556 67.0010988,25.1798906 C67.0013445,25.8219184 67.1700049,25.9987892 67.7725389,25.9991765 C69.9436266,26.0000802 72.1147144,26.0007257 74.2858021,25.9984019 C74.8100865,25.9977564 74.988697,25.8060388 74.9990156,25.2572231 C75.0130194,24.5062326 74.8576259,24.3373662 74.1476062,24.337108 C72.6062003,24.3364625 71.0646715,24.3374953 69.5231427,24.3363334 C68.8815453,24.335817 68.7872036,24.2342131 68.7872036,23.5521634 C68.7868351,20.410965 68.7869579,17.2696375 68.7870808,14.1284391 C68.7870808,13.3602779 68.8669273,13.274941 69.5920563,13.2745537 C71.1553279,13.2737791 72.7184767,13.276232 74.2816255,13.2726171 C74.8126662,13.2714552 74.9880828,13.0847727 74.9990156,12.5369898 C75.014125,11.7763165 74.8611883,11.6127434 74.1301628,11.6124852 C72.5960045,11.6119688 71.0617233,11.6131307 69.5274421,11.6118397 C68.8819138,11.6113233 68.7873264,11.5106231 68.7872036,10.8324465 C68.7868351,8.0411165 68.7868351,5.24978648 68.7872036,2.45832735 C68.7872036,1.76168904 68.8779829,1.66434559 69.5350582,1.66395828 C71.1055774,1.66292546 72.6759738,1.66537841 74.2463702,1.66240905 C74.8227391,1.66124712 74.9949619,1.47430638 74.9993841,0.867910878 C75.0044206,0.172563599 74.8447276,0.000598769371 74.1870381,0.000469666646 C72.0955512,-0.000304949706 70.0040643,8.23584699e-05 67.9125773,0.000211461195 C67.1213599,0.000211461195 67.0002389,0.128797776 67.0001161,0.970160236 C67.0001161,4.97854165 67.0001161,8.98679396 67.0001161,12.9951754" id="Fill-17" fill="#FFFFFF"></path>
                    <path d="M12.0048625,13.0035884 C12.0048625,15.2902361 11.9892067,17.5770101 12.0140792,19.8634049 C12.0219071,20.574118 12.0900856,21.2929232 12.2186147,21.9916246 C12.4151961,23.0599069 12.8831027,24.0116126 13.6898817,24.7658206 C14.6381943,25.6526631 15.7905374,25.9980942 17.0615616,25.9999908 C18.8338241,26.0027725 20.2842588,25.3739918 21.235854,23.8104483 C21.6971952,23.0526999 21.9248357,22.2151686 21.9959181,21.3355331 C22.0249571,20.9746765 21.8628438,20.8161221 21.4965737,20.8085357 C21.303275,20.8046161 21.10985,20.806007 20.9164251,20.8082829 C20.4831127,20.813214 20.400036,20.9124685 20.2712543,21.3289583 C20.1270694,21.7950121 19.9807381,22.2739627 19.7432496,22.6951307 C18.6714582,24.5948752 16.084715,24.7875681 14.7261951,23.0805165 C14.1072857,22.3029172 13.8649995,21.3773844 13.8619694,20.4082302 C13.8469448,15.4699058 13.8522476,10.5315814 13.8585604,5.59350986 C13.859318,4.95600489 13.9899934,4.33341971 14.2436428,3.74649031 C14.7457649,2.58502251 15.608223,1.87822902 16.8873276,1.77720433 C18.1017889,1.6812372 19.0349507,2.19495848 19.6945146,3.21102153 C19.9894498,3.66556941 20.1692391,4.16841694 20.2836275,4.69693157 C20.3697344,5.09496125 20.4898043,5.18953755 20.896729,5.19497442 C21.0825786,5.1975032 21.2685544,5.19699745 21.4545303,5.19535374 C21.881151,5.19156057 22.0508397,5.02339683 21.9869539,4.59932073 C21.9172603,4.13743941 21.8406226,3.66999477 21.6989628,3.2268264 C21.3294101,2.0699104 20.642701,1.15196393 19.5528548,0.571862229 C18.5440654,0.0348761908 17.4645723,-0.0846085763 16.3477073,0.0518190044 C14.4472945,0.28370796 13.1695787,1.32113919 12.4798394,3.09406555 C12.1046051,4.05879441 12.0048625,5.07220225 12.0048625,6.09888617 C12.0048625,8.40045359 12.0048625,10.702021 12.0048625,13.0035884" id="Fill-19" fill="#FFFFFF"></path>
                    <path d="M53.0029607,12.993712 C53.0029607,15.2944102 52.9929866,17.5951085 53.0096521,19.8956803 C53.0139447,20.5034954 53.0586384,21.1175036 53.1574948,21.7167241 C53.3480112,22.8718129 53.7921706,23.922629 54.6673592,24.7363353 C55.95123,25.9302262 57.5030104,26.1761834 59.159455,25.8936991 C60.8735973,25.6016091 62.0300784,24.586309 62.6243532,22.9614243 C62.8086831,22.4569971 62.8936517,21.9122512 62.9860692,21.3793861 C63.0539935,20.9874471 62.8718098,20.8079717 62.4771417,20.8017785 C62.2986194,20.7989979 62.1200971,20.8002618 61.9415748,20.8013994 C61.4759523,20.8045591 61.3722983,20.8869662 61.2709168,21.3404577 C61.1431483,21.912504 60.9301589,22.4476442 60.5949561,22.9318487 C59.4509741,24.5842867 57.0428168,24.6853996 55.7681625,23.1305356 C55.1148012,22.333513 54.8606531,21.3838098 54.857118,20.3855725 C54.8390638,15.4791941 54.8455027,10.572563 54.8513104,5.66593181 C54.8520679,5.00667553 54.976175,4.36144867 55.2385295,3.75249607 C55.746952,2.57212904 56.6230243,1.86218991 57.9220455,1.77599114 C59.197331,1.69143546 60.1562255,2.2596901 60.7701958,3.36384326 C60.9979569,3.77322422 61.1312805,4.24011316 61.2709168,4.69221433 C61.3942663,5.09161039 61.4856738,5.19032188 61.9092539,5.19449279 C62.0877762,5.19638866 62.2662985,5.19613587 62.4448208,5.19474557 C62.8797638,5.19133301 63.053236,5.01324787 62.9835441,4.58225402 C62.9088021,4.12117908 62.8326713,3.65391097 62.6891212,3.21154191 C62.2524107,1.8666136 61.4044929,0.877097225 60.0698682,0.350804444 C59.177888,-0.000942148882 58.2499255,-0.0647696836 57.3058026,0.0561866545 C55.6464543,0.2685238 54.4267202,1.11269034 53.683214,2.61813543 C53.1537072,3.69043801 53.0043494,4.84438928 53.0034657,6.02462991 C53.0019506,8.3476994 53.0030869,10.6706425 53.0029607,12.993712" id="Fill-21" fill="#FFFFFF"></path>
                    <path d="M41.881069,7.48465409 L41.8822341,7.48465409 C41.8822341,9.22526337 41.8804217,10.9660017 41.8836581,12.70674 C41.8843054,13.1444408 42.0256715,13.3059979 42.4461449,13.3110304 C43.2771236,13.3210955 44.1092674,13.3345155 44.9392104,13.3016105 C45.8390597,13.2661248 46.5809726,12.8742328 47.1487671,12.1736792 C47.7049105,11.4874489 47.9938565,10.6791476 48.0255732,9.81755313 C48.0792975,8.36057193 48.0750254,6.90036476 48.0518528,5.44222221 C48.0444738,4.98606877 47.9323648,4.52243106 47.8082164,4.07892345 C47.4351239,2.74556178 46.3959799,1.80654379 45.0955934,1.70550612 C44.1860348,1.6349217 43.2668965,1.6784079 42.3521597,1.68756968 C42.0525983,1.69066662 41.917964,1.84667497 41.8888364,2.14875565 C41.8779621,2.26179395 41.8813279,2.37650977 41.8813279,2.49058039 C41.8809396,4.1551856 41.881069,5.81991985 41.881069,7.48465409 M46.7304944,14.64736 C47.2528498,15.9705276 47.7658843,17.2707262 48.2794366,18.5707957 C49.1589613,20.7968503 50.0390039,23.0227759 50.9173635,25.2493467 C50.9505043,25.3334802 50.9767839,25.4225172 50.9914124,25.5115543 C51.0358158,25.7835688 50.9066186,25.9735145 50.6364438,25.9874507 C50.2944208,26.004871 49.9498086,26.0044839 49.6079151,25.9842247 C49.2889353,25.965385 49.1153346,25.7541479 49.005038,25.4684552 C48.6140806,24.4548525 48.2150969,23.4442178 47.8201264,22.4319056 C46.8753558,20.0111309 45.9300674,17.5903562 44.9889215,15.1682911 C44.9381747,15.0373163 44.8756475,14.9761518 44.7263846,14.9774422 C44.0018188,14.9846683 43.277253,14.9765389 42.5526872,14.9829908 C42.0103957,14.9878943 41.8822341,15.1213208 41.8819752,15.6666403 C41.8806806,18.8140346 41.8813279,21.9612998 41.8809396,25.108565 C41.8809396,25.8526048 41.7332301,25.9976448 40.9794073,25.9980319 C40.1226668,25.998419 40.0000719,25.8767351 40.0000719,25.0246895 C39.9999425,17.0118736 39.9999425,8.99918675 40.0004603,0.986499903 C40.0004603,0.857460739 39.9986479,0.727389263 40.0123702,0.599382413 C40.0548318,0.201941789 40.2303743,0.019996569 40.6354424,0.0189642557 C42.1683321,0.0145769241 43.7040698,-0.033683723 45.2333346,0.0432236184 C47.5385594,0.158971748 49.1432971,1.58214468 49.7099265,3.94975525 C49.8624258,4.58733776 49.9285778,5.25563158 49.9481257,5.91205381 C49.982561,7.06643816 49.9657317,8.22301619 49.9417824,9.37804574 C49.9193865,10.4533291 49.7020297,11.4901588 49.1962447,12.4522748 C48.6815273,13.431682 47.9167006,14.1425588 46.889337,14.568388 C46.8411794,14.58826 46.7958697,14.614584 46.7304944,14.64736" id="Fill-23" fill="#000000"></path>
                    <path d="M34.2031923,12.9957468 C34.2031923,10.7096915 34.2049265,8.42350985 34.2020774,6.1374546 C34.2013342,5.46565802 34.1548814,4.79828614 33.9538337,4.15152074 C33.6788331,3.26695907 33.2079876,2.53220526 32.37704,2.10161829 C30.7447507,1.25574119 28.8774722,2.00832023 28.1790699,3.77959271 C27.8823914,4.5317925 27.8038552,5.31812572 27.8044746,6.12139924 C27.807943,10.663801 27.8047223,15.2062028 27.8085624,19.748731 C27.808934,20.1573209 27.818844,20.5690712 27.868022,20.9738685 C27.974306,21.847558 28.2493065,22.6589224 28.860006,23.309354 C30.3708986,24.9188087 32.9725029,24.3616752 33.8086532,22.2605726 C34.1141268,21.4932024 34.201458,20.6928365 34.2023252,19.8765418 C34.2046788,17.5829013 34.2031923,15.2893872 34.2031923,12.9957468 L34.2031923,12.9957468 Z M26.0000003,12.9863917 L26.0000003,6.08322036 C25.9998764,5.15529659 26.0900567,4.24052051 26.3724897,3.3525455 C27.0608582,1.18873852 28.7683391,-0.0321007037 31.0577806,0.00064211062 C32.3121299,0.0185937694 33.449666,0.360939488 34.3778548,1.26231503 C35.1846469,2.04599343 35.6258865,3.03434603 35.8227225,4.13382192 C35.9218218,4.68779494 35.9892093,5.25630628 35.9906958,5.81849661 C36.0032071,10.6363679 36.0019684,15.4543655 35.9936688,20.2724896 C35.9916868,21.4092594 35.7905153,22.5115166 35.261325,23.5271759 C34.5170893,24.955597 33.3391703,25.7467342 31.7740208,25.9448345 C30.7337259,26.0764379 29.7177104,25.9863003 28.7584292,25.5249933 C27.5195641,24.929428 26.774709,23.9031494 26.3597307,22.599505 C26.1140883,21.8275837 26.0086714,21.0313897 26.0059462,20.22445 C25.9978944,17.8117217 26.0030971,15.3989935 26.0030971,12.9863917 L26.0000003,12.9863917 Z" id="Fill-25" fill="#000000"></path>
                    <path d="M0,13.0022112 C0,8.97868555 0,4.95515993 0,0.931763416 C0,0.137903026 0.130397561,0.000278180421 0.882426472,0.000149076438 C2.9603073,-0.000109131527 5.03843394,1.99724556e-05 7.11631477,0.000149076438 C7.20320551,0.000149076438 7.29021915,-0.000883755423 7.37698699,0.00337667601 C7.80074834,0.0241624172 7.97575882,0.209426632 7.99493132,0.654706269 C8.0313099,1.50304854 7.88641007,1.66339569 7.08214839,1.66352479 C5.55437075,1.663783 4.02671601,1.66262106 2.49893836,1.66442852 C1.89549631,1.66507404 1.78500865,1.78010569 1.78488575,2.40548538 C1.78402544,5.22718202 1.78402544,8.04900777 1.78488575,10.8707044 C1.78513155,11.4968587 1.8947589,11.610212 2.49893836,11.6117613 C3.27370389,11.6138269 4.04846942,11.6124068 4.82323494,11.6124068 C5.60512871,11.6124068 6.38714537,11.611374 7.16903913,11.6136978 C7.29157105,11.6140852 7.41557778,11.6215732 7.5363891,11.6419716 C7.8130384,11.6885782 7.96162525,11.8491835 7.98460767,12.1428951 C7.99997024,12.3391331 7.99984734,12.5385988 7.98608247,12.735095 C7.96469777,13.0439118 7.80123994,13.2182021 7.50689295,13.2595154 C7.39259537,13.2755243 7.27571687,13.273846 7.16006739,13.273846 C5.62503861,13.2746206 4.09013273,13.273846 2.55510395,13.2747497 C1.88480395,13.275137 1.78463994,13.3798403 1.78463994,14.0767436 C1.78414834,17.2330778 1.78414834,20.3895411 1.78463994,23.5460043 C1.78463994,24.2339995 1.88197724,24.3362498 2.53912687,24.3366371 C4.05240224,24.33767 5.56555471,24.3368953 7.07883008,24.3371535 C7.17297195,24.3371535 7.26723673,24.3356043 7.36113281,24.3410267 C7.81217809,24.3669766 7.97956874,24.5478512 7.99628323,25.0234703 C8.02504197,25.8434097 7.88124824,25.9997546 7.09775677,25.9998837 C5.03425531,26.0000128 2.97075386,25.9998837 0.907252398,25.9997546 C0.805982285,25.9997546 0.70434347,26.001433 0.603319158,25.9960106 C0.212618078,25.9744503 0.043998423,25.8039039 0.0086030436,25.3916749 C-0.00110610561,25.2783216 0.000245801246,25.1636772 0.000245801246,25.0496784 C0,21.033899 0,17.0179906 0,13.0022112" id="Fill-27" fill="#000000"></path>
                    <path d="M67.0001161,12.9951754 C67.0001161,8.98679396 67.0001161,4.97854165 67.0001161,0.970160236 C67.0002389,0.128797776 67.1213599,0.000211461195 67.9125773,0.000211461195 C70.0040643,8.23584699e-05 72.0955512,-0.000304949706 74.1870381,0.000469666646 C74.8447276,0.000598769371 75.0044206,0.172563599 74.9993841,0.867910878 C74.9949619,1.47430638 74.8227391,1.66124712 74.2463702,1.66240905 C72.6759738,1.66537841 71.1055774,1.66292546 69.5350582,1.66395828 C68.8779829,1.66434559 68.7872036,1.76168904 68.7872036,2.45832735 C68.7868351,5.24978648 68.7868351,8.0411165 68.7872036,10.8324465 C68.7873264,11.5106231 68.8819138,11.6113233 69.5274421,11.6118397 C71.0617233,11.6131307 72.5960045,11.6119688 74.1301628,11.6124852 C74.8611883,11.6127434 75.014125,11.7763165 74.9990156,12.5369898 C74.9880828,13.0847727 74.8126662,13.2714552 74.2816255,13.2726171 C72.7184767,13.276232 71.1553279,13.2737791 69.5920563,13.2745537 C68.8669273,13.274941 68.7870808,13.3602779 68.7870808,14.1284391 C68.7869579,17.2696375 68.7868351,20.410965 68.7872036,23.5521634 C68.7872036,24.2342131 68.8815453,24.335817 69.5231427,24.3363334 C71.0646715,24.3374953 72.6062003,24.3364625 74.1476062,24.337108 C74.8576259,24.3373662 75.0130194,24.5062326 74.9990156,25.2572231 C74.988697,25.8060388 74.8100865,25.9977564 74.2858021,25.9984019 C72.1147144,26.0007257 69.9436266,26.0000802 67.7725389,25.9991765 C67.1700049,25.9987892 67.0013445,25.8219184 67.0010988,25.1798906 C66.9995019,21.8180556 67.0001161,18.4563498 67.0001161,15.0945148 L67.0001161,12.9951754 Z" id="Fill-29" fill="#000000"></path>
                    <path d="M12.0048625,13.0035884 C12.0048625,10.702021 12.0048625,8.40045359 12.0048625,6.09888617 C12.0048625,5.07220225 12.1046051,4.05879441 12.4798394,3.09406555 C13.1695787,1.32113919 14.4472945,0.28370796 16.3477073,0.0518190044 C17.4645723,-0.0846085763 18.5440654,0.0348761908 19.5528548,0.571862229 C20.642701,1.15196393 21.3294101,2.0699104 21.6989628,3.2268264 C21.8406226,3.66999477 21.9172603,4.13743941 21.9869539,4.59932073 C22.0508397,5.02339683 21.881151,5.19156057 21.4545303,5.19535374 C21.2685544,5.19699745 21.0825786,5.1975032 20.896729,5.19497442 C20.4898043,5.18953755 20.3697344,5.09496125 20.2836275,4.69693157 C20.1692391,4.16841694 19.9894498,3.66556941 19.6945146,3.21102153 C19.0349507,2.19495848 18.1017889,1.6812372 16.8873276,1.77720433 C15.608223,1.87822902 14.7457649,2.58502251 14.2436428,3.74649031 C13.9899934,4.33341971 13.859318,4.95600489 13.8585604,5.59350986 C13.8522476,10.5315814 13.8469448,15.4699058 13.8619694,20.4082302 C13.8649995,21.3773844 14.1072857,22.3029172 14.7261951,23.0805165 C16.084715,24.7875681 18.6714582,24.5948752 19.7432496,22.6951307 C19.9807381,22.2739627 20.1270694,21.7950121 20.2712543,21.3289583 C20.400036,20.9124685 20.4831127,20.813214 20.9164251,20.8082829 C21.10985,20.806007 21.303275,20.8046161 21.4965737,20.8085357 C21.8628438,20.8161221 22.0249571,20.9746765 21.9959181,21.3355331 C21.9248357,22.2151686 21.6971952,23.0526999 21.235854,23.8104483 C20.2842588,25.3739918 18.8338241,26.0027725 17.0615616,25.9999908 C15.7905374,25.9980942 14.6381943,25.6526631 13.6898817,24.7658206 C12.8831027,24.0116126 12.4151961,23.0599069 12.2186147,21.9916246 C12.0900856,21.2929232 12.0219071,20.574118 12.0140792,19.8634049 C11.9892067,17.5770101 12.0048625,15.2902361 12.0048625,13.0035884" id="Fill-31" fill="#000000"></path>
                    <path d="M53.0029812,12.993712 C53.0029812,10.6706425 53.0018449,8.3476994 53.0034862,6.02462991 C53.0042438,4.84438928 53.153603,3.69043801 53.6832413,2.61813543 C54.4266287,1.11269034 55.6463749,0.2685238 57.305866,0.0561866545 C58.2499983,-0.0647696836 59.17797,-0.000942148882 60.0699591,0.350804444 C61.4045971,0.877097225 62.2525233,1.8666136 62.6891119,3.21154191 C62.8327897,3.65391097 62.9089213,4.12117908 62.9835378,4.58225402 C63.0533566,5.01324787 62.8798827,5.19133301 62.4448092,5.19474557 C62.2662851,5.19613587 62.087761,5.19638866 61.9092369,5.19449279 C61.4857788,5.19032188 61.3942442,5.09161039 61.2708934,4.69221433 C61.131382,4.24011316 60.9979308,3.77322422 60.7702937,3.36384326 C60.1561911,2.2596901 59.1974132,1.69143546 57.9219887,1.77599114 C56.6230809,1.86218991 55.7468736,2.57212904 55.2385723,3.75249607 C54.9762152,4.36144867 54.8521069,5.00667553 54.8513493,5.66593181 C54.8454154,10.572563 54.8389764,15.4791941 54.8570308,20.3855725 C54.8606922,21.3838098 55.1148428,22.333513 55.7680844,23.1305356 C57.0427513,24.6853996 59.4509326,24.5842867 60.594926,22.9318487 C60.9302584,22.4476442 61.1431237,21.912504 61.2710197,21.3404577 C61.3724021,20.8869662 61.475931,20.8045591 61.9416844,20.8013994 C62.1200822,20.8002618 62.2986063,20.7989979 62.4771304,20.8017785 C62.8719287,20.8079717 63.0539879,20.9874471 62.9860629,21.3793861 C62.8937707,21.9122512 62.8088013,22.4569971 62.6243433,22.9614243 C62.0301889,24.586309 60.8736963,25.6016091 59.1595368,25.8936991 C57.5029495,26.1761834 55.9512799,25.9302262 54.6673963,24.7363353 C53.792199,23.922629 53.3479089,22.8718129 53.1573907,21.7167241 C53.0586595,21.1175036 53.0139654,20.5034954 53.0095465,19.8956803 C52.9930071,17.5951085 53.0029812,15.2944102 53.0029812,12.993712" id="Fill-33" fill="#000000"></path>
                    <g id="Group-37" transform="translate(152.000000, 21.000000)">
                        <mask id="mask-2" fill="white">
                            <use xlink:href="#path-1"></use>
                        </mask>
                        <g id="Clip-36"></g>
                        <path d="M2.49697436,0.0611025641 C3.88120513,0.0611025641 4.98158974,1.16148718 4.98158974,2.54571795 C4.98158974,3.92994872 3.88120513,4.99469231 2.49697436,4.99469231 C1.11261538,4.99469231 0.0478717949,3.92994872 0.0478717949,2.54571795 C0.0478717949,1.16148718 1.11261538,0.0611025641 2.49697436,0.0611025641" id="Fill-35" fill="#000000" mask="url(#mask-2)"></path>
                    </g>
                </g>
            </g>
        </g>
    </g>
</svg>