<?xml version="1.0" encoding="UTF-8"?>
<svg width="350px" height="142px" viewBox="0 0 350 142" version="1.1" xmlns="http://www.w3.org/2000/svg" xmlns:xlink="http://www.w3.org/1999/xlink">
    <!-- Generator: Sketch 53.2 (72643) - https://sketchapp.com -->
    <title>Group 4 Copy 6</title>
    <desc>Created with Sketch.</desc>
    <defs>
        <polygon id="path-1" points="0.0550615833 0.103115578 24.9792402 0.103115578 24.9792402 23.9977715 0.0550615833 23.9977715"></polygon>
        <polygon id="path-3" points="0.103137509 0.113810089 19.9561366 0.113810089 19.9561366 24 0.103137509 24"></polygon>
    </defs>
    <g id="Web" stroke="none" stroke-width="1" fill="none" fill-rule="evenodd">
        <g id="About-us" transform="translate(-925.000000, -6064.000000)">
            <g id="Group-4-Copy-6" transform="translate(925.000000, 6064.000000)">
                <rect id="Rectangle" fill="#FFFFFF" x="0" y="0" width="350" height="142"></rect>
                <g id="Group-13" transform="translate(115.000000, 60.000000)">
                    <g id="Group-3" transform="translate(95.000000, 0.000000)">
                        <mask id="mask-2" fill="white">
                            <use xlink:href="#path-1"></use>
                        </mask>
                        <g id="Clip-2"></g>
                        <path d="M8.29664216,14.5434935 L16.5183333,14.5434935 C15.1481127,11.4110714 13.7956618,8.31905126 12.3900245,5.10558392 C10.9957843,8.32025729 9.65644608,11.4082975 8.29664216,14.5434935 L8.29664216,14.5434935 Z M24.9792402,23.9678955 C23.6323039,23.9739256 22.2851225,23.9675337 20.9384314,23.9943075 C20.5852451,24.0013025 20.4434559,23.8583879 20.3199265,23.5611015 C19.6570588,21.9651618 18.9634314,20.3815236 18.3052206,18.7837749 C18.1547304,18.4185889 17.9726225,18.2748302 17.5495833,18.2773628 C14.1204167,18.2975035 10.6911275,18.2973829 7.26208333,18.277604 C6.83794118,18.275192 6.65779412,18.4220864 6.50546569,18.7881166 C5.85656863,20.3464281 5.16,21.8855638 4.51919118,23.4468905 C4.34492647,23.8715337 4.11723039,24.0115538 3.66073529,23.9967196 C2.62090686,23.9627095 1.5785049,23.965604 0.538186275,23.9949106 C0.0438235294,24.0087799 -0.0513970588,23.9247196 0.162818627,23.445202 C2.05718137,19.205403 3.92740196,14.9552322 5.80509804,10.7083176 C7.29272059,7.34373467 8.78156863,3.97975477 10.2667402,0.614086432 C10.3376961,0.45320201 10.46,0.299433166 10.3983578,0.103091457 L14.4418627,0.103091457 C14.4918627,0.234307538 14.5358578,0.368056281 14.5927206,0.496377889 C17.2191912,6.43390553 19.8406373,12.3737246 22.4780147,18.3066693 C23.3010539,20.1580462 24.0593873,22.0381266 24.9792402,23.8474131 L24.9792402,23.9678955 Z" id="Fill-1" fill="#020203" mask="url(#mask-2)"></path>
                    </g>
                    <path d="M4.06821432,8.81035012 C4.06821432,10.0343524 4.06880741,11.2583546 4.06773985,12.4823569 C4.06750262,12.7428847 4.0446095,12.9988623 4.44351916,12.9884785 C6.29857365,12.9401764 8.16252442,13.124751 10.0079709,12.874607 C11.4348173,12.6811654 12.6527788,12.0707393 13.3682777,10.75865 C14.7692656,8.18954028 13.2676904,5.31300081 10.2603883,4.85599796 C8.31838743,4.56093536 6.35456097,4.79217857 4.40188452,4.72719246 C4.01958126,4.71459192 4.06868879,4.96590265 4.06845155,5.1965625 C4.06785847,6.40119727 4.06821432,7.60571536 4.06821432,8.81035012 L4.06821432,8.81035012 Z M0,1 C3.04241272,1.00793367 6.08506268,0.999416642 9.12723816,1.02998461 C11.0650875,1.04946878 12.9486101,1.3567819 14.6170797,2.41137692 C17.231996,4.06426416 18.1914906,6.51845227 17.9689647,9.45962784 C17.6345828,13.8817166 14.1926673,16.036292 10.4856424,16.5054287 C8.55763834,16.7493891 6.61789117,16.5953825 4.683719,16.6120665 C4.19987942,16.6162667 4.04935418,16.7294382 4.05611536,17.2215592 C4.08458349,19.2804638 4.05694568,21.3400684 4.07699199,23.3990896 C4.08126221,23.8362583 3.98731738,24.0159326 3.49612353,23.9988986 C2.33177704,23.9584135 1.16541405,23.9760309 0,23.970314 L0,1 Z" id="Fill-4" fill="#020203"></path>
                    <path d="M74.1185377,12.4890854 C74.1185377,14.9386021 74.1248087,17.3882356 74.111675,19.8376356 C74.1099002,20.1967594 74.178645,20.3559418 74.5917057,20.3487009 C75.9706253,20.3245258 77.3508465,20.3668031 78.7294111,20.3324674 C80.8560048,20.2795623 82.8173032,19.7400006 84.3983161,18.2413738 C86.2731215,16.4640902 86.821897,14.2340186 86.6792011,11.7527355 C86.4734399,8.17282534 83.7048334,5.24564469 80.0985101,4.82625809 C78.2906747,4.61592245 76.4770416,4.78363038 74.6679048,4.71215597 C74.2276302,4.69475452 74.1035108,4.81574714 74.1076521,5.25720672 C74.1304882,7.66771616 74.1185377,10.0784592 74.1185377,12.4890854 M70.013134,12.5255233 C70.013134,8.90835772 70.0253211,5.29107531 70.0001186,1.67402648 C69.9963323,1.12220201 70.1703834,0.995253183 70.7020022,1.00027508 C73.4416199,1.02608528 76.1825392,0.970961227 78.9213287,1.02620207 C82.3550208,1.0954575 85.4460537,2.1220262 87.8710544,4.61825822 C90.3016162,7.12044643 91.2383681,10.1592766 90.9493085,13.5982234 C90.484423,19.1276798 86.1960941,23.2156189 80.5967622,23.8880856 C79.8488516,23.9780125 79.1040172,23.9935454 78.3564615,23.9957643 C75.8333723,24.003122 73.3104013,23.9986841 70.787312,23.9985673 C70.0138439,23.9985673 70.0132523,23.9983337 70.0132523,23.2603487 C70.013134,19.6820736 70.013134,16.1037985 70.013134,12.5255233" id="Fill-6" fill="#020203"></path>
                    <g id="Group-10" transform="translate(26.000000, 0.000000)">
                        <mask id="mask-4" fill="white">
                            <use xlink:href="#path-3"></use>
                        </mask>
                        <g id="Clip-9"></g>
                        <path d="M0.117353659,12.0962909 C0.117353659,8.32235152 0.130036585,4.54841212 0.103207317,0.774715152 C0.099304878,0.225018182 0.258207317,0.0937454545 0.784426829,0.116169697 C1.77796341,0.158230303 2.77528049,0.149624242 3.76967073,0.118836364 C4.22808537,0.104533333 4.36028049,0.253624242 4.35759756,0.703684848 C4.34003659,3.60962424 4.3610122,6.51592727 4.3369878,9.42186667 C4.33271951,9.92768485 4.47454878,10.0618667 4.98052439,10.0585939 C8.37271951,10.0365333 11.7651585,10.0381091 15.1574756,10.0577455 C15.6173537,10.0604121 15.734061,9.93301818 15.7308902,9.48295758 C15.7106463,6.55677576 15.7294268,3.63047273 15.7110122,0.704290909 C15.7083293,0.266836364 15.8011341,0.100169697 16.2775976,0.117018182 C17.3122317,0.153624242 18.3494268,0.143927273 19.3849146,0.120533333 C19.7957683,0.111321212 19.9568659,0.218715152 19.9561341,0.657866667 C19.9450366,8.26610909 19.9456463,15.8744727 19.9552805,23.4828364 C19.9557683,23.8789576 19.8361341,24.0050182 19.434061,23.9945939 C18.4191829,23.9682909 17.4018659,23.9571394 16.3878415,23.9978667 C15.8660122,24.0187152 15.7002805,23.8937455 15.7061341,23.3418667 C15.7368659,20.4159273 15.7088171,17.4893818 15.7318659,14.5633212 C15.7357683,14.064897 15.6035732,13.9222303 15.0944268,13.9256242 C11.7225976,13.9482909 8.35040244,13.9484121 4.97857317,13.9257455 C4.46320732,13.9222303 4.33406098,14.0755636 4.33771951,14.5724121 C4.35991463,17.4984727 4.33723171,20.424897 4.35979268,23.3510788 C4.36357317,23.8463515 4.23869512,24.0170182 3.72296341,23.9973818 C2.70881707,23.9585939 1.69113415,23.960897 0.676743902,23.9971394 C0.208573171,24.0137455 0.105402439,23.8611394 0.10747561,23.4178667 C0.124670732,19.6441697 0.117353659,15.8702303 0.117353659,12.0962909" id="Fill-8" fill="#020203" mask="url(#mask-4)"></path>
                    </g>
                    <path d="M58.9892863,12.5414138 C58.9892863,16.1542926 58.9803578,19.7671714 58.9999542,23.3799335 C59.0026212,23.8569278 58.8897967,24.0196217 58.397103,23.998147 C57.4721281,23.957882 56.5430948,23.9609165 55.617772,23.9972133 C55.1431673,24.015887 54.9938169,23.8856384 55.0001945,23.3905541 C55.0274439,21.2542918 55.01179,19.1174461 55.01179,16.9808337 C55.01179,11.8723146 55.0190952,6.76367878 55.0005423,1.65527638 C54.998687,1.15108862 55.1124391,0.976957101 55.6366727,1.00239991 C56.5612997,1.04745002 57.4903331,1.03893018 58.4158877,1.00485082 C58.8707801,0.988161274 59.0021574,1.12156095 58.9997223,1.58630069 C58.9808216,5.23792725 58.9892863,8.88967051 58.9892863,12.5414138" id="Fill-11" fill="#020203"></path>
                </g>
            </g>
        </g>
    </g>
</svg>