<?xml version="1.0" encoding="utf-8"?>
<!-- Generator: Adobe Illustrator 24.0.1, SVG Export Plug-In . SVG Version: 6.00 Build 0)  -->
<svg version="1.1" id="Layer_1" xmlns="http://www.w3.org/2000/svg" xmlns:xlink="http://www.w3.org/1999/xlink" x="0px" y="0px"
	 viewBox="0 0 350 142" style="enable-background:new 0 0 350 142;" xml:space="preserve">
<style type="text/css">
	.st0{fill-rule:evenodd;clip-rule:evenodd;fill:#FFFFFF;}
</style>
<title>Group 4 Copy 7</title>
<desc>Created with Sketch.</desc>
<g id="Web">
	<g id="Group-4-Copy-7" transform="translate(545.000000, 5640.000000)">
		<rect id="Rectangle" x="-544.7" y="-5638.7" class="st0" width="350" height="142"/>
		<g>
			<path d="M-462.8-5577.8c-1-0.4-2.1-0.6-3.2-0.6c-1.3-0.1-2.4,0.3-3.4,1.1c-0.9,0.7-1.4,1.8-1.3,2.9c0,0.6,0.2,1.3,0.4,1.9
				c0.3,0.6,0.8,1.1,1.3,1.4c0.6,0.4,1.1,0.8,1.8,1.1l2,0.9l2.2,1.1c0.7,0.4,1.4,0.8,1.9,1.3c0.6,0.5,1.1,1.1,1.4,1.8
				c0.3,0.8,0.5,1.6,0.5,2.4c0.1,2-0.9,3.9-2.6,5c-1.7,1.2-4,1.8-6.6,1.8c-1.9-0.1-4-0.3-5.8-0.9l-0.1-0.1l0.8-5.6l0.8-0.1l1.1,4.7
				c1.1,0.5,2.4,0.7,3.6,0.7c1.4,0.1,2.7-0.3,3.8-1.1c0.9-0.8,1.4-1.9,1.4-3.1c0-0.6-0.1-1.3-0.4-1.9c-0.3-0.5-0.7-1-1.2-1.4
				c-0.6-0.4-1.1-0.7-1.7-1l-2-0.9c-0.8-0.3-1.5-0.7-2.3-1.1c-0.7-0.4-1.4-0.8-2-1.3c-0.6-0.5-1.1-1.1-1.4-1.9
				c-0.4-0.8-0.6-1.7-0.6-2.6c-0.1-1.9,0.9-3.6,2.5-4.6c1.9-1.1,4-1.7,6.2-1.6c1.9,0,3.7,0.2,5.5,0.6l0.1,0.1l-1,5.1l-0.6,0.1
				L-462.8-5577.8z"/>
			<path d="M-449.2-5574.7v13.5c0,0.6,0,1.2,0.1,1.8v1.4c-0.1,0.3,0.1,0.5,0.4,0.6l0,0l1.8,0.6v0.8h-8v-0.8l2.1-0.6
				c0.3-0.1,0.4-0.3,0.4-0.6v-1.4c0.1-0.6,0.1-1.2,0.1-1.8v-13.4c0-0.5,0-1.1-0.1-1.6v-1.2c0.1-0.3-0.1-0.5-0.4-0.6l-2.1-0.7v-0.7
				h8.1v0.7l-1.9,0.6c-0.3,0.1-0.4,0.3-0.4,0.5v1.3C-449.1-5575.7-449.2-5575.2-449.2-5574.7z M-448.7-5567.8l6.7-7.5l1.3-1.4
				c0.3-0.3,0.4-0.6,0.4-1c0-0.2-0.1-0.4-0.4-0.4l-1.3-0.4v-0.8h7.3v0.7l-1.7,0.6c-0.5,0.2-0.9,0.4-1.3,0.8l-1.2,1.2l-6.6,7.3
				l7.6,9.9c0.3,0.4,0.6,0.7,0.9,1c0.3,0.3,0.8,0.6,1.2,0.6l1.5,0.4v0.8h-5.8c-0.9-1.6-1.9-3.1-3.1-4.5L-448.7-5567.8z"/>
			<path d="M-424.1-5561.2c0,0.6,0,1.2,0.1,1.8v1.4c0,0.3,0.2,0.5,0.6,0.6l1.9,0.6v0.8h-8.2v-0.8l2.1-0.6c0.3-0.1,0.4-0.3,0.4-0.6
				v-1.4c0.1-0.6,0.1-1.2,0.1-1.8v-13.4c0-0.5,0-1.1-0.1-1.6v-1.2c0.1-0.3-0.1-0.5-0.4-0.6l-2.1-0.7v-0.7h8.2l0.1,0.7l-2.1,0.6
				c-0.3,0.1-0.4,0.3-0.4,0.5v1.3c-0.1,0.5-0.1,1-0.1,1.5L-424.1-5561.2z"/>
			<path d="M-411.5-5574.6v16.7c0.1,0.3,0.2,0.5,0.4,0.6l1.9,0.6v0.8h-6.8v-0.8l2.1-0.6c0.3-0.1,0.4-0.3,0.4-0.6v-19.4
				c-0.1-0.3-0.2-0.5-0.4-0.6l-2-0.7v-0.7h4.9l13.9,17.4v-12.7c0-1.1,0-2-0.1-2.8c-0.1-0.8-0.1-0.4-0.4-0.5l-2-0.6v-0.8h6.8v0.7
				l-2.1,0.7c-0.3,0.1-0.4,0.3-0.4,0.6v21.3l-1.4,0.1L-411.5-5574.6z"/>
			<path d="M-357.9-5579.2h11.9v0.1l-0.9,5.1l-0.7,0.1l-1-3.8h-7.6v9h5.3c0.3,0.1,0.5-0.1,0.6-0.4l0,0l0.6-2.2h0.9
				c-0.1,1.6-0.1,2.7-0.1,3.4s0,1.8,0.1,3.4h-0.9l-0.6-2.3c-0.1-0.3-0.3-0.4-0.5-0.4h-5.4v6c0,1.3,0,2.4,0.1,3.6h7.9l2.1-4.2
				l0.7-0.1l-0.3,5.8l-0.1,0.1h-16v-0.9l2.1-0.6c0.3-0.1,0.4-0.3,0.4-0.6v-19.4c0-0.3-0.2-0.5-0.4-0.6l-2-0.7v-0.7L-357.9-5579.2z"
				/>
			<path d="M-338.8-5574.7v13.5c0,1.3,0,2.4,0.1,3.6h8.1l2.1-4.4l0.8-0.1l-0.4,6v0.1h-16.3v-0.8l2.1-0.6c0.3-0.1,0.4-0.3,0.4-0.6
				v-1.4c0-0.6,0.1-1.2,0.1-1.8v-13.5c0-0.6-0.1-1.1-0.1-1.5v-1.2c0.1-0.3-0.1-0.5-0.4-0.6l-2.1-0.7v-0.7h8.2v0.7l-2,0.6
				c-0.3,0.1-0.4,0.3-0.4,0.5c0,0.4,0,0.9-0.1,1.7L-338.8-5574.7z"/>
			<path d="M-321.6-5561.1v3.3c0,0.3,0.2,0.4,0.6,0.6l1.9,0.6v0.8h-8.2v-0.8l2-0.6c0.3-0.1,0.4-0.3,0.4-0.6c0.1-0.5,0.1-0.9,0.1-1.4
				v-16.8c0-0.4,0-0.8-0.1-1.2c0.1-0.3-0.1-0.5-0.4-0.6l-2.1-0.7v-0.7h8.2v0.7l-2.1,0.6c-0.3,0.1-0.4,0.3-0.4,0.5L-321.6-5561.1
				L-321.6-5561.1z"/>
			<path d="M-317.7-5579.2h8.8v0.7l-1.5,0.4l-0.5,0.3c-0.1,0.1-0.1,0.3-0.1,0.4c0,0.3,0.1,0.7,0.3,0.9c0.2,0.4,0.4,0.8,0.7,1.1
				l3.6,5.4l3-4.8l0.8-1.3c0.3-0.4,0.5-0.8,0.6-1.3c0-0.3-0.3-0.6-0.7-0.7l-1.4-0.4v-0.8h7.5v0.7l-1.7,0.6c-0.4,0.1-0.7,0.3-1,0.6
				c-0.4,0.4-0.8,0.9-1.1,1.4l-5,7.4l6.5,9.6c0.3,0.5,0.6,1,1.1,1.4c0.3,0.2,0.6,0.3,0.9,0.4l1.6,0.4v0.8h-8.8v-0.8l1.4-0.4
				c0.3-0.1,0.4-0.1,0.5-0.3c0.1-0.1,0.2-0.3,0.2-0.4c0-0.3-0.1-0.6-0.3-0.9c-0.3-0.4-0.5-0.8-0.8-1.1l-4.5-6.6l-3.8,6.1l-0.9,1.4
				c-0.3,0.3-0.4,0.7-0.4,1.1c0,0.1,0.1,0.3,0.1,0.4c0.1,0.1,0.3,0.3,0.5,0.3l1.5,0.4v0.8h-7.5v-0.8l1.6-0.5
				c0.4-0.1,0.8-0.3,1.1-0.6l0.9-1.2l5.9-8.9l-5.7-8.5l-0.9-1.1c-0.3-0.3-0.6-0.4-1-0.5l-1.5-0.5L-317.7-5579.2z"/>
			<path d="M-288.7-5561.1v1.8c0,0.5,0,0.9,0.1,1.4c0,0.3,0.2,0.4,0.6,0.6l1.9,0.6v0.8h-8.2v-0.8l2.1-0.6c0.3-0.1,0.4-0.3,0.4-0.6
				v-19.4c0.1-0.3-0.1-0.5-0.4-0.6l0,0l-2-0.7v-0.7h8.2v0.7l-2,0.6c-0.3,0.1-0.4,0.3-0.4,0.5c-0.1,0.4-0.1,0.8-0.1,1.3
				L-288.7-5561.1L-288.7-5561.1z"/>
			<path d="M-279.4-5561.1v1.8c0.1,0.5,0.1,0.9,0.1,1.4c-0.1,0.3,0.1,0.6,0.4,0.7l1.8,0.5v0.8h-8v-0.8l2.1-0.6
				c0.3-0.1,0.4-0.3,0.4-0.6v-1.4c0-0.6,0.1-1.2,0.1-1.8v-13.5c0-0.6-0.1-1.1-0.1-1.5v-1.2c0.1-0.3-0.1-0.5-0.4-0.6l-2.1-0.7v-0.7
				h9.1c2.5,0,4.5,0.4,5.7,1.4c1.3,1,1.9,2.6,1.9,4.2c0.1,1.4-0.4,2.8-1.3,4c-1.1,1.1-2.4,2-4,2.4l1.9,3.1c0.6,1,1.1,1.9,1.6,2.7
				c0.5,0.8,1,1.6,1.4,2.2c0.4,0.6,0.8,1.1,1.2,1.5l0.6,0.5l0.6,0.3l0.6,0.3l0.8,0.2v0.8l-2,0.1h-1.2c-0.3,0-0.6-0.1-0.9-0.2
				l-0.8-0.3l-0.6-0.4c-0.5-0.4-0.9-0.9-1.3-1.5c-0.5-0.7-0.9-1.4-1.4-2.2l-1.5-2.6c-0.5-0.9-1.1-1.8-1.6-2.8l-0.4-0.6l-0.4-0.3
				c-0.1-0.1-0.3-0.2-0.5-0.2h-1.9L-279.4-5561.1z M-279.4-5568.1h1.9c1.9,0,3.3-0.4,4.2-1.2c0.9-0.8,1.3-2.1,1.3-3.8
				c0-1.7-0.4-2.9-1.3-3.7c-0.9-0.8-2.2-1.1-4-1.1h-0.9l-1.2,0.1V-5568.1z"/>
			<path d="M-389.2-5556.1h23.3v-23.2h-23.3V-5556.1L-389.2-5556.1z M-374.9-5576.4v5.6h6.1v5.8h-6.1v6h-5.8v-6h-5.6v-5.8h5.6v-5.6
				H-374.9z"/>
		</g>
	</g>
</g>
</svg>
