<?xml version="1.0" encoding="UTF-8"?>
<svg width="350px" height="142px" viewBox="0 0 350 142" version="1.1" xmlns="http://www.w3.org/2000/svg" xmlns:xlink="http://www.w3.org/1999/xlink">
    <!-- Generator: Sketch 53.2 (72643) - https://sketchapp.com -->
    <title>Group 4 Copy 5</title>
    <desc>Created with Sketch.</desc>
    <g id="Web" stroke="none" stroke-width="1" fill="none" fill-rule="evenodd">
        <g id="About-us" transform="translate(-545.000000, -5852.000000)">
            <g id="Group-4-Copy-5" transform="translate(545.000000, 5852.000000)">
                <rect id="Rectangle" fill="#FFFFFF" x="0" y="0" width="350" height="142"></rect>
                <g id="Le-Livre-Sur-Les-Quais-1" transform="translate(75.000000, 51.000000)" fill="#000000" fill-rule="nonzero">
                    <g id="Group" transform="translate(98.000000, 7.000000)">
                        <path d="M6.71795652,1.66146667 C6.71795652,2.14728889 6.32769565,2.52884444 5.80217391,2.52884444 L4.41113043,2.52884444 L4.41113043,11.1633333 L9.17852174,11.1633333 L9.53404348,9.3772 C9.61904348,8.94426667 10.0093043,8.63222222 10.4675652,8.63222222 C11.0263478,8.63222222 11.4513478,9.15204444 11.3493478,9.68924444 L10.891087,12.1682222 C10.806087,12.6200444 10.3825652,12.9147111 9.97530435,12.9147111 L1.30826087,12.9147111 C0.79973913,12.9147111 0.409478261,12.5331556 0.409478261,12.0299556 C0.409478261,11.5441333 0.79973913,11.1625778 1.30826087,11.1625778 L2.52930435,11.1625778 L2.52930435,2.52884444 L1.30826087,2.52884444 C0.79973913,2.52884444 0.409478261,2.14728889 0.409478261,1.66146667 C0.409478261,1.15826667 0.79973913,0.776711111 1.30826087,0.776711111 L5.80291304,0.776711111 C6.32769565,0.776711111 6.71795652,1.15826667 6.71795652,1.66146667" id="Path"></path>
                        <path d="M13.9089565,7.4868 L17.8263478,7.4868 C17.640087,6.63755556 16.8263043,6.04822222 15.9105217,6.04822222 C14.9607391,6.04822222 14.1802174,6.65493333 13.9089565,7.4868 M18.9298696,9.86302222 C19.3703913,9.86302222 19.7606522,10.2105778 19.7606522,10.7644 C19.7606522,11.1633333 19.4723913,11.5622667 19.2521304,11.8055556 C18.3696087,12.7243111 17.1478261,13.0892444 16.0635217,13.0892444 C13.5016957,13.0892444 11.8393913,11.1814667 11.8393913,8.80675556 C11.8393913,6.22275556 13.5689565,4.45324444 15.9785217,4.45324444 C18.4383478,4.45324444 19.8286522,6.49928889 19.8286522,8.19853333 C19.8286522,8.70173333 19.6083913,9.13466667 18.8116087,9.13466667 L13.7389565,9.13466667 C13.7389565,10.1236889 14.6044783,11.3544889 15.9615217,11.3544889 C16.8603043,11.3544889 17.6578261,10.9895556 18.1663478,10.2619556 C18.3696087,9.98391111 18.6068696,9.86302222 18.9298696,9.86302222" id="Shape"></path>
                        <path d="M26.1378696,2.49484444 L24.5265652,2.49484444 C24.0513043,2.49484444 23.6610435,2.11328889 23.6610435,1.6456 C23.6610435,1.1424 24.0513043,0.778222222 24.5265652,0.778222222 L27.0713913,0.778222222 C27.562913,0.778222222 27.9531739,1.14164444 27.9531739,1.6456 L27.9531739,11.2169778 L29.5822174,11.2169778 C30.0574783,11.2169778 30.4307391,11.5819111 30.4307391,12.0503556 C30.4307391,12.5528 30.0574783,12.9162222 29.5822174,12.9162222 L24.5095652,12.9162222 C24.0343043,12.9162222 23.6610435,12.5528 23.6610435,12.0503556 C23.6610435,11.5819111 24.0343043,11.2169778 24.5095652,11.2169778 L26.1386087,11.2169778 L26.1386087,2.49484444 L26.1378696,2.49484444 Z" id="Path"></path>
                        <path d="M34.4656522,0.604444444 C35.2964348,0.604444444 35.9749565,1.29804444 35.9749565,2.16466667 C35.9749565,3.01391111 35.2964348,3.70751111 34.4656522,3.70751111 C33.6171304,3.70751111 32.9393478,3.01391111 32.9393478,2.16466667 C32.9393478,1.29804444 33.6171304,0.604444444 34.4656522,0.604444444 M33.6851304,6.34288889 L32.0738261,6.34288889 C31.5985652,6.34288889 31.2083043,5.96133333 31.2083043,5.49364444 C31.2083043,4.99044444 31.5985652,4.62626667 32.0738261,4.62626667 L34.6186522,4.62626667 C35.1101739,4.62626667 35.5004348,4.98968889 35.5004348,5.49364444 L35.5004348,11.2162222 L37.1294783,11.2162222 C37.6047391,11.2162222 37.978,11.5796444 37.978,12.0480889 C37.978,12.5512889 37.6047391,12.9154667 37.1294783,12.9154667 L32.0568261,12.9154667 C31.5830435,12.9154667 31.2083043,12.5520444 31.2083043,12.0480889 C31.2083043,11.5796444 31.5823043,11.2162222 32.0568261,11.2162222 L33.6858696,11.2162222 L33.6858696,6.34288889 L33.6851304,6.34288889 Z" id="Shape"></path>
                        <path d="M41.1813913,12.4817778 L38.4835652,6.34364444 L37.9403043,6.34364444 C37.4665217,6.34364444 37.0917826,5.96208889 37.0917826,5.4944 C37.0917826,4.9912 37.4657826,4.62702222 37.9403043,4.62702222 L41.1636522,4.62702222 C41.638913,4.62702222 42.0461739,4.99044444 42.0461739,5.4944 C42.0461739,5.96284444 41.638913,6.34364444 41.1636522,6.34364444 L40.5028696,6.34364444 L42.3004348,10.6601333 L44.0647391,6.34364444 L43.4039565,6.34364444 C42.9286957,6.34364444 42.5214348,5.96208889 42.5214348,5.4944 C42.5214348,4.9912 42.9286957,4.62702222 43.4039565,4.62702222 L46.5578261,4.62702222 C47.033087,4.62702222 47.4063478,4.99044444 47.4063478,5.4944 C47.4063478,5.96284444 47.033087,6.34364444 46.5578261,6.34364444 L46.0160435,6.34364444 L43.3182174,12.4817778 C43.1149565,12.9147111 42.7076957,13.124 42.2494348,13.124 C41.7926522,13.124 41.3846522,12.9147111 41.1813913,12.4817778" id="Path"></path>
                        <path d="M51.5114783,11.2162222 L52.9202609,11.2162222 C53.4117826,11.2162222 53.7673043,11.5977778 53.7673043,12.0480889 C53.7673043,12.5512889 53.3940435,12.9154667 52.9032609,12.9154667 L48.8321304,12.9154667 C48.3406087,12.9154667 47.9503478,12.5520444 47.9503478,12.0480889 C47.9503478,11.5796444 48.3406087,11.2162222 48.8321304,11.2162222 L49.6976522,11.2162222 L49.6976522,6.34288889 L48.7818696,6.34288889 C48.2896087,6.34288889 47.8993478,5.96133333 47.8993478,5.49364444 C47.8993478,4.9912 48.2896087,4.62626667 48.7818696,4.62626667 L50.5631739,4.62626667 C51.0546957,4.62626667 51.4449565,4.9912 51.4449565,5.49364444 L51.4449565,5.6848 C51.9882174,4.90431111 52.8522609,4.454 53.9210435,4.454 C55.2788261,4.454 56.0076087,5.40826667 56.0076087,6.32702222 C56.0076087,7.29715556 55.2788261,7.80111111 54.5485652,7.80111111 C53.8700435,7.80111111 53.1412609,7.3848 53.1412609,6.5348 C53.1412609,6.32702222 53.1915217,6.15324444 53.2942609,5.94546667 C52.4967391,6.01497778 51.5129565,6.63906667 51.5129565,8.9964 C51.5114783,8.9964 51.5114783,11.2162222 51.5114783,11.2162222 Z" id="Path"></path>
                        <path d="M58.4142174,7.4868 L62.333087,7.4868 C62.146087,6.63755556 61.3323043,6.04822222 60.4165217,6.04822222 C59.466,6.04822222 58.6854783,6.65493333 58.4142174,7.4868 M63.4351304,9.86302222 C63.8756522,9.86302222 64.265913,10.2105778 64.265913,10.7644 C64.265913,11.1633333 63.9776522,11.5622667 63.7573913,11.8055556 C62.8748696,12.7243111 61.653087,13.0892444 60.5687826,13.0892444 C58.0069565,13.0892444 56.3446522,11.1814667 56.3446522,8.80675556 C56.3446522,6.22275556 58.0742174,4.45324444 60.4837826,4.45324444 C62.9436087,4.45324444 64.333913,6.49928889 64.333913,8.19853333 C64.333913,8.70173333 64.1136522,9.13466667 63.3168696,9.13466667 L58.2442174,9.13466667 C58.2442174,10.1236889 59.1097391,11.3544889 60.4667826,11.3544889 C61.3655652,11.3544889 62.163087,10.9895556 62.6716087,10.2619556 C62.8748696,9.98391111 63.1121304,9.86302222 63.4351304,9.86302222" id="Shape"></path>
                        <path d="M4.4103913,29.4281333 C2.74808696,29.4281333 1.84930435,28.6831556 1.42504348,28.0930667 L1.42504348,28.9423111 C1.42504348,29.2029778 1.22178261,29.4107556 0.966782609,29.4107556 C0.711782609,29.4107556 0.508521739,29.2029778 0.508521739,28.9423111 L0.508521739,26.6544889 C0.508521739,26.4119556 0.643782609,26.2041778 0.966782609,26.2041778 C1.10204348,26.2041778 1.27204348,26.2381778 1.37404348,26.5328444 C1.49230435,26.8622667 2.17082609,28.6657778 4.4103913,28.6657778 C5.91969565,28.6657778 6.51321739,27.8324 6.51321739,27.0186667 C6.51321739,25.2665333 3.62986957,25.6654667 2.00230435,25.0413778 C1.27204348,24.7648444 0.62826087,24.2095111 0.62826087,23.1524889 C0.62826087,21.8174222 1.66230435,20.9326667 3.3246087,20.9326667 C4.37713043,20.9326667 5.30917391,21.2447111 5.93743478,22.0939556 L5.93743478,21.3822222 C5.93743478,21.1215556 6.14217391,20.9137778 6.39569565,20.9137778 C6.65069565,20.9137778 6.85395652,21.1215556 6.85395652,21.3822222 L6.85395652,23.1683556 C6.85395652,23.4290222 6.70095652,23.6541778 6.44669565,23.6541778 C6.22643478,23.6541778 6.07343478,23.4977778 6.00617391,23.3595111 C5.85317391,23.0474667 5.14213043,21.6602667 3.36008696,21.6602667 C2.20630435,21.6602667 1.54552174,22.2314667 1.54552174,23.0814667 C1.54552174,23.6541778 1.81604348,24.0176 2.30904348,24.2268889 C3.75108696,24.8336 7.44821739,24.3137778 7.44821739,26.9665333 C7.44673913,28.4398667 6.30995652,29.4281333 4.4103913,29.4281333" id="Path"></path>
                        <path d="M16.0117826,28.3869778 L17.5048261,28.3869778 C17.742087,28.3869778 17.9283478,28.5773778 17.9283478,28.8214222 C17.9283478,29.0632 17.742087,29.2543556 17.5048261,29.2543556 L15.5202609,29.2543556 C15.283,29.2543556 15.0952609,29.0632 15.0952609,28.8214222 L15.0952609,27.6246222 C14.4167391,28.8728 13.2629565,29.4281333 12.0766522,29.4281333 C10.5156087,29.4281333 9.58356522,28.4738667 9.58356522,26.4973333 L9.58356522,21.9715556 L8.09052174,21.9715556 C7.85326087,21.9541778 7.667,21.7811556 7.667,21.5386222 C7.667,21.2960889 7.85326087,21.1041778 8.09052174,21.1041778 L10.075087,21.1041778 C10.3123478,21.1041778 10.4986087,21.2953333 10.4986087,21.5386222 L10.4986087,26.5660889 C10.4986087,28.2132 11.3641304,28.5947556 12.1616522,28.5947556 C13.6539565,28.5947556 15.0952609,27.2944444 15.0952609,24.9877333 L15.0952609,21.9715556 L13.5859565,21.9715556 C13.3486957,21.9541778 13.1624348,21.7811556 13.1624348,21.5386222 C13.1624348,21.2960889 13.3486957,21.1041778 13.5859565,21.1041778 L15.5875217,21.1041778 C15.8247826,21.1041778 16.0110435,21.2953333 16.0110435,21.5386222 L16.0110435,28.3869778 L16.0117826,28.3869778 Z" id="Path"></path>
                        <path d="M26.6463913,22.6999111 C26.6463913,23.4108889 26.2058696,23.8793333 25.6278696,23.8793333 C25.069087,23.8793333 24.661087,23.4977778 24.661087,22.9605778 C24.661087,22.5261333 24.916087,22.1272 25.3063478,22.0244444 C25.0343478,21.8151556 24.559087,21.6950222 24.1355652,21.6950222 C22.8465217,21.6950222 21.5057391,22.8563111 21.5057391,25.0058667 L21.5057391,28.3877333 L23.6950435,28.3877333 C23.9323043,28.4051111 24.1185652,28.5788889 24.1185652,28.8221778 C24.1185652,29.0647111 23.9323043,29.2551111 23.6950435,29.2551111 L19.0976522,29.2551111 C18.8603913,29.2551111 18.6726522,29.0647111 18.6726522,28.8221778 C18.6726522,28.5796444 18.8596522,28.3877333 19.0976522,28.3877333 L20.5899565,28.3877333 L20.5899565,21.9715556 L19.0976522,21.9715556 C18.8603913,21.9715556 18.6726522,21.7811556 18.6726522,21.5386222 C18.6726522,21.2960889 18.8596522,21.1041778 19.0976522,21.1041778 L21.0652174,21.1041778 C21.3024783,21.1041778 21.4902174,21.2953333 21.4902174,21.5386222 L21.4902174,22.6659111 C21.9307391,21.7116444 22.9995217,20.9319111 24.2885652,20.9319111 C25.375087,20.9319111 26.6463913,21.4517333 26.6463913,22.6999111" id="Path"></path>
                        <path d="M31.5653043,26.8622667 L33.7361304,17.9844889 L32.0065652,17.9844889 C31.7693043,17.9844889 31.5830435,17.7933333 31.5830435,17.5500444 C31.5830435,17.3067556 31.7693043,17.1171111 32.0065652,17.1171111 L34.4493913,17.1171111 C34.6866522,17.1171111 34.8226522,17.3075111 34.7716522,17.5500444 L32.447087,27.0179111 C32.2098261,27.9721778 32.515087,28.5781333 33.042087,28.5781333 C33.4308696,28.5781333 33.8388696,28.3356 34.2461304,27.8497778 C34.3473913,27.7462667 34.4663913,27.676 34.6016522,27.676 C34.974913,27.676 35.1101739,28.1792 34.889913,28.4224889 C34.3466522,29.0647111 33.7538696,29.4281333 32.9733478,29.4281333 C32.1928261,29.4281333 31.0900435,28.7859111 31.5653043,26.8622667" id="Path"></path>
                        <path d="M36.9757391,25.1615111 C40.7231304,25.2310222 41.8436522,23.9820889 41.8436522,23.0633333 C41.8436522,22.3697333 41.3003913,21.7282667 40.2826087,21.7282667 C38.4857826,21.7282667 37.247,23.3761333 36.9757391,25.1615111 M35.9579565,25.942 C35.9579565,23.2537333 37.7902609,20.9304 40.3173478,20.9304 C41.7933913,20.9304 42.7756957,21.8846667 42.7756957,22.9945778 C42.7756957,24.0342222 42.1991739,24.7285778 41.4186522,25.1796444 C40.1643478,25.9246222 38.2803043,26.0115111 36.924,25.9601333 C36.9587391,27.4342222 37.9247826,28.5955111 39.417087,28.5955111 C40.5028696,28.5955111 41.2833913,27.9888 41.7756522,27.4002222 C41.876913,27.2778222 42.012913,27.2090667 42.148913,27.2090667 C42.318913,27.2090667 42.5561739,27.3828444 42.5561739,27.608 C42.5561739,27.9200444 42.2161739,28.2320889 41.978913,28.4572444 C41.1651304,29.1848444 40.2146087,29.4273778 39.349087,29.4273778 C37.4842609,29.4266222 35.9579565,28.0220444 35.9579565,25.942" id="Shape"></path>
                        <path d="M44.6582609,27.4689778 L44.37,28.9778222 C44.3197391,29.2384889 44.1327391,29.3593778 43.945,29.3593778 C43.7084783,29.3593778 43.5214783,29.1682222 43.5717391,28.8909333 L44.0817391,26.2041778 C44.132,25.9948889 44.2347391,25.8218667 44.5052609,25.8218667 C44.625,25.8218667 44.8607826,25.8732444 44.9457826,26.2381778 C45.1505217,27.1229333 46.0485652,28.6831556 48.0161304,28.6831556 C49.3221739,28.6831556 49.8654348,27.8852889 49.8654348,27.1743111 C49.8654348,26.4459556 49.2881739,26.0644 48.5416522,25.7871111 C47.7958696,25.4924444 46.8623478,25.3012889 46.1335652,24.9197333 C45.4550435,24.5563111 44.9627826,24.0009778 44.9627826,23.0988444 C44.9627826,21.8506667 45.9813043,20.9659111 47.4396087,20.9659111 C48.7286522,20.9659111 49.7796957,21.59 50.2882174,22.4747556 L50.5084783,21.3648444 C50.5587391,21.1223111 50.6954783,20.9659111 50.9334783,20.9659111 C51.2387391,20.9659111 51.374,21.2084444 51.3222609,21.4691111 L50.8824783,23.6186667 C50.8307391,23.8453333 50.6777391,24.0176 50.4574783,24.0176 C50.2024783,24.0176 50.0842174,23.8612 50.0502174,23.6889333 C49.9822174,23.29 49.3044348,21.6942667 47.5068696,21.6942667 C46.591087,21.6942667 45.8608261,22.1627111 45.8608261,23.0119556 C45.8608261,23.5332889 46.1498261,23.8612 46.591087,24.1218667 C47.9481304,24.9537333 50.7967391,25.0066222 50.7967391,27.1221778 C50.7967391,28.5607556 49.5926957,29.4281333 48.0656522,29.4281333 C46.2185652,29.4281333 45.0995217,28.4224889 44.6582609,27.4689778" id="Path"></path>
                        <path d="M62.6036087,24.5034222 C62.6206087,23.0119556 61.891087,21.7811556 60.3137826,21.7811556 C58.3122174,21.7811556 57.0054348,23.8967111 57.0054348,25.8384889 C57.0054348,27.3125778 57.7356957,28.6136444 59.3122609,28.6136444 C61.3145652,28.6136444 62.5866087,26.4278222 62.6036087,24.5034222 M58.1592174,33.0177778 C58.1592174,32.7571111 58.3122174,32.5493333 58.5664783,32.5493333 L60.8045652,32.5493333 L61.925087,28.0749333 C61.2295652,28.8901778 60.4320435,29.4281333 59.1267391,29.4281333 C57.0904348,29.4281333 56.0563913,27.7470222 56.0563913,25.8913778 C56.0563913,23.1336 57.9559565,20.9319111 60.2457826,20.9319111 C61.8903478,20.9319111 62.8408696,21.9549333 63.1291304,23.0300889 L63.5356522,21.4517333 C63.6043913,21.1925778 63.772913,21.0188 64.027913,21.0188 C64.3161739,21.0188 64.4351739,21.2439556 64.4351739,21.5046222 L61.7203478,32.5493333 L63.0108696,32.5493333 C63.2473913,32.5493333 63.4513913,32.7404889 63.4513913,32.9837778 C63.4513913,33.2255556 63.2466522,33.4167111 63.0263913,33.4167111 L58.5834783,33.4167111 C58.3454783,33.4167111 58.1592174,33.2429333 58.1592174,33.0177778" id="Shape"></path>
                        <path d="M71.4583913,26.9650222 L71.5603913,26.5487111 C70.7118696,28.2313333 69.422087,29.4266222 67.9630435,29.4266222 C66.3184783,29.4266222 65.7752174,28.0575556 66.1824783,26.3756889 L67.2512609,21.9708 L65.8092174,21.9708 C65.5719565,21.9534222 65.3842174,21.7804 65.3842174,21.5378667 C65.3842174,21.2953333 65.5712174,21.1034222 65.8092174,21.1034222 L67.9467826,21.1034222 C68.1330435,21.1034222 68.3370435,21.2416889 68.2683043,21.5378667 L67.0812609,26.4096889 C66.7427391,27.7787556 67.133,28.6121333 68.0317826,28.6121333 C69.8123478,28.6121333 71.660913,26.2200444 72.4244348,22.5435111 L72.5441739,21.9708 L71.1353913,21.9708 C70.8803913,21.9708 70.7118696,21.7804 70.7118696,21.5378667 C70.7118696,21.2953333 70.8803913,21.1034222 71.1183913,21.1034222 L73.2382174,21.1034222 C73.4252174,21.1034222 73.6632174,21.3112 73.5604783,21.5378667 L72.3394348,27.0164 C72.1361739,27.9706667 72.2381739,28.5766222 72.7644348,28.5766222 C73.1532174,28.5766222 73.5279565,28.2819556 73.9337391,27.8490222 C74.0357391,27.7447556 74.154,27.6752444 74.2907391,27.6752444 C74.664,27.6752444 74.7992609,28.1436889 74.579,28.3862222 C74.0357391,29.0284444 73.3402174,29.4258667 72.6291739,29.4258667 C71.6616522,29.4266222 71.0511304,28.6302667 71.4583913,26.9650222" id="Path"></path>
                        <path d="M81.923,24.5034222 C81.94,23.0119556 81.2104783,21.7811556 79.6331739,21.7811556 C77.6316087,21.7811556 76.3248261,23.8952 76.3248261,25.8384889 C76.3248261,27.3125778 77.055087,28.6121333 78.6316522,28.6121333 C80.6339565,28.6128889 81.906,26.4278222 81.923,24.5034222 M75.3757826,25.8906222 C75.3757826,23.1328444 77.2753478,20.9311556 79.5651739,20.9311556 C81.2097391,20.9311556 82.1432609,21.9541778 82.4322609,23.0293333 L82.8055217,21.4524889 C82.9585217,20.7755111 83.8395652,20.9666667 83.7043043,21.556 L82.3472609,27.0194222 C82.2275217,27.4878667 82.0752609,28.5788889 82.8557826,28.5788889 C83.2460435,28.5788889 83.5675652,28.2842222 83.9748261,27.8512889 C84.0768261,27.7470222 84.195087,27.6775111 84.3318261,27.6775111 C84.705087,27.6775111 84.8403478,28.1459556 84.620087,28.3884889 C84.0768261,29.0307111 83.4995652,29.4281333 82.7205217,29.4281333 C82.008,29.4281333 81.3797391,28.8388 81.4314783,27.8339111 C80.7012174,28.7881778 79.8704348,29.4281333 78.4461304,29.4281333 C76.4098261,29.4266222 75.3757826,27.7455111 75.3757826,25.8906222" id="Shape"></path>
                        <path d="M87.3674348,18.0713778 C87.3674348,17.4631556 87.8759565,16.9440889 88.4702174,16.9440889 C89.0637391,16.9440889 89.5722609,17.4639111 89.5722609,18.0713778 C89.5722609,18.6780889 89.0637391,19.1979111 88.4702174,19.1979111 C87.8744783,19.1979111 87.3674348,18.6780889 87.3674348,18.0713778 M86.3836522,26.8622667 L87.6046957,21.9730667 L85.8573913,21.9730667 C85.6201304,21.9556889 85.4338696,21.7819111 85.4338696,21.5386222 C85.4338696,21.2960889 85.6201304,21.1056889 85.8573913,21.1056889 L88.3172174,21.1056889 C88.5034783,21.1056889 88.6904783,21.2439556 88.6224783,21.5386222 L87.2646957,27.0179111 C87.0274348,27.9721778 87.1634348,28.5781333 87.6896957,28.5781333 C88.0799565,28.5781333 88.4864783,28.2834667 88.8937391,27.8497778 C88.9957391,27.7462667 89.114,27.676 89.2492609,27.676 C89.6232609,27.676 89.7592609,28.1452 89.5382609,28.3869778 C88.995,29.0292 88.3327391,29.4281333 87.5536957,29.4281333 C86.7731739,29.4281333 85.8928696,28.7859111 86.3836522,26.8622667" id="Shape"></path>
                        <path d="M91.2848261,27.4689778 L90.9965652,28.9778222 C90.9463043,29.2384889 90.7593043,29.3593778 90.5715652,29.3593778 C90.3350435,29.3593778 90.1480435,29.1682222 90.1983043,28.8909333 L90.7083043,26.2041778 C90.7585652,25.9948889 90.8613043,25.8218667 91.1318261,25.8218667 C91.2515652,25.8218667 91.4873478,25.8732444 91.5723478,26.2381778 C91.777087,27.1229333 92.6751304,28.6831556 94.6426957,28.6831556 C95.9487391,28.6831556 96.492,27.8852889 96.492,27.1743111 C96.492,26.4459556 95.9147391,26.0644 95.1682174,25.7871111 C94.4224348,25.4924444 93.488913,25.3012889 92.7601304,24.9197333 C92.0816087,24.5563111 91.5893478,24.0009778 91.5893478,23.0988444 C91.5893478,21.8506667 92.6078696,20.9659111 94.0661739,20.9659111 C95.3552174,20.9659111 96.4062609,21.59 96.9147826,22.4747556 L97.1350435,21.3648444 C97.1853043,21.1223111 97.3220435,20.9659111 97.5600435,20.9659111 C97.8653043,20.9659111 98.0005652,21.2084444 97.9503043,21.4691111 L97.5097826,23.6186667 C97.4580435,23.8453333 97.3050435,24.0176 97.0847826,24.0176 C96.8297826,24.0176 96.7115217,23.8612 96.6775217,23.6889333 C96.6095217,23.29 95.9317391,21.6942667 94.1341739,21.6942667 C93.2183913,21.6942667 92.4881304,22.1627111 92.4881304,23.0119556 C92.4881304,23.5332889 92.7771304,23.8612 93.2183913,24.1218667 C94.5754348,24.9537333 97.4240435,25.0066222 97.4240435,27.1221778 C97.4240435,28.5607556 96.22,29.4281333 94.6936957,29.4281333 C92.8451304,29.4281333 91.726087,28.4224889 91.2848261,27.4689778" id="Path"></path>
                        <path d="M100.735348,27.0496444 C101.382826,27.0496444 101.891348,27.5694667 101.891348,28.2313333 C101.891348,28.8916889 101.382826,29.4130222 100.735348,29.4130222 C100.08787,29.4130222 99.5793478,28.8916889 99.5793478,28.2313333 C99.5793478,27.5694667 100.08787,27.0496444 100.735348,27.0496444" id="Path"></path>
                    </g>
                    <rect id="Rectangle" x="86" y="4" width="5" height="33"></rect>
                    <rect id="Rectangle" x="78" y="8" width="5" height="29"></rect>
                    <polygon id="Rectangle" transform="translate(72.776018, 18.473395) rotate(-75.000671) translate(-72.776018, -18.473395) " points="54.3702096 15.887029 91.1901437 15.8287999 91.1818256 21.0597613 54.3618915 21.1179904"></polygon>
                    <rect id="Rectangle" x="0" y="26" width="36" height="5"></rect>
                    <polygon id="Rectangle" transform="translate(31.586052, 29.591758) rotate(-14.992312) translate(-31.586052, -29.591758) " points="13.279445 26.9911595 49.9009734 26.9329499 49.8926594 32.1923564 13.271131 32.2505661"></polygon>
                    <polygon id="Rectangle" transform="translate(49.366730, 24.704509) rotate(-35.007509) translate(-49.366730, -24.704509) " points="31.0334768 22.1335573 67.7156202 22.024099 67.6999842 27.2754599 31.0178408 27.3849182"></polygon>
                    <polygon id="Rectangle" transform="translate(60.290985, 20.300231) rotate(-55.000470) translate(-60.290985, -20.300231) " points="41.9170859 17.73453 78.6805203 17.6250779 78.6648833 22.8659326 41.9014489 22.9753847"></polygon>
                </g>
            </g>
        </g>
    </g>
</svg>