<?xml version="1.0" encoding="UTF-8"?>
<svg width="350px" height="142px" viewBox="0 0 350 142" version="1.1" xmlns="http://www.w3.org/2000/svg" xmlns:xlink="http://www.w3.org/1999/xlink">
    <!-- Generator: Sketch 53.2 (72643) - https://sketchapp.com -->
    <title>Group 4 Copy</title>
    <desc>Created with Sketch.</desc>
    <g id="Web" stroke="none" stroke-width="1" fill="none" fill-rule="evenodd">
        <g id="About-us" transform="translate(-545.000000, -6064.000000)">
            <g id="Group-4-Copy" transform="translate(545.000000, 6064.000000)">
                <rect id="Rectangle" fill="#FFFFFF" x="0" y="0" width="350" height="142"></rect>
                <g id="Vitesse-maxi-sur-le-reÌseau-Swisscom-_-Wingo-2" transform="translate(116.000000, 53.000000)" fill="#000000" fill-rule="nonzero">
                    <path d="M97.3255814,15.321267 C94.9395349,15.321267 93.055814,17.2217195 93.055814,19.7556561 C93.055814,22.2895928 94.9395349,24.1900452 97.3255814,24.1900452 C99.7116279,24.1900452 101.595349,22.2895928 101.595349,19.7556561 C101.595349,17.2217195 99.7116279,15.321267 97.3255814,15.321267 Z M104.986047,12.9140271 C106.995349,14.6877828 108,17.2217195 108,19.8823529 C108,22.5429864 106.869767,24.9502262 104.860465,26.7239819 C102.851163,28.4977376 100.088372,29.3846154 96.9488372,29.3846154 C94.0604651,29.3846154 91.4232558,28.3710407 89.5395349,26.5972851 C87.655814,24.8235294 86.5255814,22.4162896 86.5255814,19.8823529 C86.5255814,17.0950226 87.655814,14.6877828 89.5395349,12.7873303 C91.5488372,11.0135747 94.1860465,10 97.2,10 C100.213953,10 102.976744,11.1402715 104.986047,12.9140271 Z M74.0930233,23.9366516 C76.6046512,23.9366516 78.4883721,22.0361991 78.4883721,19.6289593 C78.4883721,17.2217195 76.6046512,15.321267 74.0930233,15.321267 C71.455814,15.321267 69.6976744,17.0950226 69.6976744,19.6289593 C69.6976744,22.1628959 71.5813953,23.9366516 74.0930233,23.9366516 Z M84.2651163,10.5067873 C84.3906977,10.5067873 84.5162791,10.6334842 84.5162791,10.760181 L84.5162791,27.6108597 C84.5162791,30.39819 84.1395349,32.0452489 83.2604651,33.5656109 C81.627907,36.479638 78.4883721,38 74.0930233,38 C70.3255814,38 67.4372093,37.1131222 65.6790698,35.3393665 C64.4232558,34.0723982 63.9209302,32.8054299 63.6697674,30.6515837 C63.6697674,30.5248869 63.6697674,30.5248869 63.7953488,30.39819 C63.7953488,30.39819 63.9209302,30.2714932 64.0465116,30.2714932 L70.3255814,30.2714932 C70.4511628,30.2714932 70.5767442,30.39819 70.5767442,30.5248869 C70.9534884,32.2986425 72.0837209,33.0588235 73.9674419,33.0588235 C75.6,33.0588235 76.855814,32.4253394 77.6093023,31.5384615 C78.2372093,30.7782805 78.3627907,29.7647059 78.3627907,27.7375566 L78.3627907,26.8506787 C76.7302326,28.3710407 75.0976744,29.0045249 72.7116279,29.0045249 C70.0744186,29.0045249 67.6883721,28.1176471 65.9302326,26.3438914 C64.172093,24.6968326 63.2930233,22.2895928 63.2930233,19.6289593 C63.2930233,14.1809955 67.1860465,10 72.4604651,10 C74.8465116,10 76.6046512,10.6334842 78.3627907,12.0271493 L78.3627907,10.6334842 C78.3627907,10.5067873 78.4883721,10.3800905 78.6139535,10.3800905 L84.2651163,10.3800905 L84.2651163,10.5067873 Z M54.1255814,10.1266968 C57.1395349,10.1266968 59.4,11.3936652 60.4046512,13.5475113 C60.9069767,14.8144796 61.1581395,16.2081448 61.1581395,18.6153846 L61.1581395,28.8778281 C61.1581395,29.0045249 61.0325581,29.1312217 60.9069767,29.1312217 L55.255814,29.1312217 C55.1302326,29.1312217 55.0046512,29.0045249 55.0046512,28.8778281 L55.0046512,19.1221719 C55.0046512,16.4615385 54.1255814,15.321267 52.1162791,15.321267 C50.9860465,15.321267 49.855814,15.8280543 49.227907,16.4615385 C48.6,17.0950226 48.4744186,17.7285068 48.4744186,18.9954751 L48.4744186,28.7511312 C48.4744186,28.8778281 48.3488372,29.0045249 48.2232558,29.0045249 L42.572093,29.0045249 C42.4465116,29.0045249 42.3209302,28.8778281 42.3209302,28.7511312 L42.3209302,10.760181 C42.3209302,10.6334842 42.4465116,10.5067873 42.572093,10.5067873 L48.2232558,10.5067873 C48.3488372,10.5067873 48.4744186,10.6334842 48.4744186,10.760181 L48.4744186,12.4072398 C50.2325581,10.760181 51.8651163,10.1266968 54.1255814,10.1266968 Z M39.1813953,10.5067873 C39.3069767,10.5067873 39.4325581,10.6334842 39.4325581,10.760181 L39.4325581,28.7511312 C39.4325581,28.8778281 39.3069767,29.0045249 39.1813953,29.0045249 L33.5302326,29.0045249 C33.4046512,29.0045249 33.2790698,28.8778281 33.2790698,28.7511312 L33.2790698,10.760181 C33.2790698,10.6334842 33.4046512,10.5067873 33.5302326,10.5067873 L39.1813953,10.5067873 Z M30.7674419,10.5067873 C30.8930233,10.5067873 30.8930233,10.5067873 31.0186047,10.6334842 C31.0186047,10.6334842 31.144186,10.760181 31.0186047,10.8868778 L24.3627907,28.8778281 C24.3627907,29.0045249 24.2372093,29.0045249 24.1116279,29.0045249 L18.5860465,29.0045249 C18.4604651,29.0045249 18.3348837,29.0045249 18.3348837,28.8778281 L15.4465116,20.3891403 L12.3069767,28.8778281 C12.3069767,29.0045249 12.1813953,29.0045249 12.055814,29.0045249 L6.78139535,29.0045249 C6.65581395,29.0045249 6.53023256,28.8778281 6.53023256,28.8778281 L0,10.8868778 C0,10.760181 0,10.760181 0,10.6334842 C0,10.5067873 0.125581395,10.5067873 0.251162791,10.5067873 L5.90232558,10.5067873 C6.02790698,10.5067873 6.15348837,10.6334842 6.15348837,10.6334842 L9.54418605,20.7692308 L13.3116279,10.6334842 C13.3116279,10.5067873 13.4372093,10.5067873 13.5627907,10.5067873 L17.2046512,10.5067873 C17.3302326,10.5067873 17.455814,10.6334842 17.455814,10.6334842 L21.2232558,20.8959276 L24.8651163,10.6334842 C24.8651163,10.5067873 24.9906977,10.5067873 25.1162791,10.5067873 L30.7674419,10.5067873 Z" id="Shape"></path>
                    <path d="M116.622494,5.6244518 C116.622494,4.75328917 117.73003,4.00657835 117.976149,2.88651211 C118.099209,2.13980128 117.73003,1.39309045 117.237792,0.895283233 C116.745554,0.397476015 115.884137,0.0241206011 115.26884,0.148572406 C114.038244,0.397476015 113.299887,1.51754226 112.56153,1.51754226 C111.823173,1.51754226 110.838696,0.27302421 109.73116,0.0241206011 C108.992803,-0.100331203 108.254446,0.27302421 107.762208,0.770831428 C107.26997,1.26863865 106.900791,2.13980128 107.023851,2.7620603 C107.26997,4.00657835 108.377506,4.75328917 108.377506,5.5 C108.377506,6.24671083 107.26997,7.11787346 107.023851,8.2379397 C106.900791,8.98465053 107.26997,9.73136135 107.762208,10.2291686 C108.254446,10.7269758 109.115863,11.1003312 109.73116,10.9758794 C110.961756,10.7269758 111.700113,9.60690955 112.43847,9.60690955 C113.176827,9.60690955 114.038244,10.7269758 115.14578,10.9758794 C115.884137,11.1003312 116.622494,10.7269758 117.114733,10.2291686 C117.606971,9.73136135 117.976149,8.86019872 117.85309,8.2379397 C117.73003,7.24232526 116.622494,6.49561444 116.622494,5.6244518" id="Path"></path>
                </g>
            </g>
        </g>
    </g>
</svg>