<?xml version="1.0" encoding="UTF-8"?>
<svg width="350px" height="142px" viewBox="0 0 350 142" version="1.1" xmlns="http://www.w3.org/2000/svg" xmlns:xlink="http://www.w3.org/1999/xlink">
    <!-- Generator: Sketch 53.2 (72643) - https://sketchapp.com -->
    <title>Group 4 Copy 10</title>
    <desc>Created with Sketch.</desc>
    <g id="Web" stroke="none" stroke-width="1" fill="none" fill-rule="evenodd">
        <g id="About-us" transform="translate(-545.000000, -6276.000000)">
            <g id="Group-4-Copy-10" transform="translate(545.000000, 6276.000000)">
                <rect id="Rectangle" fill="#FFFFFF" x="0" y="0" width="350" height="142"></rect>
                <g id="Group-27" transform="translate(85.000000, 50.000000)">
                    <path d="M48.2410976,14.2247977 C44.7526229,14.2247977 42.3840011,17.2246034 42.3840011,21.0675947 C42.3840011,22.5843962 42.8000729,24.3033992 43.7600259,25.5166073 C44.8804322,26.9663969 46.6404382,27.741405 48.3689069,27.741405 C50.0652849,27.741405 51.9215629,27.1348009 53.0419691,25.5166073 C53.8420222,24.3709938 55.7624815,25.685594 54.6741659,27.0001942 C53.1055972,29.0227905 50.705438,30 48.3368162,30 C45.9366571,30 43.503854,28.9551959 41.9037479,27.0001942 C40.5598137,25.247394 39.88757,22.8541923 40.0153793,20.3933959 C40.2715512,15.4047912 43.6322166,12 48.4972695,12 C50.8011567,12 52.6579879,12.8093882 54.3859033,14.8651991 C55.314319,15.9775979 53.5858503,17.3930074 52.6900786,16.2811913 C51.4734004,14.7976044 49.8412037,14.2247977 48.2410976,14.2247977" id="Fill-1" fill="#020203"></path>
                    <path d="M70.6218796,21.7433104 L70.6218796,19.1954408 C70.6218796,16.0030772 68.3738434,14.3578336 65.4421609,14.2290463 C63.1293642,14.1967101 60.7839056,15.4221406 59.8721895,17.679542 C59.578796,18.3569297 59.4160499,19.227777 59.383388,20.0662882 C59.3180643,22.162566 60.0022737,24.0977204 61.7615085,25.5489468 C62.7385482,26.2904494 63.910996,26.6779262 65.1166687,26.7743773 C68.1136749,26.7743773 70.4585703,24.9685677 70.6218796,21.7433104 L70.6218796,21.7433104 Z M61.9895783,12.6166964 C63.0646036,12.1327685 64.2370513,11.971645 65.4748228,12.0039812 C67.3314799,12.0357599 69.4488687,12.6166964 70.6218796,14.5189571 L70.6218796,13.2935266 C70.6218796,12.6166964 71.0453573,12.1327685 71.7948904,12.1327685 C72.5111985,12.1327685 73,12.6166964 73,13.2935266 L73,27.6128885 C73,28.3226123 72.5111985,28.7736466 71.7948904,28.7736466 C71.0453573,28.7736466 70.6218796,28.3226123 70.6218796,27.6128885 L70.6218796,26.0646535 C69.6769385,27.9351354 67.2667193,29 65.3447385,29 C63.7809117,29 62.0222401,28.5807444 60.6538213,27.6128885 C58.1782784,25.9358662 56.907282,23.1945369 57.0052676,20.0339519 C57.0705913,16.776916 58.8945866,13.7774545 62.0222401,12.5843602 L61.9895783,12.6166964 Z" id="Fill-3" fill="#020203"></path>
                    <path d="M79.2015545,14.8168155 C80.1937818,12.5969334 82.054409,12 83.8217636,12 C84.5352452,12 85,12.3975737 85,13.1600674 C85,13.8887616 84.5352452,14.2869082 83.8217636,14.2869082 C80.6279818,14.2869082 79.2637363,17.0040438 79.2637363,20.3513395 L79.2637363,27.8405055 C79.2637363,28.535973 78.7362637,29 78.1471455,29 C77.4652908,29 77,28.535973 77,27.8405055 L77,13.1600674 C77,11.7021061 79.2015545,11.5691997 79.2015545,13.1600674 L79.2015545,14.8168155 Z" id="Fill-5" fill="#020203"></path>
                    <path d="M100.616229,19.1030462 C100.616229,16.0679195 98.1997178,13.9566758 95.5551596,13.9566758 C92.3878991,13.9566758 89.4165108,16.2002287 89.4165108,19.5980649 L89.4165108,27.812069 C89.4165108,28.5380585 88.9920268,29 88.2407126,29 C87.489963,29 87,28.5380585 87,27.812069 L87,8.0518089 C87,6.63290714 89.4165108,6.66598444 89.4165108,8.0518089 L89.4165108,14.9797906 C90.5917446,12.6700832 93.1386488,11.7131229 95.5878991,11.7131229 C99.375516,11.7131229 103,14.3524627 103,19.1030462 L103,27.812069 C103,28.5380585 102.575516,29 101.824202,29 C101.106192,29 100.616229,28.5380585 100.616229,27.812069 L100.616229,19.1030462 Z" id="Fill-7" fill="#020203"></path>
                    <path d="M109.3327,19.9650547 L121.69617,19.9650547 C121.466566,17.2030405 119.76126,15.090945 117.203301,14.441588 L117.236182,14.441588 C116.154492,14.148928 114.809749,14.148928 113.69461,14.4736065 C111.070888,15.1561054 109.529422,17.3333613 109.3327,19.9650547 L109.3327,19.9650547 Z M117.924994,12.3289308 C121.630974,13.33667 123.926448,16.3256221 123.992211,20.4852144 L123.992211,20.4526342 C124.057407,21.1677134 123.729725,21.9473912 122.384983,21.9473912 L109.430778,21.9473912 C109.857671,24.6116648 112.153145,26.8215009 115.432231,26.8215009 C116.940815,26.8215009 118.515162,26.431662 119.794709,25.456503 C120.942162,24.4167454 122.647468,25.7491631 121.368489,27.0490005 C119.859905,28.4460169 117.662509,29.0307752 115.530876,28.9987568 C112.972916,28.9987568 110.415524,28.0235978 108.873492,26.1064218 C105.33192,21.4923919 106.873385,14.0191689 112.972916,12.3289308 C114.514382,11.8744932 116.284884,11.9065117 117.892113,12.3289308 L117.924994,12.3289308 Z" id="Fill-9" fill="#020203"></path>
                    <path d="M129,27.8801014 C129,28.5058099 128.561449,29 128.013498,29 C127.411082,29 127,28.5058099 127,27.8801014 L127,8.11932921 C127,7.49362077 127.411082,7 128.013498,7 C128.561449,7 129,7.49362077 129,8.11932921 L129,27.8801014 Z" id="Fill-11" fill="#020203"></path>
                    <path d="M135.378337,19.4303762 L135.378337,22.0392283 C135.378337,24.9449302 137.593913,26.9926222 140.557963,27.124492 C142.871534,27.124492 145.184541,25.8697311 146.129005,23.5914097 C146.38976,22.897809 146.585186,22.0061182 146.61785,21.1475375 C146.650515,19.0010859 145.966244,17.0196142 144.207412,15.5336531 C143.262385,14.7744029 142.089267,14.3776519 140.851383,14.2788923 C137.88677,14.2788923 135.378337,16.1941437 135.378337,19.4303762 M140.655958,29.4028134 C138.473047,29.4028134 136.355465,28.5111226 135.378337,26.7614219 L135.378337,33.8606966 C135.378337,35.3797678 133,35.3797678 133,33.8606966 L133,13.3540913 C133,12.6273804 133.456181,12.1986609 134.205782,12.1986609 C134.95482,12.1986609 135.31357,12.6273804 135.31357,13.3540913 L135.31357,14.9062727 C136.421358,12.8585807 138.701137,12 140.655958,12 C141.665751,12 142.773539,12.1986609 143.783896,12.6273804 L143.750668,12.5948411 C147.302122,14.0808022 149.094182,17.349574 148.996187,21.1800768 C148.865528,25.8697311 145.542727,29.4028134 140.655958,29.4028134" id="Fill-13" fill="#020203"></path>
                    <path d="M154.333228,19.9650547 L166.696628,19.9650547 C166.466458,17.2030405 164.761728,15.090945 162.203784,14.441588 L162.236098,14.441588 C161.154414,14.148928 159.809679,14.148928 158.694546,14.4736065 C156.070839,15.1561054 154.529949,17.3333613 154.333228,19.9650547 L154.333228,19.9650547 Z M162.924906,12.3289308 C166.630865,13.33667 168.926325,16.3256221 168.992088,20.4852144 L168.992088,20.4526342 C169.057851,21.1677134 168.730171,21.9473912 167.384869,21.9473912 L154.431305,21.9473912 C154.858196,24.6116648 157.153657,26.8215009 160.432724,26.8215009 C161.941299,26.8215009 163.51507,26.431662 164.79461,25.456503 C165.942624,24.4167454 167.647353,25.7491631 166.368381,27.0490005 C164.859806,28.4460169 162.662422,29.0307752 160.531368,28.9987568 C157.973424,28.9987568 155.415479,28.0235978 153.873456,26.1064218 C150.331904,21.4923919 151.87336,14.0191689 157.973424,12.3289308 C159.51488,11.8744932 161.285373,11.9065117 162.892592,12.3289308 L162.924906,12.3289308 Z" id="Fill-15" fill="#020203"></path>
                    <path d="M174.201166,14.8168155 C175.193996,12.5969334 177.054212,12 178.821685,12 C179.535214,12 180,12.3975737 180,13.1600674 C180,13.8887616 179.535214,14.2869082 178.821685,14.2869082 C175.627689,14.2869082 174.263352,17.0040438 174.263352,20.3513395 L174.263352,27.8405055 C174.263352,28.535973 173.73638,29 173.146686,29 C172.464786,29 172,28.535973 172,27.8405055 L172,13.1600674 C172,11.7021061 174.201166,11.5691997 174.201166,13.1600674 L174.201166,14.8168155 Z" id="Fill-17" fill="#020203"></path>
                    <path d="M17.5,31.8845892 C9.45237,31.8845892 2.92797975,25.3983279 2.92797975,17.3977288 C2.92797975,9.39712971 9.45237,2.91086844 17.5,2.91086844 C25.54763,2.91086844 32.0720202,9.39712971 32.0720202,17.3977288 C32.0720202,25.3983279 25.54763,31.8845892 17.5,31.8845892 M17.5,0 C7.83479061,0 0,7.78900357 0,17.3977288 C0,21.3957409 1.3564197,25.0786471 3.6366774,28.0163939 C6.83732168,32.1402195 17.7496549,42 17.7496549,42 C17.7496549,42 28.066613,32.1905449 31.2707087,28.134773 C33.6067648,25.1775823 35,21.4494976 35,17.3977288 C35,7.78900357 27.1652094,0 17.5,0" id="Fill-19" fill="#020203"></path>
                    <path d="M17.5,31.8845892 C9.45237,31.8845892 2.92797975,25.3983279 2.92797975,17.3977288 C2.92797975,9.39712971 9.45237,2.91086844 17.5,2.91086844 C25.54763,2.91086844 32.0720202,9.39712971 32.0720202,17.3977288 C32.0720202,25.3983279 25.54763,31.8845892 17.5,31.8845892 Z M17.5,0 C7.83479061,0 0,7.78900357 0,17.3977288 C0,21.3957409 1.3564197,25.0786471 3.6366774,28.0163939 C6.83732168,32.1402195 17.7496549,42 17.7496549,42 C17.7496549,42 28.066613,32.1905449 31.2707087,28.134773 C33.6067648,25.1775823 35,21.4494976 35,17.3977288 C35,7.78900357 27.1652094,0 17.5,0 Z" id="Stroke-21" stroke="#020203" stroke-width="2.779" stroke-linecap="round" stroke-linejoin="round"></path>
                    <path d="M10.5,16 C10.2243963,16 10,16.2248127 10,16.5004163 C10,16.7756037 10.2243963,17 10.5,17 C10.7756037,17 11,16.7756037 11,16.5004163 C11,16.2248127 10.7756037,16 10.5,16" id="Fill-23" fill="#020203"></path>
                    <path d="M25.6663103,17.0385636 C25.4683209,17.0385636 25.3084711,16.8751683 25.3084711,16.6746378 C25.3084711,16.295858 25.0061586,15.9879208 24.6342975,15.9879208 C24.2629972,15.9879208 23.9612456,16.295858 23.9612456,16.6746378 C23.9612456,16.8751683 23.8008349,17.0385636 23.6034063,17.0385636 C23.4059778,17.0385636 23.246128,16.8751683 23.246128,16.6746378 C23.246128,15.8942257 23.868701,15.2589267 24.6342975,15.2589267 C25.4004548,15.2589267 26.0241496,15.8942257 26.0241496,16.6746378 C26.0241496,16.8751683 25.8642998,17.0385636 25.6663103,17.0385636 M22.5820501,18.3080188 C20.7205008,19.3552336 18.9705659,19.7048766 17.4634906,19.7048766 C14.4543879,19.7048766 12.4133581,18.310304 12.3830707,18.2891655 C12.2204165,18.1749031 12.1794725,17.9480922 12.291087,17.7824118 C12.4038232,17.6173026 12.6259303,17.5750255 12.7885845,17.6887166 C12.963578,17.8109774 17.057416,20.5829831 22.2365502,17.6698633 C22.4087393,17.5727403 22.6263594,17.6367272 22.7222693,17.8126913 C22.8176183,17.9892267 22.755361,18.2103244 22.5820501,18.3080188 M10.3151188,18.088635 C9.54952233,18.088635 8.92582759,17.4544787 8.92582759,16.6746378 C8.92582759,15.8942257 9.54952233,15.2589267 10.3151188,15.2589267 C11.0812762,15.2589267 11.7038492,15.8942257 11.7038492,16.6746378 C11.7038492,17.4544787 11.0812762,18.088635 10.3151188,18.088635 M27.6422785,16.3667007 C27.4543848,15.8565191 26.9316479,15.0715364 26.0482673,13.9740461 C26.6943971,13.6798204 27.3618402,13.0679453 27.3618402,12.417221 C27.3618402,11.7179351 26.4105935,11.3985717 25.5266521,11.3985717 C25.0650507,11.3985717 24.7414249,11.4905529 24.5641879,11.6705162 C24.4699606,11.7664966 24.3992902,11.8721893 24.3471287,11.9778821 C23.4160736,10.9323811 22.6398204,10.1194042 22.6314073,10.1102632 C22.5641021,10.0399918 22.4715574,10 22.3750867,10 L12.9058077,10 C12.813263,10 12.7240837,10.036564 12.6579002,10.1022648 C12.6478045,10.1114058 11.8020026,10.9443787 10.7985944,12.025301 C10.7408241,11.9030402 10.6611797,11.7807794 10.5534914,11.6710875 C10.3768153,11.4905529 10.0531895,11.3985717 9.5910272,11.3985717 C8.70764661,11.3985717 7.75583909,11.7179351 7.75583909,12.417221 C7.75583909,13.0793716 8.4255257,13.6889614 9.07726427,13.9791879 C8.24660608,14.9875536 7.70367757,15.7828198 7.45969626,16.3478474 C6.96388138,17.4973271 6.99080346,19.1067129 7.006508,20.068231 C7.00875151,20.2030606 7.01155589,20.3224648 7.01155589,20.4218731 C7.01155589,21.1348704 7.50737077,21.5673536 7.80183096,21.7615997 L7.80183096,23.635503 C7.80183096,23.8366048 7.96280254,24 8.16023109,24 L11.6034523,24 C11.80032,24 11.9607307,23.8366048 11.9607307,23.635503 L11.9607307,22.7196899 L23.2035014,22.7196899 L23.2035014,23.635503 C23.2035014,23.8366048 23.3644729,24 23.5613406,24 L26.8654644,24 C27.062893,24 27.2227428,23.8366048 27.2227428,23.635503 L27.2227428,21.6176291 L27.9025252,20.6309733 C27.9406648,20.5766986 27.962539,20.5127117 27.967026,20.4470108 C27.9743174,20.3361763 28.1425804,17.7252806 27.6422785,16.3667007" id="Fill-25" fill="#020203"></path>
                </g>
            </g>
        </g>
    </g>
</svg>