<svg fill="#F2F2F2" viewBox="0 0 488 311" version="1.1" xmlns="http://www.w3.org/2000/svg" xmlns:xlink="http://www.w3.org/1999/xlink"><path d="M322.821 288.256l.905-2.999-.335-.107-.82 2.996.25.11zm-28.287-192.17l-.314.065-.761 1.3-.58.521v.46l-.158.332.341.997.825.652.097.69.682-.176-.153-.074-.119-.849-.821-.65-.34-.992.158-.33v-.46l.577-.517.566-.968zm.59-.408l.068-.014.407-.235.059-.315-.442.069-.093.495zm11.064-3.844l.7.171 1.727 1.53.077.023-1.381-1.22-1.343-3.002.088-.541.259.048.024-.177.506-.557 1.766-.584-.361-.126-2.289.764-.504.553-.023.176-.254-.048-.087.54 1.095 2.45zm4.198-4.001l.407.244.335-.016.085-.2-.008-.222-.107-.128-.712.322zm2.416.696l.194.061.526-.16.064.128.45-.268-.052-.193.407-.176-.152-.666 2.462-.284.505-.158-.071-.19h-.096l-1.265.396-2.451.288.15.664-.404.176.052.188-.319.194zm5.293-1.872l.088.234 2.044-.682.096-.176.378.16.949-1.11.259-.525-.323-.429.494-.38.195-.35.088-.588-.064-.193-.195-.096-.235.397-.267-.064.075-.397-.203-.349-.657-.573 1.602-.605v-.253l.298-.38.387-1.099.303-.332.665-.209.462.064.657-.192 1.12-2.084-.375-.381-.17-.525-.268-.253-.02-.62.235-.97-.645-.414.108-1.226-.291-.794-.204-.016-.195-.284-.828.08-.052-.413-.785-1.752-.227-.793-.235-.413-.355-.032-.127-.128.45-.59.645-.24.407-.862.84.209.303-.986.367-.016.227-1.928.342-1.195.538-.208.721.128.152-.32.215-1.531-.06-.114-.189 1.32-.15.317-.72-.127-.538.206-.342 1.177-.227 1.901-.366.016-.302.972-.836-.205-.406.85-.644.237-.45.58-.386-.628-.366-1.569-.62-.344-.72-.988-.784-.423-1.182-.063-.259-.11.108-.47.334-.364.557-1.13-.16-1.712.216-.439-.538-.36.014-.032-.775-.018-.17.412.535.368-.214.444.163 1.737-.56 1.145-.329.364-.107.476.258.112 1.174.064.781.432.718 1 .623.349.361 1.593.389.636.127.124.353.032.234.416.226.793.781 1.749.052.412.825-.08.194.288.202.016.29.792-.107 1.225.642.412-.234.969.02.62.266.256.174.524.373.38-1.114 2.082-.65.188-.46-.064-.667.208-.298.332-.384 1.096-.302.38v.257l-1.594.6.654.572.202.348-.075.4.27.06.234-.396.194.097.064.192-.088.584-.194.352-.492.38.321.428-.253.525-.945 1.108-.372-.16-.1.176-1.189.399zm.41-28.554l.428.01.78-.073v.168l.363.189.226-.047.355-.423v-.237l-1.158.11-.203-.174-.828-.063-.505-.344.056-.126-.494-.755.398-.253.108-.692-.764-.723-.43-1.273-.183-.031-.43-.581-.063-.364-.557-.047-.152-.222.12-.332-.12-.422.16-.19.075-.708 1.265-.486-.083-.423-.406-.174.056-1.54.203-.756.163-.126.107-1.119-.14-.38.108-.612-.159-.142.203-.945-.095-.19-.828-.22-.171-.159-.151.095-.374-.269-.27.222-.988-.439-2.212-.063-.998-.518-.032-.454h-.171l-.02-.206.12-.126-.172-.016-.227-.534-.278-.19.056-.094-.613-1.795h.127l-.025-.115-.948-.015.051.236h-.127l.611 1.82-.055.097.277.192.226.54.171.016-.119.128.024.208h.17l.032.46.996.529 2.205.064.984.444.27-.22.372.268.15-.096.172.16.825.224.095.192-.203.957.16.144-.108.62.139.384-.107 1.129-.159.128-.202.764-.056 1.565.409.172.083.432-1.261.493-.076.716-.162.192.119.432-.12.333.151.224.56.048.063.364.429.592.182.032.428 1.289.758.732-.107.7-.397.257.492.764-.051.124.503.352.825.064.15.127zm-8.65-19.496l.811.013.442-.443.815-.047.088-.063-.032-.38-.708.048.044-.459-.645.032.012-.518-.127-.016.095-.3-.827-.38-.128.348-.752-.284-.008.035.782.36-.095.305.127.016-.012.528.643-.032-.04.46.702-.044.036.38-.087.065-.813.048-.323.328zm-1.026-2.258l-.124-.096-.12.19-.195-.096-.01.03.385.149.064-.177zm-1.377.13l-.136-.037.12-.474-.367-.11.171-.724-.589-.174.12-.3.322.11.056-.205-4.647-1.545-.87.053 4.595 1.552-.052.208-.32-.112-.12.304.591.172-.174.736.364.112-.119.48.782.205.206-.048.067-.204zm-6.508-3.379l-.093-.586-.152-.08.354-.553-.226-.047-.152-.3-.194-.095-.16-.348-.012-.443-.266-.174.064-.553.258.048.088-.174.203.015.12-.713-.788-.78-.183.257.087.416-.138.828-.207-.016-.083.176-.258-.048-.063.56.266.177.011.444.16.352.193.096.151.304.222.048-.353.557.151.08.095.608.905-.056zm.798-3.948l.103.101.023-.026-.126-.075zm4.148 2.3l1.016.252-.14-.427.28-1.53.934-.458-.19-.364.278-.316-.27-.269.087-.253.107-.016-.075-.41.29-.238.227.016.056-.237.215.032-.012-.19.461-.474-.052-.127.29-.506-.05-1.434-.43-.238-.872-.19-.525-.315-.505-.08.087-1.37-.215-.064.14-.6h-.954l-.119.52.214.065-.087 1.388.504.08.524.32.868.193.429.24.055 1.452-.29.513.052.128-.46.48.012.192-.214-.032-.056.236-.222-.012-.29.236.076.417-.107.016-.088.256.27.272-.277.32.19.364-.932.464-.278 1.55.048.149zm-.454-9.894l-.121-.055-.017.055h.138zm-2.303 2.432l-.034-.005-.087.072.07.01.051-.077zm-2.76 1.269l-.02-.089-.664.08-.151.126-.057-.026.047.218.416.128.278-.416.15-.021zm-1.298-.094l-.023-.01-.589-.064-.168.09.324.147.147-.128.309-.035zm-1.675-.042l-.03-.032-.053-.268-.656.347-.205-.133.002.007.202.204.321.096.419-.221zm-1.191-.247l-.276-.18-.032-.174h-.227l-.063-.19-.526-.063-.461-.253-.259-.6-.15-.032.023-.221-.589-.538-.247-.79.12-.585-.16-.727-.942-.538.075-1.344-.107-.142-.62-.063.011-.048.955.032.816-.427.696-.6.171-.38.29-.237.633.205.708.676.394.02-.103-.12h-.333l.012-.802-.877-1.934-.182-.11-1.186.361.095.362-.075.11-.556.032-.182-.032-.642-.566-1.285-.204-.258.503.107.597.17.158.663.078.321.189.107.409-.159.755-1.611.54.389.31.623.064.107.144-.076 1.356.94.545.163.736-.119.592.246.8.591.541-.024.224.15.032.259.608.46.257.523.064.064.192h.226l.032.176.726.48.46-.248zm-9.285-6.585l-.08.162.172.688.03-.348-.122-.502zm-1.662 3.38l-.056.383.095.393.46.66-.428.11-.396-.424-.203-1.364-.119-.094-.599.031-.674.786-.258-.047-.226.11-.694.614-.428.125-.686-.346-.405-.015-.31-.252-.17-.503-.182-.126-.302.016-.769.22-.321.22-.44.032-.076.314-.34.079-.12.314.12.865-.695-.362v-.487l-.095-.079-.718.456.063.268.258.22.056.377.29.55-.013.551-.32.362-.302.125-.417-.015-1.047-.456-.428.157-1.594-.031v.833l-.266-.173-.194.063-.16-.393-.586.126-.15-.708-.247-.173-.46-.063-.234.142.012.235.46.236.064.205-.183.204-.428.095-.087.188.095.126.535.094.02.126-.127.047-.579-.063-.301-.204-.385-.975-.02-.456.472-1.081-.353-.047-.876.676-.417-.267-.793.031-.484-.362-.46-.094-1.329-1.427-1.253.031-.694-1.226.056-.425.202-.267.837-.252.535-.629-.92-1.572-.278-.236-.396-.047-.02-.409 1.297-1.73.995-.361.833-.944.504-.157.353-.66.396-.08.782.095-.052-.613.278-.519-.397-.173-.139-.204-.234-.881.032-.377.524-.315.226-.503-.052-.456.984-.786.888-1.526.952-.707.15-.362.417-.283.663.236.686-.456.376.031.762-.471.833.77.182.016.202-.786.353-.425.782.079.34-.346 1.659-.708h.277l.813.629.107.456.151.094.555-.393.62-.188.158-.283-.302-1.164-1.154-.378-.127-.235.107-1.718.246-.44.226-.095.353.142.226.267.337.853.322-.016 1.007-.409.333.378.302.126.579-.504.737.016.718.189.492.393.024.55h.277l.096.173-.448 1.384.277.88.353.551-.416 1.415.555.488.341.755.17.094.278.031.908-1.006.504-.032.246-.377-.17-.283.717-.598-.051-.188-.484-.11.246-1.353-.46-.44-.095-.252.257-.974.333-.173.195-.614.277-.11.365.142.234.409.012.361-.15.22.555.268.17.424.567.11.472.283h.226l.365-.235.14.314.225.11.064.63-.052.408-.139.126.567.55-.372.409.579 1.384-.084.44.516.55.385-.125.194-.55.333-.11.405-.347.353-.047.503-.362.643.236.31-.063.094.346.417.173.321.614.984.833-.088.409.183.22-.258.299-1.348.015-.14.236-.289.032-.17.503-.417.314-.404 1.762.567 1.038.61.047.02.157.794.22.535.425-.654.849.043.393-.436 1.337-.033.306.75-.22 3.35.71 1.376.728 1.397 1.217.438.169v-.001l.373-1.321.376-.393.568.031.301-.346-.31-.424-.888-.063v-.802l-.63-.472-.801.094-1.638-.377-.044-.252.385-.849-.278-.707.15-.19.31.064.278-.566.365.125.309-.566.738-.471.246-.048.654.283-.194-1.195 1.134-.471.127-.016.087.173-.012.96.234.172-.095.275-.278.016-.202.22-.012-.189-.139.41.805.14.385.441.258.582.246.11-.226.535.662.33.365-.047.397-.378 1.241.3.226.235.182.739.234.393.504-.173.63.126.75-.142.504.173-.29.394.151.125-.139.378.31-.063.34.22-.213.468-.611-.079-.44.205.246-.488-.31-.267-.214.236-.246-.33-.234.345-.472-.062-.095.125.063.142.536.078.19.346-.127.394-.46.314-.043.315-.107.015-.151.346.127.205-.064.125.782.11.944.724.686 1.274.194.629.027.443h.016l.525.3.259-.158.644.127 1.333.917.871-.08 4.05-1.307.904-.411 2.546-1.324.303-.285 4.273-2.415.728-.19 2.857.554 1.858.521 1.118.095 1.372-.126 2.642 1.296.72.585 2.137.617.827-.506.74.126.633.601.259.506.322.316.386.095-.032.126 1.03.143.697-.332 29.924 14.619 4.058.676.453.506-7.332 7.81-.923.723-.999 1.118-1.265.332.032.253-.215.581-.334.269.095.3-.171.206.064.284-.203.407-.247.048.024.407-.437-.126.115.235.494.145-.02-.413.247-.048.203-.413-.063-.289.171-.208-.096-.305.335-.272.215-.59-.032-.256 1.271-.337 1-1.134.925-.733 7.342-7.92.817 1.118-.062.07 2.953 3.824-4.468 3.747-3.64 2.404.054.216 3.72-2.49 4.475-3.8 2.299 3.035-.084.878.203.797.55.622 1.183.942.805 1.37.805 1.884.267.176.55.033.235-.365.183-.702.12-.128.215.032.235.16.442.942.366.43.969.368 1.625.144 1.526.622.127.412-.095.43-1.28 1.37-.194.32-.012.686.633 2.136.064 2.073.817 1.418.259.24.924.43.323.348v1.435l-.482 1.066-.475.493-1.087.67-2.183.144-.85.305-.17-.129-2.04 2.325-.526.906-1.108 3.96-.657 1.335-2.785 2.1-.374.745-.367 1.48-.45.921-1.697 1.431-.152 1.7-1.012 2.857L382 91.78l-.374 1.828-1.088 2.557-.374 2.08.526 2.902.924 2.253.849 1.174.235.714 1.075 5.547-.032 1.062-.342 1.25-.387.506-2.02 1.647-2.298 1.567.012.681.31 1.17.45 1.047 2.893 4.349.526 1.583.904 1.627 2.176 2.716.443-.088-2.629-3.288-.902-1.631-.525-1.58-2.888-4.353-.45-1.043.657-.553.096.742.17.332.172.049.74-1.155.656.393.127-.06.056-.397.43.128.997-.128.418-.521 1.686-.461.557-.285.708.237.879 1.11.1.886.385.333H388l.792-.397 1.256-.285h.482l1.042-.633.688-.269.537-.46.417.192 1.225 1.17.235-.032.354.189.91.16.53-.144.33-.285.366-.854 1.44.189.747-.205.764.016.859-.489.15.06.267.666.537.429 1.17.44.902-.172.096.3-.33.302.075.16.235.268 1.018.554.998-.032.923.316.56-.08.709.822.361.08 1.301-.128.525-.205 1.523.08 1.225 1.059.955.585.966.966.366-.096.537.225 1.277 1.058.46.22.204-.016.278-.284 1.213-.253.322-.172.537-.886.871.317 1.126.08.215.521-.601.585-.41.048-.008.538.406.677 1.46.87.366 1.708-.57.445-.29.489.044.349-.946 1.074-.14.441.152.3-.537.963.334.537.505.38-.283.963-.17.22.27 1.52.278.096-.354.597v.193l.096.092.29-.08.967.509.652.156.43.3.13.302.64.28.593-.044.708.818 2.16 1.17.847.125.342-.253.891-.3.6.477.355.032.493-.16.397-.35h.195l.299.285.183.634-.052.725.728.112.258.41.593.015 1.038.538.41-.237.568-.016.31-.236.108.064.087.36.987.947.405.886.752.204.302.822 1.042.818-.131.677.032.93.453.601.537.189 1.567-.189.887.285.453-.172.128.236.417.28-.071.49.147.633.592.457.386.457.16.393.27.189.708-.109.62-.3.175-.49.203-.015.14-.189.437.157.182-.093 1.142.077.557-.33.095-.268 1.01.173.191.392.72-.58.593.111.33-.505.569-.016.485-.268.127-.473.803-.646.366-.633.525.048.537.285.955-.16.644-.281.529.156.783-.016-.067-.457.195-.349.266-2.08-.04-.205-.731-.681-.152-.313.088-.397-.127-.345.405-.204.398-.698.398-2.096.525-.586-.12-.693.044-1.123.108-.128 2.426.413 2.8.914.644.505.29-.613.27-.177.772-.124.684.048.1-.096.02-.806-.645-.63-.525-.757v-.269l.215-.316-.032-.65.203-.473 1.074-.172.27.06.525-.409.247-.774-.032-.713.147-.457.505-1.183.537-.697-.063-.666.365-.092.235-.237.195-.886.827-.413 1.814.237 1.48-1.471.46.016.923.493.398.838.652.645.497.714.708.332.116.253.68.521-.024.806-.406 1.407.02.22.41.41.266.208h.943l.075.269.175.092.9.208.687-.064.128.3 1.364.662.473.682.203.016.107.204 1.372.521-.214.237-.203.774.095 1.499-.43 1.435-.48.682.095.332-.084.914-.238.506v.93l-.975.902-.15.264.385.505.235 1.215-.108 1.199-.234.681.31 1.167-.147.156.147.838-.684 1.21.127.586-.076.425-.676.505-.203.377v.3l.259.614-.378.521.096.898-.848 1.984-.855.979-1.217.092-.791.429-.151.232.238.586.824.597 1.062 1.732.441 1.968-.012.49-.31.849-.43-.064-.258.112-2.8 2.297-.784.47.064.364.664.533.143.565.88.93-.172 1.307-.346.626-.847.252-.195.205-.835 1.764-.783.625-.215.565.056.614.5 1.56.108.973-.052 1.255.911 1.932.056 1.023.17.344.303.157.513.032 1.054-.457 2.22-.189.695-.2 1.882 1.491 2.875 2.827-.012.328-.461.421-.247.521.31 1.271-.33.986.322.566-.302 1.022-.032.577-.62.738-.183.505-.088.986.342.77-.64 1.299.108.785-.43.345-.732-.048-.203.112-.206.75-.609.722-.366-.377-.771-.173-.27-.172-2.2-2.257-.322-.156-.657.064-.815.862-.823.092-2.685-1.552-.803-.22-.784.032-.385-.108-.175.188-.259.878-.608.83-.346.237-.287-.14-1.054-1.18-1.706.63-.41-.377-1.232-.172-.096-.3.116-1.067-.502-.718-.246-.818-.283-.376-.922-.249-1.082-.738-.664.217-.645.597-.246.08-.796-.753-.194-1.32-.33-1.001 1.157-2.025.752-1.038-1.094-1.19-.72-1.055-.195-.441-.095-1.018-1.257.44-.6.722-.323.83-.505.597h-.19l-1.158-.63-.903-.027-.239-.537-.246-.157-2.466 1.492-1.483.332-.362.345-.84.249-.847.721-.342.129-1.384-.157-1.117-.63-.474.017-.246.846-.227 1.728.386 1.114-.084.862-1.062 1.006-1.042.06-.031.22.366.786-.259.894-.954.658-.486 1.179-.771.83-1.352.248-.43.69.076.473.525.577.43 1.54.03.544-.17.846-1.118 1.05.195.658.43.662-.386 1.218.386.802-.537.734-.064.376.943 1.099.246 1.11-.063.53-.645.69-.537.893.032.517-.278.501.493.453 1.364.345.227 1.58.266.42.505.113.708-.269h.43l.334.361-.024.561.12.16 1.264-.204.41.249h.215l.998-1.047.386-.016.568.249.967-.718.405-.064.776.36.537.033.147.124.497.782v1.363l.116.34.89-.577.303-.064.62.814.032.47-.461.58.183 1.187-.084 1.175-.612.469-1.75-.032-.796.906-.513.405-.163 1.363.215 1.186-1.714 1.375-.55.076.088.955-.29.922-.076 1.294.128.41.7 1.014.374 1.45.998.546 1.225.906.179.718.453.545 1.094.485.215.236.02.357-.172.47.871.609-.023 1.45.548.39.386.465.6 1.375.045.405-.088.264-.418.437-2.282 1.92-.175.714-.354.642-1.17.761-1.471.265-.577-.233h-.644l-.784-.296-1.213-.093-.966.297-.891 1.123-.354.2-.354-.092-.74-.842-1.598-.95.095-.249.72-.545.183-.453.051-.61.581-1.138-.557-2.477-1.686-1.219-1.106-.61-3.058-.95-.708-1.154-.151-.842.783-.89.012-.36-.282-.514.346-.533.076-.513-.366.076-.247-.108-.89-.626-.677-.75.6-1.747.892-1.155.13-1.627-.182-.109-.84.109-.258-.076-2.148-1.845-.878-1.25-.052-.345.139-.47-.087-.184-.537-.156-1.961.826-.366 1.05-.461.233-.27-1.014-.558.044-.632-1.267-.557-.092-2.14 1.062-.556.97-.967.674-.258.028-.684-.233-1.46.092-.346.265-.684-.06-.354.092-1.523 1.672-1.408.453-.879.705-1.312.297-1.297 1.106-.783-.092-.323-.204-1.543-1.516-.41-.108-.377-.61-.975.221-.58.734-.537.2-.147.205.19 1.407-.835 1.014-.119.53.151.36.589.361.075.762-.15.549-.506.497-.406.718-.214 1.499-1.03.28-1.194-.34h-.437l-.656-.61-.406-.641-.505-.092-.215.108-.342.686-.807.08-2.188 1.591-.934.092-.979-.356h-.417l-.366-.253-.43-.545-.568-.217-.824-.14-.636.14-1.201-.064-1.555-.781-1.126-1.075-.453.217-.366.609-.203-.06-1.256-1.203-1.89-2.654-.031-.717-.716-1.159-.259-1.279.076-.485-.903-.765-.107-.22-.14-.562.012-1.11-1.662.015-1.396-.966-.851-.252-.02-1.187.266-.188.29-.47v-1.158l-.46-2.83-.836-.798-.131-.593.441-2.738.342-1.095-.02-.782-.373-1.41.04-.562.107-.313.517-.44.095-.217-.051-1.487-.171-.361-.315-.205-1.415-.016-.12-.156-.032-.501.195-.28.955-.049.302-.22.278-.846-.011-1.612.234-.345-.04-.3-.194-.076-.279.076-.644.705-1.877.83-1.205 1.68-.116 1.876-.795 1.082-.513.437h-.366l-1.181-.404-.891-.754-.557-1.159-.947-.453-.075-.377-.47-.577-.13-.613.055-.361.577-.641.024-.33-.665-.252-.6-.625-.175.016-.76.722-.549-.189-1.062.233-.258-.28-.398-.125-1.63.264-3.64 1.347-.676.048-.159.393.012 1.079-.346.549.354.878-.386 1.33.195 1.332-.119.577-.235.393-.612.501-1.376.265-.481.252-.108.249.012.753.171 1.327.406.722.87.641.74.75.915.048-.012.533.386.373.195 1.018-.258.578.182.377-.46.485.019.797.087.47.653.62-.481.955-.494 1.52.923 1.855 1.03.33.31.36.096.373-.084.36.247.486-.012.529-.513.657-.163.561.127.502.485.545.052.312-.708 1.516-.652.156-.29.453.19 2.341-1.244.983-.31.469-.223.75-.752.464-.259 1.311-.656.782-.032.918-.33.798.147.653-.183 2.762-.159.185-.342.096-.922-.205-.796.313-.795-.172.063 1.355-.266 1.31-.525.766-.947.169-.449.577-.72 2.43.183.765-.183.842-1.062 1.118-.386.61-.882-.28-1.062.264-.647-.088-.12.09-.636 1.053-1.036.435-.604.574-.38.188-.875 1.16-.876 1.629-.775.155-1.056.65-.476.527-.408.076-2.383 1.13-.02.681.604 1.221 1.1 3.144-.064.355-1.112 1.828.02.85-.14.45-1.875.571-.744-.247-.336.032-1.843 1.236-1.531.635-.192.295-.108.882-.84 1.021.044 1.377 1.024 1.129.507.881.184 1.808.408.758.216.91-.084.187h-.356l-.552.463h-.755l-.14.834-.408.447-1.176-.032-.076.231.184 1.13-.108.06-.271-.2-.216.031-.012.48 1.887.85.68.618.056 1.14-.216 1.39.064.215.463.14.408.414-.28 1.173.044.263.756.016.992.216.743-.048.844.834.992.108.064.123-.196.495.691.479.344.43.572-.263.236.076.108.371-.088 1.652 1.156-.463.4.678-.476.28-.172.415-.272.263-.236-.14-.216.06.28.447-.152.355-1.436 1.772-.355.183-.656-.048-.388.818-.216.156.064.215-.196.323-.096.663.292.893-.896 1.389-.56.538-.087.555.14.399-.02.371-.648 1.033.14.48.344.538v.247l-.82.076-.712-.215-.516.183-.527-.032-.776-.554-.852.478-.731-.06-.108-.522.755-.802.16-.507-.096-.275-.603-.232-.272-.339-.344.108-.26-.323-.196.048-.356.43-.292.14-1.415-.2-.084-.123.12-.323-.052-.355-.172-.232-.4.076-.084-.307-.216.14-.26-.2h-.452l-.623.2-.972.415-.508.618-.831.2-1.004.478-.012-1.524.304-.614 1.36-1.616.183-.63.68-.4.476-.031.636-.495.032-.231-.128-.264-.172-.076-.184.048-.064.307-.184.156-.368-.34-.116-.414.128-.507-.108-.231-.248-.016.152-.619-.368-1.388-.408-.618-.591-.2.064-.523.28-.538-.077-.619-1.77-3.283-1.024-1.11v-.694l.463-1.34-.088-.523-.463-.957-.572-.34-1.488-.031-.915-.324-.884-1.033-1.24-.91-1.023-1.667-.508-.264-.42-.403-1.155.016-.736-.419-2.191-.231-.236.108-.368.526-.324-.048-.088-.23.68-2.227 1.016-1.792.647-.742 1.524-.758.464-.558.088-.387.323-.216-.032-.387.324-.403-.216-.355.484.016.236-.215-.032-.34-.204.076-.356-.37.28-.667.128-.092 1.08.435 1.003-1.672.088-.387-.14-1.947-.66-.171-.623-.683-.572-.231-1.271-1.317-.14-.51-.552-.264-1.144-.881h-.236l-.367.574-.4.311-1.596.204-1.443-.946-1.196-.419-.196-.419-.203-.032-.204-.279-1.176-2.214-.128-.016-1.563 1.488-.84 1.317-1.435.032-1.424.263-.788-.124-.375-.435-.184-.65-.432-.076-.768.2-1.195-.667-.572-.957-.516-.559-3.355.28-.367-.092-.228-.447-.184-1.269-1.284-1.237.056-.682.572-.73.032-.822-.216-.14-.548.064-.592-.187-.247-.248-.204-.558-.304-.032-.496.215-.508-.45-.508-2.063-.591-1.085-.832-.232-.26-.882-1.36-.87-.311-.45-.776-2.793-.496-.28-1.487-.107-.788-.59-1.263-.667-.908-.2-.864-.031-.616-.232-.527-.419-.172-1.224-.216-.296-.884-.435-1.1-.2-.26-.665.153-.467.66-.79.723-.483.032-.156-.66-1.149-1.695-2.25-.28-.87-.528-.961.304-.42.876-.386.54-2.362 1.231-.435.192-.654.756-.559.248-.682.064-.746-.272-2.442.184-.483.551-.654.056-.263-.267-.543-.172-2.115-.452-1.149.032-.187.927-.934.076-.295-.863-1.213.496-.794.032-.499-1.164-1.416-.032-.483.408-.53-.464-.87.16-.264 1.048-.885.127-.36-.227-.374-.488-.124-.248-.81-.56-.28-.26-.31-.02-.36-.292-.654-.787-.375h-.528l-2.06.718-1.003.108-.628.45-.12.392-.464-.236-.3-.016-.171.563-.28-.048-.216-.403-.096.311-.216.064-.065-.347-.502.2-.569-.204-1.308.252-.732.624-.632 1.015-1.277 1.263-1.15.715-.373.408-.569.108-1.118-.124-.397.188-.322 1.167-.891.796-.418.64.052.111 1.547.592.708-.032.656.687.064.328-.227.795.334.636-.14.343-.946 1.188-1.682.791-.935 1.28-1.15-.405-1.212.404-.084.468.362.543.183.656-.127.451-.43.22.02.496-.159.08-.656-.188-.31.188.012.496-.12.143-.688.168-.815-.06-1.265.964-.278.687.071.748-.747.715-.144.715-.33.204.012.528-.139.468-.39.123-.278.344-.62.404-.506-.156-.302.048-.974.747-1.524.324h-.99l-1.309-.931-.19-.08-.537.08-1.762 1.415-1.126 2.07-.732.324-1.384 1.415-.72.252-.183.855-.803.372.076.264.48.048.518.527 1.32.36.322.324.88.128.127 1.023.278.763.573.216.76 1.323.914.184.438.296.537 2.206.732 1.103.222.064-.234.652.29.915 1.145 1.507.163.452v.447l-.29.328-.45.14-.238.62-.664.87-.064.792.398 1.303-.076 1.04-.27.511-.6.468-2.03.448-.385.14-.72.527-.115.216.04.575-.18 1.04-.922 1.195-.549.108-1.042.575-1.471.292-.557-.108-.676.08-.752.48-2.748.387-.45 2.774-.549.792-.127.635.302 1.919.537 1.147.084.512.238.463.267.232-.012.156-.537.436-.215.044-.417-.152-1.277 1.423.163.587.342.544-.815.803.222.652-.147.603-.998-.048-.171.096-.688 1.423-.024.772-.461.236-.525-.016-.772-.604-2.263.572-.41-.372-.354-.076-1.654.248-.923-.08-.62.216-1.162-.136-.214.248-.16.663-.87 1.083-.398.804-1.317.42-.15.183-.025.296.29.727.032.48-.04.244-.516.791.246.944-.195.403-.588.244-.191 1.131.02.756.708 1.035.095.34-.107.495-.418.572-.525.156-.417.4-.53-.724-.751.108-.74-.08-.696-.168-.58-.404-1.182-.291-1.253.663-.58.62-.525.092-.462-.324-.6-.975-.454-.34-.537-.06-1.276-1.38-.557-.011-1.277-.296-.226.032-.728 1.267-.712.264v.615l-.108.232-1.384.064-.386-.216-1.113-1.47-.056-.324.171-.264.14-.987-.287-.852-.958-.711-1.158-.14-.656-.292-.215-.28-.254-.771-.625-.915-.708-.74-.107-.404-.267-.031-1.71.975-.783.28-2.049-.312-1.042.404-1.372-.216-.771.032-.354-.128-.239-.26-.45-1.779-.44-.48-.57-.031-1.105.295-.9-.096-.496.22-.203.6-.279.388.096 1.143.314 1.379-.12.415-.397.512-1.921-.216-.644-.62-1.042.48-1.05-.523-.442.955-.684.08-.903.372-.783.803-.032.264.354 1.063-.247.744-.417.107-.378-.215h-.58l-.502.415-.593.188-1.05.975-.624.94-1.082.76-.322.415-1.17.48-.29-.033-.46-.415-.808.787.075.528-.879.88-.366.107-.258-.076-1.535-1.051-.589.076-.772-1.127-1.105-.588-1.75.648-.676-.092-.29-.092-.26-.62-.222-.216-1.579-.167-.708-.588-.879.987-.998 2.179-.676.34-1.289 1.59-.417.048-.315-.62-.202-.135-1.074.46-1.082-.26-.386.307-.366-.06-.624.368-.29.772-.438.34-.43.095-.517.724-.286.76.255 1.234-1.007.556-.497-.14-.783-.496-.525-.124-.537-.6.107-.339-.064-.188-.568.032-.235-.2-.024-.156.354-.415-.986-.572-.31.06-.581.42-.493.108-.84.495-.234.676-1.114.835-.485.54-1.201.156-.58-.2-.26-.388-.182-.803-.418-.772.088-.48-.088-.367-1.233-1.1-.6-.955-.024-.759-.33-.044-.979-.68.024-1.438-.314-.496-.784-.34-.954-1.25-.032-1.02-.76-1.175.116-.864.195-.311-.227-.944.044-.511-.342-.244-.828-.156-1.022-.528-.728-1.159-.087-.323.131-.404 1.523-.851-.417-.416-.561-.868-.374-.016-.12-.123.096-.788-.159-.108.064-.328-.108-.231-.568-.632-.223.124h-.815l-1.13-.727-.095-.156.139-.2-.493-1.95-1.118-.992-.441-.775-.406-.016-.804-1.627-.429-1.547-.947.124-.513-.56-.282-.511.239-.356.02-.544-.709-.48-.89.464-.76 1.383-.453.496-.537.34-1.353.28-.29.711-.974-.34-.589-.527-.282-.528.365-1.75.279-.28.024-.324.791-.884.454-.171-.315-.776.39-.695-.859-1.89.235-.157.234-.587.378-.312.299-.76.035-.263-.183-.576.665-1.583-.064-.276-.784-.123-.72.323-.397.016-.45-.355-2.875-.312-.7-.2-.298-.496-.537-.112-1.738.236-.358.308-.653-.636-.15-.435-.975.096-.239-.328-.29-1.723-.418-.963.247-1.331 1.308-1.383.776-1.555-.883-3.305.676-1.184.088-.371.342-.2.827-1.603-.127-.651.075-.344.203-.232.752-.204.374-.404.612-1.694.74-.2.676-.512.239-.423-.056-.56.525-.732.1-.651-.068-1.027.537-.916-.128-.731-.441-.376-.04-.451-.322-.232h-.366l-.505.36-.151-.112-.29-.56-.537-.216-.394-.563-.53-.152-.202-.284.107-.652-.417-.811-.334-.184-.279-.392-.43-.167-.72-.704-.75.096-.255-.172-.183-.967.095-.388-.31-.404-.947-.048-.266-.263-.676-1.747-.41-.324-.235-.515-.163-.64.132-.887.437-.516.613-.356 1.161-.14.6-1.015.506-.387.31-.484.087-.516-.43-.435-.011-.7.473-1.155 1.269-4.051-14.603-4.21-17.605-.375-9.965 6.182-18.26 8.497-.54.436-1.143 2.587-3.474-1.7-.788-.075-.515-.78-.756-.032-.991-.764-.756.436.121.168.174-.1.975.749.743.031.51.765.775.079 3.415 1.668-.71 1.453.297.133-1.339 2.895-.254.474 1.966.966.668.184.087 1.378.393.628-.668.702-.295.016-.362.459-.243.824.137.353.5.46.699 1.51 1.124 1.024.157.26-.169.352.762.55 1.136-.565.106-.185.393-.169.055-.38.413-.243.4-.809.457-.09-.181 1.055.306.29.543.048.786-.212-.319.777.224.09.118.962-1.529 2.884-.581.216-1.462 1.251-1.124.307-1.006.47-.837.824-.169-.121-.37.153-.825-.275-.318.122-.393.459-.287.063-1.474 1.373-.71.306-.689 1.083h-.389l-.837.656-.074.64.232 1.294-1.242 1.099-1.273.459-.869.55-.424.074-.657.58-.298.472-.932.58-.35.063-.361.334-.562-.456-.562-.121-1.984-.122-.456.26-.032-.99-.2-.38-.275-.032-1.568.444-.33-.196-2.13-.244-.17.09-.223 1.036-.256.365-.892.703-.126.38-.169-.074-.212-.502-.456-.318-.275.031-1.104-.38-1.293.121-.986-.365-1.175.228-.043.745-.232.318-.157.032-.213.427-.754.185-.476.259-.361-.106-.444.396-.075-.745.786-.471.299-.318-.256-.64.012-.29 1.717-3.442.181-.914.256.047.094.428.157.09.18-.29.213-1.083.37-.46.011-.211-.381-.687-.9-.306.032-.185-1.942-.914.126-.443.786-.471-.275-.29.688-1.448.318-.413 1.273.26.161-.35-.338-.734.118-.09.444.09.338.185.118.212.299-.487.38-.184-.01-.397.231-.074.086-.334.138.138.18-.032.032-.349.224.063.256-.26.774-.211.935-.793.106-.015 1.144 1.067h.192l.393-.471.362-.808.754-.809.299-.074.487.612.338-.016.17-.333.467.047.444-.185.468-.38.4.184.818.871.636.338.924-.734 1.08-1.13.193-.047-.287-.534.15-.322-.338-.64-.02-.549-.967-.887-.118-.259.244-.29-.318-.2-.507-.612.094-.84-.295-.075.967-.914.338-.55.48.048.125-.09-.106-.153.232-.228.075-.369-.032-.243-.224-.29.126-.597-.094-.655.554-.997 1.179 1.452.762.687 1.104.702 1.804.702 3.003 1.574.216-.402-2.785-1.463-1.835-.715-1.123-.716-.776-.7-1.195-1.48.128-.031.044-.528.82-.872.031-.264.172-.032-.064-.204.152-.204-.044-.172.348-.28-.172-.247.096-.484.096.188.088-.388.26-.204.215.108.344-.28.948-1.168.14-.22-.033-.543.184-.528 1.06-1.324-.744-.92-.292-.92-.495-.047-.572.248-1.371-1.436-2.61-2.075-.088.08.128.404-.484-.376-.444-.108-1.1-1.48-2.697-.827-.592-.22-.052-.172 1.06-1.828.151-.655.916-1.124.204-.532-.228-.656-.864-.735-.012-.888-.324-.688.496-.86 2.083-2.059.743-2.063 1.112-2.455 2.622-3.267.604.532.267-.296.852-1.032-.552-.548.84-.843-5.005-4.91 1.163-1.096.552-.908 1.37-1.22.572-.312.572-.547.432-.108.851-1.02.356-.016 1.531-.86.108-.736 1.543-1.08.768-1.283.235-.124.496.032.692-.907.367-.156-.032-.156.336-.36.196.016.744-.58.7-1.08 3.213-2.915.344-.548.16-.048-.12-.611.8-.408.627-.784 1.2-.44 3.289-2.023.368-.016 1.283-.488 1.08-.784.311-.032.172-.515.552-.612.635-.016.236-.204.356-.048.152-.236-.044-.456-.184-.328 1.467-.156.444-.424.495-.767-.368-.724.636-.736.648-.424.667-.048 1.931-.596.552-.36.991-.96-.064-.675 1.487-1.207-.012-.692.68-1.476-2.483-1.963-.483-1.696.983-.551-.076-1.272.356-1.447 1.673-3.023-.006-.026-.714-.22.441-5.926-.637-1.649-2.022-2.89-.357-.3-.446-1.07 1.95-1.322 1.08-1.194.304-.647 1.268-1.733 1.155-1.257 1.28-1.119.875 1.278 1.745-.914.79-.032.943-.236 2.315-.914.573-.108 1.236-.535 2.11-1.417.401-.032.759.267.561.016 1.18-.315.51-.472.79-.379.81-.786.542-.899.553-1.577 1.027-1.402 1.713-1.15 1.188-.427.922.064.715-.535.974-1.086.855-.475.056-.3-.802-.283-.281-.583-.401-.188-.413-.016-.434-.663-.409-.191-.28-.344.148-.287.866-.22.305-.52.269-.203-.116-.255.256-.503-.465-.144-.076-.22.846-.363.377-.284.109-.267.79-.252.381-.347.562.267.4.032.76-.235.332-.332.197-.555-.012-.3-.474-.93-.032-.598.454-.016.204-.128.445-.663 1.364-.898.402-.176.862-.028.522-.38 1.223-.443.446-.363.995-.236.192-.143.197-.631.726-.064.401-.647.594-.38.305-.534 1.263-.76.1-.71.984-.395.248-.46.726-.758.013-.204.324-.12-.071-.033-.444.122-.496-.063-.313-.387-.064-.36 2.397-1.267.172-.19.172-.608.768.079-.032-.861.117-.36.356-.343.252-.861.656-.56.216-.048.42-.486.424-.217.612-.597.413-.201.528-.719 1.2-.422.432-.518.256-.628.412-.296h.625l.392-.217.236-.58-.02-.329 1.304-.86-.02-.344-.812-1.02-.044-.485.196-.186.236-.75-.008-1.177.096-.296-.692-1.489-.04-.407-.444-.533.216-.296.604-.55.312-.126.324-.031.668.174.649-.19.812.158.224-.407.036-.36.56.187.852-.234.725.186.692-.798.172-.122.192.09.184-.078.26-1.047.28-.284.292-.672-.012-.438-.28-.58-.408-.111.104-.66 2.053-.249.38-.3 1.432.206 1.04-1.082.009-.19-.364-.186.324-.22.02-.17.356-.111.292-.597.032-.142-.488-.375-.745-.205-.032-.391.24-.376-.38-1.524-.66-.328-.764.11-.14-.078-.164-.861-.472.031-1.029-.22-.28-.3-.516.11-.476.612-1.392.77-1.157-.032-1.196.455-.184-.064-.412.174-1.52.11-.133-.094-1.088.312-.66-.016-.325-.138-1.004.47-.484-.032-1.62-.564-.433.28-.452-.016-.1.221-1.164.612-.52-.031.088-.909.312-.552.196-.75-.076-.913.088-.217 1.196-.881-.064-.249.973-.126.7-.502.324-.486-.228-.331.044-.439-.16-.19v-.217l.516-.19.272-.77-.012-.217-.42-.126.668-.284.164.142 1.749-.11.3-.77.1-.783-.12-2.168.088-.269-.1-.264.108-.127 1.34-.173.616.19.777-.597.368-1.086.216-.312.852-.316.744.126.82-.142.845-.833.02-.154-.152-.143-.228-.015-.02-.237.032-.407.292-.332-.128-.158.04-.675-.904.158-.1-.206.176-.628-.445-.22-.196-.534-.052-.221.196-.565-.088-1.086-.204-.58-.284-.344.896-.3 1.913-.96 1.22-.363.377-.016.36.442.968.407.036.237.904-.079.705.458 1.024-.016 1.284.455.056.331.3.328.38-.06 1.357-.959 2.54-.142 1.381-1.276 1.016.19.389.221 1.1.691.552.707.312.221 1.24.237.617-.063 1.792-.616.917-.09.12.374-.224.174-1.005.284-.532.925-.388 1.196-.604 1.114.128.553-.128 1.208-.616 1.873-.184.185 2.3.612.42.364.144.312 1.369-.028 1.704-.675.425-.016.368.154.644.865-.14.501.336.348.484.142.088.217-.236.755h.312l.928-.455 1.737-.517 1.168-1.07.344-.11.845.252.808-.517.292-.332.972.126.344-.126h.082l-.056-.443.236-.348.092-.488 1.001.048.615.78.863.303 1.908.048 1.293.336-.228 1.671-.367.984-1.373-.079.016.016.636.36-.116.426 1.965.11.451.053-.033-.118-.234-.03.363-.99.225-1.684.546-.064.66-.383 1.15-.177.075-.479 1.73-1.105-.106.013-.17-.016-.322-.302.437-.607-.14-.177.56-.483-.143-.382.151-.398 1.511-.467 1.306 1.859h.277l.18-.1-1.061-1.516 1.28-1.49.056-.43-.478-.242-.245.016-.087.193-.554-.801-.233.097-.522-.415-.213.096-.439-.402-.968.386.332-.833.628-.995.15-.544.396-.398 1.269.753.513.45.61.275.584.048.822 1.14.447.177.439-.032 1.035-.339.372-.37.118-.415.937-.64-.051-.29.15-.177.747-.387.138-.242-.1-.298-.341-.151-.088-.402-.365-.049.032-.736-.127-.434-.876-.881-.278-.881.147-.096.472.977.194.032.972-.418.321.02.14.398.15-.113.277.145.064-.64.666-1.09.107-.627-.226-.35-.214-.128-.194.048-.6-.467-.888.933-.385.125-.555-.032-.139-.736-.301-.527.162-.483.695-.784 1.253-.258.9-1.01.953-.498.908-.784 1.197-.664.077-.206-.155-.225v-.285l.94-.851.825.128.45-.112.522.257.178-1.185.511-1.233.085.193 1.514.59.229 1.201.302.064.453-.112.414.193.263-.049.511-.413 1.162-1.314.51-.305.554-.787 1.44.209.763.385h.554l.72-.867.627-.14.597-.435.023.21-.17.192-.752.366-.565.658-.585.546-.08.318.135.289.72.29.344 1.296.504.322.019.317-.263.755-.217-.257-.128-.418-.426.306-.135.594-.89-.193-.217.113-.492-.032-1.36.83-.417-.164.296.3.801 1.36.397.274.718.144.226.242.492 1.106.964.51.674.145 1.496-.016 1.723-.997-.102-.02-.128-.417.647-.336 1.595.048 1.156-.272.54-.208.787-.572 1.631-.588.908-.128 1.447-.716.463-.956 1.2-.908.591-2.36.248-.464.304-.16 1.131.208.268.16.304.416.4.144.636-.032 1.499-.828.743-.16 1.727.016.8.176 1.207 1.068.692 1.468.14.748-.368 1.148.184.828.375.636.692.464 1.487.128 1.176.448.52-.32.463-1.388.324-.352.356-.176 1.67.416 2.999-.16.552.176.799.592.648.128 2.058-.448.832-.416 1.531-1.132.648-.224.507.16.972.86.464.112.487-.08.604-.416.356-.464.432-2.056.56-.812.635-.368 2.286-.064.204-.272.088-.668 1.048-.94h.583l.756.368.496-.16.991-1.1 1.08-.528 1.035-1.852.831-.624.788-.048 1.023.432.292.48.272 1.372.208.188.344-.112.927-1.036.952-.048 1.13-.464.349.112.368.768.183.112 1.252-.32.775.048.68.256.743.544.076.448-.303 1.42.311.812.432.448.928.416 1.09 1.372.713.512.54.16 3.01.128 2.522.64.236-.144.184-.716.344-.448.507-.4.408-.08 2.267 1.276-.184 1.5-.248.624.076 1.42-.648.16-.647 1.148.12.4-.344.32-.668.288.076.524-.324.412-.851-.476-.324.352-.096 1.212-.324.924-.831.432-.928.016.012.384-.304.32-.127.604.032.208.27.123.127-.602.301-.32-.011-.385.92-.012.825-.432.321-.924.1-1.213.317-.348.848.476.322-.412-.076-.528.663-.288.34-.317-.114-.4.642-1.148.639-.16-.071-1.417.245-.624.183-1.501.984.432.535.016 2.086-.924 1.293-.08 1.083-.833.996.192.888-.668.044-.176-.56-1.053-.499.172-.107.305-.246.128-.654.16-.782-.032-.29-.685-.416-.08-.012-.928-.44-.524v-.56l1.19-.257.31-.464.055-.412.385.144.245-.208.215-.464v-.449l.48.224 2.59-.656.031-.908.58.016.107-.096.063-.192-.19-.049-.032-.144.222-.144v-.636l.29-.304.309-.032 1.928.4.067.7.341-.128.254.224 1.202.16.159.113.59 1.148.651-.048.226.608.12.145h.201l.012.144-.856.256-.076.748-.472.512.044.256-.417.353-.182.524-.29.176-.491.032-1.198.924.107.433-.25.272.175.63.204-.221-.107-.425 1.198-.908.491-.031.29-.173.182-.52.417-.345.194.283.333.189.536-.142.301.456.15.047.302-.235h.19l.229-.314.142-.049.113-.25.151-.158.417-.11.349-.633.158.016.03-.717.706-.78.226-.753-.761-1.885-.258-2.22.056-.3.642-.561.258-.785.468-.128.44.4.14.929-.259.252-.436.144-.075.288.095.272.813.032.762-.416.65-1.532-.127-.609-1.297-1.212-.371-.543zm-27.04 25.927l-.272.236.38.732v1.084l.204.812.212-.013-.117-.469v-1.084l-.372-.733.36-.316-.384-.176-.011-.073zm1.398 3.145l-.038.643.191.604-.4.192-.4.016-.171.556.324.192.006.04.14-.456.397-.016.396-.192-.194-.605.055-.86-.075-.128-.23.014zm-.466 2.375l.036.212.29.29-.057-.342-.269-.16zm.413.624l.047.228.259.17-.022-.114-.284-.284zm.661.7l.01.052.234.028-.014-.08-.095-.08-.135.08zm.726.431l.203.385-.336.272-.268.048-.152.508.108.78.192.112.012.364.12.144-.044.208-.272.412-.875.016.043.336.275.192-.026-.197.87-.016.265-.413.043-.208-.119-.144-.007-.364-.195-.112-.107-.78.15-.509.267-.048.333-.272-.365-.7-.115-.014zm.103 4.288l.192 1.242-.356.428-.248-.176-.128.176.172.176-.388.764.216.444-.084.556-.604.364-.108.288.408-.016.024.034.563-.342.087-.556-.214-.445.385-.764-.17-.176.126-.176.246.176.353-.428-.234-1.53-.238-.04zm-.702 4.577l.142.209.16.524.218.107-.092-.303-.365-.54-.063.003zm1.388 1.463l.233 1.83.152.3.146.084-.027-.054-.258-2.037-.246-.123zm.693 2.483l.008.33.259.06-.004-.237-.263-.153zm.773.78l.002.075-.191.444.151.508.024.86.172.272-.248.38-.291.968.355.808.138.07-.237-.546.29-.968.245-.38-.174-.272-.02-.857-.15-.512.194-.444-.012-.348-.248-.059zm.443 4.76l.04.063.055.023-.033-.054-.062-.032zm.503.49v.257l-.42.92.12.316.127.022-.002-.004.417-.92v-.493l-.242-.099zm4.013.64l-.13.239-.064.204-.06.024-.19.346-.063.572-.376.492-.488.316.032.3-.527.128-.452.636-.012.428-.376.192.216.444-.164.588-.907.556-.476.588-1.307.348-.052.16-.636.38-.432-.38-.268-.032-.26.128.368.684.248 1.176.234.239-.227-1.09-.365-.68.258-.128.265.032.429.38.63-.38.056-.16 1.293-.348.472-.589.9-.552.163-.588-.218-.445.377-.192.012-.428.448-.636.523-.124-.031-.304.48-.316.376-.493.064-.572.61-1.129-.373-.014zm-5.564 9.418l.02.383-.216.696.456.872-.216.824.248.307.208-.8-.449-.876.215-.697-.024-.46-.242-.249zm.78 3.724l.191.399-.487.904-.044.588-1.016 1.108-.236.696.216 1.076.464.712-.076.936.16 1.068.368.936-.044.348-.432.712-.084.396.16 1.424.096.176.312.075-.093-.164-.166-1.387.09-.385.437-.694.044-.339-.372-.91-.187-1.08.077-.911-.47-.693-.218-1.048.239-.681 1.028-1.08.045-.572.49-.876-.178-.357-.122-.138-.192-.24zm3.516 4.216l.132-.092-.002-.003-.13.095zm.527.202l.057-.039-.001-.002-.057.04zm3.278 2.129l.002.002.044-.034h-.004l-.042.032zm1.069.123l.001.003.508-.353-.06.022-.45.328zm1.858-.56l.087.037.451-.44-.222.079-.316.323zm1.025-.604l.289-.098.049-.396-.278-.019-.06.513zm2.065-.512l.265.106.166-.51.448-.177-.06-.02-.725.3-.094.3zm16.118 9.09h.003-.003zm-11.075-66.864l-.03.11.2.725.049-.018-.22-.817zm-2.858 4.13l-.118-.548-.002-.005.115.546.005.007zm-.542-1.712l.198-.09-.044-.377-.138-.126-.37.047-.136.062.49.484zm-.923-1.191l-.107-.377-.135.24.242.137zm15.067 72.334l-1.319.174-.008.097 1.26-.174.067-.097zm-1.468.85l-.494.387-.875 1.137-.027.11.815-1.112.577-.474.004-.049zm-1.554 2.199l-.613.341h-1.158l-1.91-.214-.381.063-.21.397-.993.218-.243-.11-.206.11-.328.339-.065.245-.263.125-1.223.303-.373.265-.805.152-.17-.083-.04.126.363.187.786-.155.363-.271 1.193-.311.257-.128.063-.25.32-.347.202-.112.237.112.968-.224.205-.406.371-.064 1.865.22h1.13l.62-.363.038-.165zm-9.12.528l-.036-.187-1.911.016-1.51.339h-.612l-.239.494-2.074-1.118 2.341 1.324.233-.506h.597l1.473-.347 1.739-.015zm-7.595-1.127l.076-2.016-1.453-1.955-.326.27 1.333 1.865-.058 1.61.428.226zm-4.24-2.07l-.186-.082-.526-2.263-.446-.03-.951.692-.316.063-.174.214-.166-.125-.11.11-.263-.063-.174.23-.065-.199-.295.125-.207-.171-.056.245-.156-.165-.167.415.044.361.357.389.056-.25.204.174.292-.127.064.203.172-.234.26.063.109-.11.164.126.172-.218.312-.063.941-.706.44.032.435 1.922.096-.235-.024-.04.057-.04.1-.243h.007zm-4.19-2.356l.06-.144-.032-.553-.417-1.017.308-.662-.045-.588-.275-.798.36-.756v-.88l-.445-1.492-.308-.218-.321-.071.3.217.444 1.536v.904l-.356.776.272.824.044.6-.304.68-.623.428-.336-.096-.604.064-.16-.188-.272.128-.28-.204-2.07-.568-.742-.297.077.747 1.07.424 2.073.563.28.206.269-.127.164.19.604-.063.337.095.624-.424.305.764zM138.482 231.848l.351-.102.01-.008h-.225l-.136.11zm.472-.2l.245-.198h.259l1.125-1.323-.17-.252.075-1.946-.128-.356.086-.27-.016.014-.463-.016-.184.56.128.36-.076 1.946.172.248-1.053 1.233zm1.825-4.63l.222.007.431-.368-.475.208-.178.153zm3.316-1.155l.223.071.918-.983-.08-.22-1.06 1.132zm4.553 2.933l.029-.008.542-.299h-.01l-.56.307zm1.523-.56l.224.02.699-.692-.325.081-.598.59zm1.25-.912l.25-.063.967-.78.155-.218-.387.09-.3.42-.685.551zm1.649-1.294l.328-.08 1.201-1.29.154-.103-.02-.042-.659.436-1.004 1.079zm2.344-1.487l.004.008.852-.49-.02.002-.836.48zm2.609-.941l.132-.018.817-.584-.02-.06-.93.662zm4.463.303l.314-.01.366-.579.006-.13-.487.146-.012.28-.187.293zm3.511 1.26l.013.006.246-.092.398-.372.084-.208-.369.028-.191.468-.18.17zm3.78-1.054l.472-.171-.023-.48.298-.475-.406.203-.356.56.015.363zm1.728-1.678l.502-.252-.771-.656-1.384-.5-.74-.607.493-1.059.034-.29-.455.205-.044.376-.495 1.06.742.607 1.39.5.728.616zm2.288-4.33l.028-.007.015-.01h-.018l-.025.018zm2.252.422l.226.115.254-.496.29-.156-.158-.595.02-.262-.42.148-.032.404.16.592-.291.156-.05.094zm1.123-1.706l.141-.05.334-.28.259-.467-.183-.952.06-.175-.272.062-.128.156-.088.247.184.952-.26.468-.047.039zm1.554-2.335l.039-.01.33-.2.335-.547-.163-.13-.541.887zm10.286 3.64l.292-.092.215-.452.198-.168-.067.02-.515.435-.123.258zm2.807-1.643l.254-.164.366-.36-.186.099-.434.425zm1.44-1.046l.305-.16.078-.14-.291.141-.091.16zm.913-.66l.327-.156.017-.049-.251-.045-.093.25zm.68-.491l.203.039.14-.268-.264.078-.08.15zm.812-.538l.27-.079.276-.565-.352.252-.194.392zm.74-.8l.346-.246.146-.25-.276.12-.217.375zm.99-.831l.27-.118.31-.524-.264.114-.316.528zm3.374-1.976l.114-.049.195-.14.255-.507-.285.145-.279.551zm1.82-1.433l.195-.099.213-.25-.16.06-.248.29zm3.86-.316l.114.033.033-.074-.147.041zm2.36-.815l.08-.011.054-.057-.087.018-.047.05zm.7-.396l.137-.03-.111-.012-.026.042zm.709-.281l.1.01.346-.454-.115.012-.331.432zm1.225-.77l.183-.019.139-.232-.112-.216-.338.225.128.242zm.878-.981l.08-.053.14.016.3-.788-.3.253-.22.572zm3.854-2.386l.1-.042.235-.28.214-.483-.107-.236.259-.687-.613-.984.044-.3-.235-.167-.27-.52.02-.357-.303.217-.02.424.271.516.236.172-.044.295.614.984-.259.687.108.236-.216.484-.034.04zm.023-4.388l.236-.17.202-.337-.235.165-.203.342zm1.905-.869l.073.043 1.077-1.572-.082-.019-1.068 1.548zm32.087 1.441l.063-.039.345-.555-.058.028-.35.566zm3.084-2.221l.168-.192.214-.649-.122.057-.26.784zm4.034-2.473l.135-.157.233-.678-.11.09-.258.745zm1.731-2.409l.174-.25-.608-.22-.032-.36.298-.847-.15-.172-.128-.548.107-.638-.165.253-.107.644.127.548.152.171-.303.844.032.36.603.215zm.239-3.929l.162-.25.012-.424.203-.484.012-.643-.259-.172.024-.86.246-.893-.1.02-.312 1.127-.02.86.26.172-.013.643-.203.484-.012.42zm2.804-5.824l.062.03.404-1.19-.069-.012-.397 1.172zm2.02 6.333l-.422.46-.056.204.04.093.338-.365.1-.392zm6.45 12.791l-.596.631-.887 1.375-.346.344h-.354l-.62.971-.195.78-.215.235-.835-.22-.386.017-.43.311-.883.344-.545-.296-.537.296-.89.032-.418-.112-.485.128.089.378.341-.087.42.107.896-.032.54-.295.552.295.883-.343.432-.311.388-.016.84.22.215-.236.192-.778.628-.965h.356l.344-.344.896-1.372.755-.794.408-.156-.052-.359.056-.065-.02.008-.348.407-.189-.098zm.562-.34l.002.014.313-.366-.016.003-.299.35zm-9.001 6.587l-.267.104-.537 1.155.073.124.407-.868.292-.107.088-.172-.056-.236zm-.481 2.543l-.195.027-.203.188-.007.36.158-.145.344-.048.128-.187-.044-.14-.181-.055zm-.456.859l-.328.26.057.31.264-.205.007-.365zm-161.094 13.812l.153 1.136-.517 1.311-.008.48.153.166.001-.026.52-1.308-.228-1.683-.074-.076zm4.97 7.33l.067.317-.032 1.307.398 1.743.104 1.027.126.15-.059-.554-.4-1.743.033-1.308-.184-.872-.052-.067zm3.24 7.313l.303 1.562.088.11-.276-1.416-.115-.256zm2.772 4.556l.128.771.125.167-.14-.84-.113-.098zm1.59 3.066l.01.751.095.248.109.103-.008-.583-.14-.468-.066-.051zm.73 2.017l.298 1.732.12.087-.295-1.701-.123-.118zm19.882-11.17h.239l-.537-.607.003.275.295.331zm2.932-10.78l.021-.053.172-.092-.399-.543-.43.235.255.428.28.08.101-.055zm-2.166-2.576v-.071l.128-.22-.28-.14-.235.14-.188-.003-.015.286.59.008zm.322-25.082l-.014-.05-.055-.052.005.016.064.086zm-23.213 15.78l.793-1.257-.227-.687-.237-.272.194.585-.819 1.296-.064.344.36-.01zm-.58-3.241l-.119-1.894.323-.343-.355-.303-.245.26.128 2.047.064.188.204.045zm-.514-2.999l-.074-.176-.14-.638.013-.514.107-.124-.183-.327-.192.04-.016.019-.012.515.14.64.172.408.185.157zm-1.05-2.312l-.122-.213-.1-.066.115.203.107.076zm-1.089-1.048l-.02-.039-.09-.033.11.072zm-2.495-.424l-.034-.078-.046.006v.032l.08.04zm-.59-.447l-.045-.097-.142-.038.069.15.118-.015zm-3.198-.817l.043-.166.121-.128.04-.088-.03-.937-.307.233.011.339-.16.172-.12.468.076.392.326-.285zm-5.367 2.484l-.051-.089-.11.034.026.043.135.012zm-.754-.476l-.336-.435-.298-.53-.195-1.105-.3.028.117.663.303.531.592.764.117.084zm-2.236-2.792l-.212-.599-.505-.67.656-.981.14-.778.29-.236-.02-.123.25-.296-.199-.03-.02-.237.28-.468-.02-.108-.204-.016-.012.172-.464.548.02.124-.291.236-.14.784-.66.984.508.671.216.612.387.411zm.845-3.646l-.078.131.024.235.6.092 1.15-.124 1.196-.486-.055-.4-.292-.048-1.231.5-1.155.124-.16-.024zm3.265.272l.018.138.018-.118-.036-.02zm.234.358l.178.095-.108.734.29.108.02-.702.259.032.02-.36.537-.996.322-.344h.195l.171-.327.235-.091 1.117-1.56.343.155-.012-.14.258-.25.064.107.234-.187.195.107.406-.251-.195-.28-.12-.562.247-.498-.365-.14-.198.117-.038.077.12.564.196.28-.28.22-.324-.077-.204.188-.096-.108-.26.252.012.14-.343-.156-1.124 1.564-.235.092-.172.328h-.196l-.324.343-.54 1-.02.36-.26-.032-.005.198zm2.486-4.46l-.228-.343-.05.03.236.352.042-.04zm-.965-.563l-.389-1.061-.259-.143.48 1.307.168-.103zm-.722-1.406l.023-.046-.056-.042.033.088zm-.088-.13l-.136-.104-.012.022.148.082zm-4.506-.464l-.164-.465-.287-.126.226.638.225-.047zm-2.795.545l.01-.02-.012-.296.354-.579-.088-.53.267-.842-.31-1.217.385-.107.183-1.205-.19-1.093.119-.064.063-.906-.19-.61.095-.327-.227-.172-.02-.22-.19-.041-.081.278.196.612-.064.907-.12.064.196 1.096-.184 1.207-.388.108.312 1.22-.268.844.088.532-.356.58.012.295-.16.328.496.188.072-.03zm.198-8.328l-.113-.406.203-.53.012-.391.302-.734.14.08.063-.296-.465-.31-.024.113-.14-.076-.3.736-.012.391-.204.532.14.5.216.048.02.22.162.123zm.174-2.775h.262l.549-.268.418.032.063.22.195-.108.128.36.405-.033v-.14l-.12-.031.43-.53.526-1.002.302-.283.246.123.227-.407.235.14.278-.172.026.01.127-.197-.248-.064.056-.092-.376-.156-.28.172-.236-.14-.227.408-.248-.124-.3.284-.528 1.003-.431.532.12.032v.14l-.408.032-.128-.36-.192.108-.064-.22-.42-.032-.551.268h-.368v.14l.532.355zm4.512-1.932l-.046.085.247.064-.17.267.258.22.087-.156.88.498.301-.22.343-.53.385.284.29-.08.204-.252.075-.39-.43-.296.772-1.328-.514-.324-.667 1.144.432.3-.076.392-.204.252-.292.08-.387-.284-.344.531-.3.22-.844-.477zm2.4-2.591l-.135-.432.235-.032.056-.359.302-.343.505.423.86-1.077h.258l.334-.515.537-.39.279-.83-.203-.188.322-.563.127.064.279-.626.58-.718.056.08.676-.659.418-.075.12-.22.405-.092.258-.502.816-.97.517-.423.183-.267-.14-.171.108-.124-.012-.343.481-.83.044-.171-.17-.096-.172-.579-.26-.177.082.274.172.096-.044.172-.484.832.012.344-.108.123.14.172-.184.268-.515.424-.82.972-.26.504-.407.096-.12.22-.42.08-.68.66-.051-.077-.584.72-.28.628-.128-.064-.324.564.204.188-.316.76-.54.391-.335.516h-.26l-.863 1.084-.508-.424-.3.344-.052.36-.236.032.236.751.31.195zm4.733-12.292l-.003-.004.645-.862.194.156.152-.156.095.172-.12.095.311.236.967-1.19.043-.266.581-.343-.095-.188-.088.096-.203-.076.203-.315-.171-.14.485-.423.259-.546.087.096.334-.487.386-.08.418.3.203-.408.58-.375.088-.327-.171-.61.74-.973.31-.188-.064-.096.152-.14-.354-.25.127-.22-.4-.427-.072.123.356.252-.152.14.064.096-.312.188-.743.975.172.612-.088.332-.584.376-.204.408-.42-.3-.387.08-.336.488-.088-.092-.26.548-.487.424.172.14-.204.315.204.08.088-.092.095.188-.583.344-.044.268-.972 1.192-.311-.236.12-.092-.096-.172-.152.156-.192-.156-.648.864.228.268-.172.155.184.236.133-.17zm5.376-8.43l.146-.1-.322-.422.406-.407-.152-.503.537-1.08.171-.188.012.155.27.156.28.407.15.048.064-.112.183.235 1.158.188.02-.188.46-.502.335-1.05-.449-.172-.22.69-.463.504-.02.188-1.163-.188-.184-.236-.064.112-.152-.048-.28-.408-.268-.156-.012-.156-.172.188-.54 1.084.153.504-.408.408.324.423-.184.124.12.22.264.281zm3.069-4.022l-.35-.282-.033.136.383.146zm-.342-.315l.426-.386-.151-.14.064-.299.588-.47-.214-.36-.247-.047-.51.555-.017.076.152.14-.452.408.408.332-.047.19zm-.665-1.504l.005-.011-.354-.674.29-.156.14-.423-.088-.315.235-.315.064-.894.676-.642-.056-.08.334-.359-.362-.53-.308.334.056.08-.68.643-.064.896-.236.316.088.316-.14.424-.291.156.355.675-.14.3.184.172.292.087zm-1.993-5.015l.216.488.125.075-.219-.49-.122-.073zm-.476.864l-.024-.045-.015.005.04.04zm-.49-.587l-.405-.65-.008-.003.298.478-.14.112.056.124.2-.06zm-1.116-1.32l-.092-.448-.081.064.09.061.057.316.026.007zm-.723-.832l-.011-.003.004.008.007-.005zm-.655-.664l.43-.408-.373-.267-.16-.188-.552.52.16.38.408-.063.087.026zm-3.12-4.573l3.455-4.212 3.81 4.432.462.187.27.395.184-.123.075.111.398-.454.58.41.115-.126-.096-.236-.96-.676-.4.456-.075-.112-.184.128-.268-.392-.464-.188-3.83-4.442 7.871-5.312-.537-.154-7.968 5.35-3.538 4.281-3.326 2.5-9.009 8.54.386.398L84.752 154l.462.501 4.073-3.978 9.213-8.812 3.23 4.113.075-.096.183.156.127-.032.462.642.087-.08.108.14.493-.283.765.96.033-.02-1.143-1.432-.496.284-.107-.14-.088.08-.464-.644-.128.032-.184-.156-.076.096-3.246-4.122 3.31-2.504.456.54zm9.112 2.532l-.092.11 1.364 1.555 1.25 1.155.133-.17-1.735-1.603-.92-1.047zm1.326 4.804l-.086.077.6.722.987.187.128-.299.234-.032.012-.171.203-.172.171.096.12-.595.536.675.378-.268.096.252.56.18.164-.278-.367-.408-.12.08-.584-.188-.096-.252-.376.268-.54-.676-.12.6-.171-.096-.204.172-.012.172-.236.032-.128.3-.991-.188-.158-.19zm3.912 1.896l-.112.191.573.532.03-.014.088-.172-.579-.537zm-.126 2.348l-.01.01v.315l.164.315.087.08.096-.124.366.439.202.111.967-.973.195-.55.127.047.151-.171h.171l.987-1.744.473-.299-.044-.095.462-.487.02-.188-.235-.47-.101-.058-.011.1-.464.487.044.096-.475.3-.992 1.748h-.172l-.152.172-.128-.048-.195.552-.972.975-.204-.112-.357-.428zm3.996-4.113l-.095-.314-.06.02.01.005.145.289zm-.423-.93l.507-.465.087.096.473-.315-.075-.252.847-.566-.064-.112-.505.172-.063-.22.954-.111-.051.33.119.156.418.064.107.124.215-.048.417-.503.987-.785-.032-.188-.632.251-.335-.518-.17.095-.172-.14.158-.406-.963.766-.419.504-.215.048-.089-.102-.838.559.076.252-.476.315-.088-.096-.667.616v.628l.487-.156.002.007zm1.262-2.181l-.196-.03-.074-.096-.11.013.064.22.316-.107zm1.219-1.226l.07.108.51-.202-.156-.06-.132-.167-.06.158-.232.163zm-2.998-5.221l.264-.334.087-.391-.234-1.384-.267-.423.322-.048-.214-.63.139-.064-.12-.315.14-.112-.16-.363.374-.203-.107-.348.354-.299-.374-.439-.139-.09-.19.16.109.349-.376.204.164.363-.14.112.12.316-.14.064.216.632-.324.048.272.424.236 1.387-.088.396-.324.408.4.58zm-.131-6.007l.212.028 3.683.096 6.345-1.524.119-.112.195.096 4.391-2.234-.012-.331.29.128.613-.786.537.347.247-.347.11.087-.043-.17-.582-.724-.228.204-.203-.156-.248.348-.539-.348-.615.788-.291-.124.012.332-4.407 2.239-.192-.096-.12.111-6.367 1.532-3.696-.096-.933-.123.577.156 1.132.664.013.015zm-34.505 15.857l-.595-.106-.103.117-.076.503.12.032.654-.546zm-2.87-9.833l.006-.412-5.392 2.372-2.512 1.733-.18.707-2.006 2.795-1.264-.044-.923.296-.95.519-.478-.092-.943.092-1.3.599-1.428.91-.842.156-.682.695-.879.295-.874 1.118-.642.471-4.59 1.601-.801-.102.003.013 1.587.204 4.573-1.603.636-.472.875-1.116.876-.3.68-.691.843-.156 1.423-.912 1.295-.596.571-.096.84.096.951-.52.916-.3 1.263.048 1.995-2.803.183-.707 2.503-1.732 4.667-2.066zm7.745 29.495l.076-.118-.832-.58-.267.3-.344-.328-.4 1.004-1.155 1.132-.636.236-.432.723.272.52.313.177-.121-.236.43-.722.632-.235 1.15-1.129.397-1.001.33.335.27-.3.317.222zm-2.366 4.518l-.158-.124.227-.187-.16-.407-.35-.199.06.152-.227.188.344.268-.076.08.195.312.145-.083zm9.806-8.349l-.025-.058-.26-.016.128-.375-.464-.048-.227.595.163.08-.463.58-.044.376-.8.564-.763.816-.076.187.172.156-.292.488-.556.504-.108.392-.615.612.152.312-.204.156-.452.016-.444.268-.195-.172-.516.391-.044-.092-.228.064-.052-.327-.152.016-.02.171-.204-.091-.26.723-.291.284.032.236.447.363-.018-.13.29-.284.26-.722.202.096.02-.172.151-.016.056.328.227-.064.043.095.517-.39.195.171.442-.267.45-.016.202-.156-.15-.311.612-.61.107-.391.525-.519.29-.487-.17-.155.075-.188.764-.814.795-.562.044-.375.461-.578-.159-.08.227-.595.203.021zm.149.35l-.018.052.042.003-.024-.056zm.457.575l.03.072.052.054-.001-.041-.081-.085zm.374.435l.118.123.012.327-.299.188.076.108.418-.3.14.04-.275-.432-.19-.054zm.77.79l.25.394.088.043.226-.17-.564-.267zm.615.57l.218.105.01-.016-.152-.14.088-.155-.164.206zm.23.267l-.141.108.227.22.086-.11-.171-.218zm3.974-17.54h-.137l-.08-.198-.868.426-.037-.067-.034.026-.15-.031-.695.324-.024-.056-.085.046.215.423.163-.124.087.204.835-.391.076.14.891-.44.986 1.098.07-.029-.22-.543-.192.08-.8-.889zm1.447 1.569l.133.331.04-.036-.173-.295zm-2.069 7.935l-.136.233.752.391.334-.674.569-.535.195.332.525-.032.099.12.009-.066-.452-.548-.528.032-.196-.328-.571.536-.336.676-.264-.137zm.28 3.683l-.15.069.046.056.105-.125zm-3.61.593l-.052-.061-.053.03.057.047.048-.016zm-1.384-.586l.175-.134-.032-.203-.35-.29v.005l-.184.14.16.36.231.122zm-4.403 1.056l-.074-.03.053.075.02-.045zm-.993-.735l-.224-.327-.124-.08.253.368.095.039zm-3.387-2.206l.72-.646-.278-.595-.154.094.002.003-.948.848-.26.627.128.108.272-.252.128-.375.39.188zm-66.015 70.456l-.138-.083-.101.297.13.102.109-.316zm-.274-.507l.07.044.043-.244.243-.047.339.32.518.314.336-.328-.097-.093-.105-.017-.562-.49-.343-.123-.037.207-.131-.076-.274.533zm268.446-48.858l-.342.28-.543.033-.736.976.422.394-.24.582.043.406-.434.333-.116.691.506.378.294 1.04.575.346.024.265.422.237.913.016.205.583-.076 1.008.172.579-.193.458-.068.77.217.238.274 1.21-.25 1.245.11-.029.236.096.4-.295.145-.013.282-1.423-.27-1.206-.216-.237.068-.77.19-.457-.17-.577.075-1.006-.202-.582-.903-.016-.418-.236-.024-.265-.568-.344-.29-1.039-.502-.377.116-.69.43-.332-.045-.405.239-.581-.418-.393.666-.89zm.105-.086l.494-.03.644-.532.31-.538.343-.312-.211-.614-.302-.36.095-1.227-.171-.517.183-.425-.107-.898.06-.201-.623-.03-.273.302-.097.313.109.9-.185.426.173.518-.097 1.23.306.361.213.615-.346.313-.314.538-.204.168zm2.084-6.046l.578.028.278-.253.276-.76-.462.042-.37.125-.3.818zm2.86-.78l.112.086.095-.176.688-.297.116-.156.019-.26-.864.15-.036.49-.117.157-.013.005zm1.497-1.112l.62-.109.807-.882.632-.264.632-.457.247-.646-.569-1.146.474-1.087.556-.393.43-.52.088-.049-.161.006-.76.41-.435.522-.563.394-.478 1.089.575 1.149-.25.646-.639.458-.64.265-.566.614zm8.192-3.899l.167-.014 1.408-.822-.247-1.287.386-.85-.076-.285.151-.549.171-.252.203-.048.044-.742.209-.087-.242-.118-.426.442-.302.124-.044.743-.205.048-.173.254-.153.55.077.285-.39.852.249 1.29-.807.466zm2.972-5.392l.563.278.323-.38-.374-.678-.279-1.227.044-.645-.215-.802.203-.585.17-.144-.26-.055-.66.55-.204.587.217.803-.044.647.281 1.23.235.42zm1.536-4.455l.555.12.147-.145.044-.565.664-.35.447-.556-.516.102-.651.804-.672.349-.018.24zm2.881-1.906l.279-.055.366-.205.426-.715-.385.072-.16-.407.498-.77.108-1.158-.249-.63-.498-.519-.253-1.047-.28.15.261 1.088.499.522.249.635-.109 1.165-.498.775.16.41-.414.69zm2.401-6.545l.138-.005 1.285-1.642-.144.003-1.279 1.644zm4.308-2.681l.052-.026.064.112.182-.29-.223.084-.075.12zm.4-.297l.194-.072.27-.302-.214.093-.25.28zm1.687-.934l.047-.02.35-.204.117-.235.12-.487-.064-1.397-.51-1.664.064-.283-.185-.144h-.334l-.51-.69-.901-2.168.27-.175.164.048.173-.236.237.032.587-.535.294.048.39-.16.88-.06.117-.19-.033-.328-.16-.22-.35-.127-.193-.347.096-.092-.229-.583.197-.77.414-.695.129-1.081.9-.834-.348-.093-.878.826-.126 1.08-.407.694-.193.77.225.581-.095.092.19.346.343.128.158.22.032.326-.115.191-.865.06-.383.16-.288-.048-.577.534-.233-.032-.17.235-.162-.048-.265.176-.576.422-.723.267-.865.69-.384.031-.17.391-.821.064-.66.598-.042.203.642-.576.836-.064.173-.394.39-.032.88-.695.736-.27.588-.425.9 2.181.51.695h.335l.185.145-.065.285.511 1.675.064 1.406-.12.49-.117.238-.127.074zm-6.359-4.668l-.923.03-.352.252-.256.422-.715.502-.391.108-1.035-.092v.254l.914.08.398-.108.728-.506.261-.426.358-.253.965-.032.048-.231zm-3.812 1.909l-.469.286-.053.19.402-.242.12-.189v-.045zm-.672.725l-.085-.017-.478-.813.126-1.447-.118-.721.138-.753-.114-.61-.13-.032-.672.753-.458.156-.956-1.897.04-.379.193-.299-.119-.251.075-.61-.233-.928-.308.015-.494-.342-.596-.176-.352-.438-1.5.785-.044.076 1.309-.678.358.442.607.177.502.345.314-.016.237.936-.076.615.12.253-.196.301-.04.382.972 1.912.467-.156.683-.76.133.032.117.615-.141.76.12.726-.128 1.459.486.82.165.031.076-.268zm-6.7-7.128l-.258.017-1.047-.359-.403-.928-.182-.283-.213-.092-2.121 1.084-.182.044-.458-.22-.061.334.166.078.185-.044 2.16-1.093.216.093.185.285.41.936 1.066.361.43-.028.107-.185zm-5.272-.295l-.007.001-.13.14-.245-.064-.105.236.111-.118.346-.032.03-.163zm-1.134.688l-.177-.013v.114l.177-.101zm-1.688 1.613l-.298-.056-.395.203-.233-.438-.663-.534-.277-.881.364-.594-.044-.458-.296-.626-.024-.442-.415-.786-.916.224-.597-.048-1.046.299-.384-.224-.628-.139-.288.064-1.236-.502-1.857-.192-.502-.438-.126.235-.37.017.413.358 1.89.193 1.259.506.293-.064.64.14.39.225 1.065-.301.607.048.933-.225.422.792.024.445.302.631.044.462-.37.599.282.888.675.538.237.442.403-.205.434.08.225-.144.063-.092zm-10.378-5.31l-1.229.057-.13-.22.012-2.263-.257-1.148.308-1.208-.138-.661-.214-.236-1.852-.769-.498.19 1.715.705.217.237.141.666-.314 1.218.262 1.157-.012 2.281.132.221 1.778-.08.08-.146zm-5.408-5.598l-1.648.955 1.654-.933-.006-.022zm-7.348 11.86l-.463-.62-.146.003.495.673.114-.056zm-3.63 9.306l-.306-.063-1.174.218-1.82.122-.302.234-.718.218-.185-.042-.017.035.056.368 1.075.254.716-.222.306-.238 1.814-.126 1.171-.222.511.113.543-.032.218-.335 1.412.618.066.005-.34-.446-.813-.064-1.411-.615-.218.33-.542.032-.042-.142zm1.188 9.353l-.49-.103-.192.1.118.324.458.233.154-.224-.048-.33zm-2.732 4.662l-.174.043-.41-.081-.282-.239-.143.003-.002.003.3.188.064.203-.037.243.633-.228.05-.135zm-1.201 1.694l-.061-.046-.4.171.101.172.067-.028.12.096.173-.365zm.832 10.211h-.063l-.367.252-.292-.016-.45.252-.743-.22-.547.108-1.58-.76-1.518-.251v.429l1.278.21 1.572.74.551-.109.752.221.454-.253.294.016.37-.253h.225l.064-.366zm7.153 23.576l.32-.01-.085-.858-.42-1.045.076-.766-.227-.515.551-1.03.216-.17-.012-1.142.192-.22-.026-.255-.303.128.045.425-.197.221.012 1.145-.218.173-.554 1.04.229.519-.077.767.423 1.053.055.54zm.686-6.227l.217-.09.14-.422-.25.197-.107.315zm1.365-1.014l.028.001.12-.138-.019-.012-.129.15zm13.124 2.229l.095-.07.062-.127-.075.033-.082.164zm3.544-1.623l.317.086.4-.162-.11-.03-.524.043-.083.063zm.824-.047l.117.149.432.14.216.781 1.131.455.53-.146-.924-.373-.215-.785-.43-.14-.159-.205-.465.188-.233-.064zm3.527.825l.892.529h.488l.126-.13-1.129-.675-.377.276zm2.462.081l.51.26.519-.162-.549-.282-.334.032-.146.152zm1.267.175l3.733 1.57.311.015.28-.112-3.834-1.628-.49.155zm6.904.641l.043.66.14.093.14.423.432-.188.182-.006-.097-.286-.139-.093-.052-.866-.649.263zm1.333.967l.306-.01.04-.035-.266.01-.08.035zm9.001-8.997l.081.08.312-.047 1.416.47.244-.227-1.06-.354-.31.048-.314-.317-.31.173-.059.174zm3.34-1.36l.144.112.552 1.704-.312 1.233.28 1.28.4-.155.172.051-.277-1.28.31-1.238-.545-1.712-.473-.377-.25.381zm1.247 4.229l.496.148.355-.16-.463-.14-.388.152zm3.234-1.29l.769.038.832.686.4.61h.311l.712.296.096.327.8-.124.096 1.173.755.423.16.391-.152.28.076.219-.691.467-.076.906-.636.686-.312.702.032.67-.304.547.12.483-.56 1.077.292 1.7-.108.514-.464.327-.012.236.024.295.648 1.436-.096.296.096 1.169.528.981.7.515.292.483.28.638-.14.263.14.252.743.482.128.312-.064.762.204.171.216.016.344.36.604.107.162-.066-.238-.045-.346-.356-.215-.016-.203-.173.064-.77-.127-.312-.74-.485-.14-.249.14-.268-.278-.642-.29-.485-.7-.517-.526-.986-.095-1.179.095-.296-.644-1.444-.02-.296.008-.237.461-.329.108-.517-.29-1.708.56-1.082-.119-.485.302-.55-.032-.673.31-.705.633-.694.076-.906.688-.473-.076-.22.151-.281-.163-.393-.752-.425-.095-1.174-.795.124-.096-.329-.708-.3h-.31l-.398-.61-.827-.693-.986-.044-.332.118zm8.368 20.737l.246.152.572.123.248.296.248.482.107.655.236.187.54 1.014-.388 1.356v.53l-.452.671.216.902.012.901.832 1.776.444.574.204.934-1.22.67-.216.312.66.873-.496.67-.368 1.138.4.778.42 1.556-.236.263.056 1.616-.12.543-.452.746.012.59-.711.032-1.196.778-.432 1.121.268.67-.548.918.076.295.388.296.552.778.184.682-.44.822-.324.124-.775 1.46-.636.359-.128.231v.42l.192.294.304 1.213.464.715.095.574.788.682.624 1.181-.032 3.475 1.143 3.77.28.312 2.267 1.085.624.495 1.588 1.939.14.666.463.806.648.387 1.164 1.101.257.034-.956-.91-.644-.39-.461-.814-.14-.669-1.578-1.944-.62-.501-2.256-1.09-.278-.31-1.138-3.788.032-3.496-.624-1.182-.784-.69-.095-.573-.462-.722-.302-1.214-.19-.297v-.421l.127-.232.632-.361.775-1.468.323-.124.437-.83-.183-.685-.545-.782-.386-.297-.075-.296.545-.918-.267-.674.43-1.126 1.189-.778.712-.032-.012-.593.45-.75.119-.55-.056-1.623.239-.264-.422-1.564-.394-.782.362-1.142.493-.674-.652-.874.215-.312 1.213-.674-.203-.938-.441-.577-.828-1.784-.008-.91-.218-.906.453-.674v-.533l.386-1.359-.537-1.018-.235-.188-.107-.658-.247-.485-.246-.297-.573-.128-.45-.28-.31.128zM326.948 59.48l.06-.098-.07-.235-.09.146.1.187zm-.043-.623l.23-.08.228.128.012-.112.474-.128.195-.144-.129-.215-.1.074-.474.127-.012.11-.227-.126-.279.095.082.27zm1.027-.746l.004-.007.666.096.518-.16.16.272.226-.288.518-.209.14-.589.247-.192.43.637.247.096.279-.064.203-.397.14.048.1.172.078-.063-.226-.375-.14-.048-.203.392-.278.063-.247-.095-.43-.628-.246.19-.14.58-.513.206-.226.284-.16-.268-.513.158-.664-.095-.076.11.106.174zm3.998-.382l.006.01-.334.273h.378l.247-.365-.135-.157-.162.239zm.186-.43h.004v-.318l.904.08-.127-.256.267.016.043-.224.666.32.127-.224.407.064-.094-.28-.368-.057-.127.221-.664-.316-.044.221-.267-.016.128.253-.904-.079v.317l-.15.047.199.231zm2.218-.867l.32-.044-.032-.208-.159-.042-.22.029.09.265zm-.469-.703l-.008-.062-.022-.02.01.077.02.005zm-2.832-1.739l.298-.235-.15-.16-.307.24.159.155zm.088-.638l-.037-.507-.038-.014.039.482.036.039zm-2.019-1.447l.141-.238-.151-.016-.004-.022-.132.222.146.054zm-.047-.463l-.07-.396-.018-.01.073.404.015.002zm-.464-.77l.533-.552.303-.766h.398l.323.24.98-.224 1.279-.701-.061-.167-1.273.69-.979.22-.322-.237h-.398l-.303.755-.644.66.164.082zm3.744-2.212h.299l.151.321.335.273.265.012.011-.171-.334-.016-.334-.269-.151-.316h-.303l.061.166zm1.111.732l-.012.182.387-.016.195.433.343-.144.095-.385.204-.08.087-.225.247.273.805-.32.267.063.827-.428-.065-.176-.828.427-.266-.063-.804.316-.247-.269-.083.221-.203.08-.096.379-.342.142-.195-.423-.316.013zm3.607-.208l.051.14-.051-.14zm.092.4l-.025.07.256.317-.069-.189-.162-.198zm.366.76l.159.445.848-.225.16-.256 1.139.24.303-.096.581.782h.128l.602-.273-.052-.385.785-.176.012-.112.537-.048.379.048-.052.112h.335l.765-.413.613-.032.367-.353.032-.304.406-.766-.104-.162-.4.745-.032.3-.366.348-.613.031-.764.407h-.334l.056-.11-.374-.048-.537.048-.008.11-.784.174.056.38-.601.268h-.127l-.581-.77-.303.095-1.138-.238-.159.253-.847.222-.087-.24zm7.827-2.172l.188-.201-.076-.144.475-.477.032.018.008-.1-.14-.078-.473.474.076.142-.195.206.105.16zm.699-.758l.027.016-.02.304.195-.32.15.056.05-.106-.303-.111-.1.161zm.223.734l-.029.063.39.325-.031-.117-.33-.271zm.435.455l.062.234.076-.097.235.08.163-.176-.051-.192.226-.082-.068-.188-.267.095.056.19-.163.173-.235-.079-.034.042zm1.022.508l.072.203.59-.24.335.182-.004-.13-.441-.237-.552.222zm1.108.346l.008.257.355-.224.247.224.876-.011.194-.197-1.182.016-.247-.222-.25.157zm1.524 1.09l-.042.145.156.065.038-.149-.152-.061zm.233.417l-.04.161.45.16.064-.364.43-.32.721-.145.379.208.064-.128.19.064.228.385.418.016.152-.128.29.24.4-.014-.083-.222-.442.016-.29-.237-.152.126-.417-.015-.227-.38-.191-.063-.064.126-.374-.205-.72.142-.43.316-.063.364-.293-.103zm3.95.573l.074.198.354.208.16-.128 1.279.208.442-.38 1.14-.413.095-.337.215-.209.375.08.195.241.374.176.733.177.204.224 1.012-.733.183-.445.59-.257.203-.46.418-.273-.171-.67.075-.272-.342-.605-.025.008.23.402-.075.268.17.66-.417.27-.203.458-.589.253-.183.442-1.01.724-.203-.222-.732-.174-.374-.174-.195-.237-.374-.079-.215.206-.096.332-1.138.407-.441.38-1.277-.206-.16.126-.3-.174zm6.703-3.414l.072-.252-.12-.654.172-.224.613-.192.164-.289-.182-.09-.118.207-.613.19-.17.22.119.645-.128.439h.191zm-.441-2.468l-.077-.153-.04.041.021.042.096.07zm-3.57.86l-.013-.115-.122-.018.016.152.119-.019zm-.234-.294l-.006-.126.152-.08.203.128.374-.221-.106-.179-.406.237-.203-.126-.151.079.012.269.13.019zm.895-.082l.087.149.247.08-.12-.606.292-.064.024-.304.259-.43-.145-.149-.258.426-.02.3-.29.064.12.597-.196-.063zm.574-1.398l-.032-.033 1.366-.368.152-.273.55.016.119-.272.553.072-.087-.128-.613-.079-.119.269-.55-.016-.15.269-1.365.364.176.18zm2.959-.568l.068.102.26.129-.108-.798.163-.176.279-.016v-.32l.279-.13.367.053-.066-.111-.45-.064-.278.127v.316l-.279.016-.163.174.107.786-.18-.088zm1.49-.978l.053.09.418.16.171-.192.86.08.097-.15-.033-.309-.215.332-.86-.08-.17.19-.322-.121zm1.608.729l-.018.047.098.05-.039-.076-.04-.021zm.366.504l.059.12 1.095.32.181-.016.015-.168-.354.032-.996-.288zm.501 1.564l-.088.075.044.017.046-.092h-.002zm-1.149 1.55l-.003.008.056.176.215.016.056-.256.271-.16.57.352.872.16.773-.352.614.4.279-.127.217.06-.095-.179-.29-.079-.28.127-.612-.391-.772.347-.871-.158-.57-.348-.27.159-.051.252-.109-.008zm3.511 1.53v.11l.154.099.076-.064-.23-.146zm-.127 1.024l-.068.172.076.08.558-.064.227-.273.406-.041.057-.25-.632.062-.227.27-.397.044zm1.361.14l-.01.048.537.557.353.028-.117-.237-.406-.031-.357-.365zm7.334-1.333l.018.122.256.062.018-.115-.292-.07zm.399.334l-.014.093.095.048.829.224.247-.048.058.04.03-.053-.214-.142-.247.048-.784-.21zm-10.587-2.933l-.089-.305.304-.031-.096-.09-.31.031.108.364.083.03zM312.672 23.91h-.017l-.023.018.027.005.013-.023zm-34.086 105.942h-2.536l-2.58.47-3.168-1.18.151-1.145-.277-.09.236-1.895-.377-.1-.19 1.507-.274 2.03 3.235 1.173 2.635-.468h2.61l.535-.302zm-3.725-4.123l.102-.09.285-.896.067-1.431-.257-.267-.438-.207-.609-.06-.466-.63-.734-.566-2.07-2.268-.767-.358-1.386-1.212-.672-.363.158-.255-.565-.454-.679-.064-.332-.251-3.239.945-1.078-.22-.087-.677-.006-.225-.524.304.02.785.088.673 1.093.218 3.283-.939.336.25.689.063.572.452-.16.254.68.36 1.406 1.205.777.357 2.098 2.255.744.563.473.626.616.06.445.206.26.265-.068 1.423-.055.17zm-11.177-11.366l.215-.162.221-.41.063-.427.162-.14-.162-.534.012-.297-.47.571-.023.61.164.532-.164.139-.018.118zm54.896 6.353l.003.005.293.095.459-.095 1.334-.679.314-.235.281-.487.9-.347.097-1.23.447-1.025.474-.567.109-.411.317-.172.346-.523.185-.93.888-.834-1.833-.614-.446-.38.362-.865.313-.427 1.15-.599-.153-.662.165-.6.27-.41-.141-.46-.447-.187-.269-.315.052-.523.338-.946-.108-.443.096-.251-.173-.283.696-.615.434-1.042 1.648-2.67 1.3-1.57-1.13-1.246-2.183-5.014-.267-.316-.28.027 2.143 4.942 1.351 1.499-1.319 1.622-1.62 2.666-.426 1.04-.684.614.17.283-.095.251.107.443-.332.944-.051.522.265.315.438.187.138.459-.264.41-.162.598.15.662-1.13.598-.308.426-.356.865.439.379 1.801.613-.873.833-.181.929-.34.522-.312.171-.107.411-.466.566-.438 1.024-.095 1.228-.885.347-.277.486-.308.235-1.311.678-.45.095-.053-.017zm-.307-.2l-.067-.114-1.268.236-.221.394.031.598.253.375v.378l-.798.267-.138.267-.182.032.213.395.164.022-.182-.33.185-.033.14-.267.813-.267v-.38l-.257-.375-.033-.598.226-.395 1.12-.205zm-1.363 2.998l.83.428.158 1.24.482.362.308.849.19.219.08-.1-.025-.029-.314-.85-.49-.363-.161-1.24-1.001-.508-.057-.008zm2.3 3.087l.489.405.265.77.533.785.175-.054-.44-.639-.27-.77-.696-.567-.057.07zm1.718 2.007l-.044.3-.897.346 1.426 2.404.155-.132-1.313-2.177.913-.347.072-.487-.312.093zm.922 3.027l.875.84.297.08-.978-.923.097-.24-.29.243zm-51.576-22.49l-.07-.046-.14.064-.196-.14-.078.036.248.196.236-.11zm-110.56-52.3l-.356-.408-.611.302-.402.048.27.258.17.016.66-.08.269-.135zm9.852-8.443l-.03-.26-1.4.06.526.238.904-.038zm2.79 24.375v.15l.982 1.49-.052.492-.28.364-.817.444-.336-.128-.92.847.485-.02 1.317-.28.26.126-2.25.747-.161 1.006.064.128-.863.728.02.62-.698.619-1.314.08-1.528.588-.044-.128-1.142.475-.044.192-.83.444-.184-.048-1.098 1.331-.151.604-.723 1.095-3.006.428-1.313 1.031-.451.08-.659.32-.096.604.196.743.303.332-.527.396h-.43l-.336.16-.818.791-2.34.984-.088.128-.475.112-1.337 1.25-.335-.063-.172-.236-1.832.572.451 1.63.236-.031.818 2.502.698-.236.231-.205-.33-1.028-.234.033-.446-1.643 1.814-.572.17.237.332.065 1.324-1.26.47-.113.087-.13 2.317-.99.81-.797.332-.161h.427l.522-.399-.3-.334-.19-.75.094-.607.62-.318.448-.08 1.3-1.04 2.976-.43.716-1.1.15-.608 1.087-1.341.182.048.822-.447.043-.193 1.131-.48.043.13 1.514-.592 1.3-.081.692-.624-.02-.624.855-.733-.064-.13.233-1.485 1.024-.958.332.128.81-.447.277-.366.056-.495-.969-1.502v-.27l-.213-.194h-.415l-.064-.334-.426-.225-.05-.018zM152.19 97.06l.22.128.766 1.519.667 1.69-.14.209-.59-.112-.204.096-.032.583.151.252.958-.016.583-.3.464-.098-.48-1.24-.76-1.53-1.162-.684-.233-.685-.208.188zm10.536.772l.198.819.292.492.603.235.227-.112.058.028-.18-.755.044-.205.332-.27-.119-.43-1.455.198zm2.055 2.483l-.012.015-.312.176.292.427-.863.572-.582.744-.42.267-.906.3-.475-.3-.28-.016-.259-.315-.774-.064-1.142.84.064.79-.088.285-.722.016-.763.475.096.364-.515.46.228.112.323.567.271-.064.064.332.571-.268.013.284.37-.333-.095-.366.759-.48.715-.016.087-.286-.063-.797 1.13-.846.767.065.257.318.277.016.47.302.897-.302.415-.27.577-.749.854-.572-.288-.43.308-.174.427-.511-1.143-.56-.225.113-.305-.121zm-6.241 6.176l-.266.079.637.415-.24-.428-.131-.066zm.473.632l-.037.143-.183.096-.228-.176-.71-.064-.691.427-.311.08-.044-.128-.407.016-1.174.584-.938-.6-.559.316-.16-.507-.303-.412-.42.444-.259-.016-.096-.188-.45.16-.088.203-.204-.08-.152.144.096.444-.192.412.292.476.203.08.172.583.323.38.336 1.091.024.54.183.064.096-.096.483.176.088.52.472-.11-.322-1.066-.32-.383-.17-.587-.202-.081-.289-.48.194-.414-.095-.447.15-.14.202.08.087-.206.447-.16.094.192.257.017.415-.447.3.414.159.512.553-.318.93.604 1.161-.588.403-.016.044.128.308-.08.684-.43.704.063.225.178.182-.097.055-.205-.747-.496.32-.096-.02-.447-.565.27-.063-.335-.243.06zm-.497 5.146l-.182.677.16.204.087.916.228.347.387.236.056.348.59-.115-.056-.601-.159-.206.32-1.208-.308-.874-1.055.447-.068-.17zm15.882-10.308l.075.164.311 1.219.172-.364.291-.252.14-.034-.142-.317-.459-.544-.388.128zm9.381-6.1l-.177-.232-.151.016-.128-.316-.14.048-.215-.524-.132.023.037.1-.308.78.992.145.222-.04zm-3.005-4.157l-.07-.045-.108-.224.4-.284-.344-.711-.515.396-.16-.316-.367.348-.16-.332-.304.323.237.178.063.399.585-.145.139.543.34-.366.162.334.102-.098zm-1.764-1.182l-.042-.162-.023.005.063.156.002.001zm-.808-.77l.035-.04-.197-.072.043.132.119-.02zm-.368-.399l-.028-.069-.314-.186.176.227.166.028zm-.551-.512l-.004-.032-.053.009.057.023zm10.25-6.982l.09.17.418.268.044.3.216.143-.088.208.303.252.184-.246-.103-.068-.372-.72-.692-.307zm2.115 1.982l.218.247-.044.46.83 1.107.266-.032-.147-.2.043-.463-1.075-1.244-.091.125zm5.675 1.474l.004.024.845.584-.12-.725-.73.117zm3.64-.164l.388.16-.046-.178-.277-.016-.064.034zM210.22 73.55l.394.406.312.026-.725-.76.019.328zm3.473 1.28l-.157 1.494.304.316.668-.204.12-1.168-.095-.366-.84-.073zm8.57-10.13l-.152-.604-.519-.026-.03.567.671.322.03-.26zm-1.604-2.251l-.435-.561-1.18-.124.17.372.482.21.963.103zm-1.916-.753l-.378-.16-.183-.396-.572-.08-.14.037.645.657.351-.097.277.04zm-2.02-1.072l-.344-.344-.085-.04-.2.088-.32-.177-.19-.24-.369-.171.173-.076-.606-.761.15-.242-.47-1.554.107-.496.245-.064.834-1.04.02-.225-.233-.241h.478l.087-.544.587-.508-.776-.634-.692.588-.049.302.044.017-.183.543.238.241-.023.221-.833 1.042-.246.065-.107.494.468 1.553-.147.241.996 1.247.32.177-.225.19-.44.047-.147.817-.56-.113-1.594.769.226.72-1.38.832h-.397l-.965.446.398.428 1.206-.56h.395l1.376-.833-.225-.72 1.589-.77.553.113.15-.818.439-.048.099-.258.628.296zm.854-.948v.016h.165l.017-.096-.182.08zm-7.846 4.082l-.353-.378-.182-.016-.11.077.487.43.158-.113zm-1.6-.905l-.272-.24-.42-.081-.322.205-.02.752-.214.064-.226-.128-.17.112-.223.5-.61.317.221.768.282.157.298-.016.257.64-.087.402-.397-.08-.618.446-.695-.065-.345.29-.789.237-1.309.624-.952 1.504-.258.125-2.642.418-.579.845-.397 1.456-.031.829-.972.59-.548-.128-.487.111-.022.308.49.064.704-.161.545.129.973-.592.031-.83.396-1.454.577-.85 2.636-.414.257-.129.949-1.502 1.3-.624.79-.242.34-.286.692.065.617-.447.395.08.087-.398-.257-.64-.3.015-.277-.16-.225-.77.609-.318.225-.495.17-.113.225.129.214-.065.023-.753.32-.209.042.008zM194.914 73.24l.014-.195-1.28-.232.293.251.973.176zm-4.33-4.413l-.035-.094-1.015-.338-2.08-.285-5.248.73.027.415 5.94-.83 2.072.29.338.112zm-9.367-1.883l.03-.13-.123-.002.093.132zm6.359-15.976l-.494-.311-.44.048-1.337-.479-.444-.063.15.201 1.013.145 1.332.484.22-.025zM183.79 48.8l.102-.56-.548.096-.246.193-.491-.145-.31.145-.29.51.738.242-.448.306.48.157-.278.225-.567.193-.396-.113-.227.387-.178.064-.88-.306-.117.008.046.021.34.29.47-.032.874.306.182-.064.225-.387.396.113.565-.193.277-.226-.483-.16.447-.307-.735-.242.288-.511.309-.145.455.135zm-4.986.85l-.64-.288-.6.016.171 1.247-.19.993.127.048-.428.785.856.088.318-.584-.127-.048.194-.995-.17-1.248.489-.013zm-.216 3.152l.004.003.057.003-.061-.006zm.268.028l.498.71-.206.64.012.72-.588 1.601-.119 1.903-.107-.113-1.293.338-1.07-.193-.625.503-.09.204.395.21h.3l.767-.625 1.067.194 1.293-.334.106.112.119-1.904.585-1.603-.012-.721.202-.64-.502-.721-.257-.016-.404-.258-.07-.007zm-4.428 5.26v-.036l-.298-.241-.738-.017.159.93-.203.736.064.796.234.306.579.112.119.11-.18-.233-.063-.802.202-.737-.158-.93.283.006zm-.002 2.77l.077.07.162.386-1.404.205-1.916-.125-1.733.173-.794.29.567.941.024.419-.547.832-.762 1.549-.781-.177-.286.112-.718.672-.946-.082.602.287 1.11.097.716-.673.288-.113.779.178.759-1.55.545-.834-.02-.415-.565-.947.79-.29 1.728-.177 1.91.13 1.399-.21-.159-.383-.276-.258-.549-.107zm-10.834 2.993l-.038-.268-.343.05.38.218zm-.652-.226l-.576-.328-.19.016-.068.08.355.46.32-.032.159-.196zm-1.327-.16l-.328-.425-.59.16.106.302-.245.274-.62-.29-.15.624.17.177.044 1.246-.44.43-.17.882-.247.221-1.863-.113-.146.195 2.6.155.089.205.127-.085-.02-.047.246-.225.17-.882.439-.43-.044-1.25-.17-.176.15-.625.621.29.245-.274-.107-.302.133-.036zm-1.153 3.822l.343.19.304.422.18.08-.297-.425-.502-.286-.028.019zm1.184.861l.26.347.132.04-.224-.309-.168-.078zm7.69.42l.032.227-.345.72.09.103.334-.723-.043-.319-.068-.009zm.984 1.583l.052.212h.036l-.044-.188-.044-.024zm.717.326l.187.498-.484.767.172.533h.004l-.117-.376.482-.782-.233-.64h-.011zm15.885 30.85l.186-.32-.55-.032-.4-.615-.267-.08-.645.543-.016.207-.422-.041-.466 1.202.108.176.539-.128.688.106.182-.478.213.13.428-.368.005-.006h.002l.363-.311.052.015zm168.017 37.122l-.327 1.258.058.046.3-1.18-.03-.124zm-1.687-4.266l.061-.08.741-.172.128-.488-.036-.118-.042.16-.748.172-.096.128-.008.398zm.692-2.132l.345-1.342-.037-.086-.341 1.318.033.11zm.111-2.428l.214-.513-.047-.188-.17.409v.283l.003.009zm.235-1.058l.461-.83.012-.253-.024-.04-.507.895.058.228zm-11.185-7.718l.658-.571 1.335-.806.88-.08.311-.413.43-.14.773-.773.367-.998.378-.538.215-.633-.011-1.03-.006-.026.008.68-.217.63-.382.535-.37.993-.78.77-.434.144-.313.411-.889.076-1.347.806-.88.755.274.208zm5.15-7.213l.122-.7-.052-.125-.11.626.04.199zm-.284-2.203l.382-1.107-.018-.335-.394 1.131.03.311zm.127-2.554l.127-.168.076-1.127-.034-.005-.053.782-.217.283.101.235zm35.385 22.846l-.014.024.05 1.36.016-.014-.052-1.37zm-4.26 7.62l-.07.228.128.725.582.31.387-.454-.975-.52-.052-.29zm-1.125 3.416l-.028.018-.095.189.22.776.082-.355-.18-.628zm-1.244 2.283l-.202.012.167.259.03-.061.005-.21zm5.517-80.184l-.5.102-.129-.206.489-.264-.174-.754.622-.533.327.016.61-.252.782-.517-.135-.07-.705.477-.608.26-.326-.016-.62.547.177.774-.491.272.133.211-.415.949-.193 1.273-.036.97.318.06-.544.487-.205.369.173.178-.173.868.399 2.043v.347l.067.018-.097 2.774-.174.032.09.173-.13.158-.174 1.362-.206.174.02.22-.411.439.056.485.315.66-.775.674.012 1.16-.262.533.11.47-.283.643-.578.691-.38.813-.423.565-1.21 1.081-.848.533-1.09 1.093-.372.158-.282.312-.34.016-.3.198.377.015.773-.525.335-.016.278-.317.367-.16 1.076-1.11.836-.542 1.196-1.094.418-.573.374-.826.57-.697.279-.653-.108-.477.26-.541-.013-1.179.765-.681-.31-.67-.052-.492.406-.445-.02-.225.203-.176.172-1.383.127-.16-.083-.177.17-.032.097-2.817v-.517h-.028l-.399-2.02.172-.858-.172-.177.203-.364.538-.477-.31-.064.031-.954.196-1.259.165-.383zm7.01-1.931l.382-.167-.028-.055-.355.222zm.301-.477l.063-.04h-.16l.097.04zm2.233-.89l.02.002.486-.317.506-.048-.419-.365-.537-.176.063-.176-.298-.065-.538-.428.087-.177-.028-.06-.691.316-.053.19.142.283-.085.174.545.422.303.063-.065.174.545.174.017.014zm1.3-3.286l.074-.111.518-.176.05-.049-.176.05-1.606.145-.85.373-.301.013.012-.223-.435.162h-.89l-.229.142-.185-.11-.672-.016-.165-.503-.173-.146h-.238l-.37.325-.205.385-.077.292.076.144.057-.212.205-.375.372-.315h.238l.174.142.161.485.678.016.186.11.23-.142h.892l.436-.158-.008.221.302-.015.852-.36 1.066-.094zm1.8-.995l.482-.134.215-.209-.108-.54-.817-.381-.095-.16-.514-.017-.558-.272-1.482-1.05-.16-.337-.406-.016-.323.192-.051-.365-.399-.176-.16-.224-1.549-.257-.601.048-.526-.336-.303.176-.16-.112-.74.208-.056-.128.227-.16-.152-.381-.203.032-.29-.24-.925.144-.365.404.518-.081.294.243.205-.032.153.385-.23.162.057.13.749-.211.165.113.302-.178.53.34.609-.048 1.565.255.165.227.399.179.056.369.326-.19.41.016.166.336 1.497 1.066.568.272.52.016.096.163.825.389.073.37zm-10.668-2.07l-.44-.028-.55.369-.335-.065-.227.097-.433.435.185.036.556-.373.499.033.382-.402.314.065.089-.13-.04-.037zm-2.812 1.328l-.568.303-.817.144-.171.177-1.12.08-.482.16-.35.362 1.111-.08.173-.178.825-.146 1.24-.661.16-.16zm-4.143 1.52l-.704.266.012.177-.216.032-.677-.461-.259.128-.366-.176h-.355l-.012.304-.197.381.044.021.262-.13.684.471.217-.032-.012-.179 1.272-.482.307-.32zm-4.256 4.516l-.691.155-.367.337-.526.064-.57.256-.816-.016-.721-.765-.73-.225-.936-.048-3.02 1.179-.968.096-.486-.257h-.299l-.526.43-2.17.588-3.128-.942-.514.225-.227-.273-.761.381-.291-.316-.43.016-1.83.765-.278-.317-.191.145.203.348-.114.118 1.115-.468.434-.016.294.325.769-.39.23.276.519-.227 3.164.953 2.193-.596.532-.438h.301l.492.26.978-.098 3.05-1.192.947.049.736.227.729.77.825.016.576-.255.531-.065.37-.34.87-.191.587-.276.145-.268zm-23.45 7.13l-.389.08-.848-.161.364.685.345-.07.459-.357.07-.178zm1.991 5.725l-.101.006-1.01.72.17-.009.845-.564.096-.153zm11.74 12.275l.223-.068-.077-.15-.783-1.785-.162-1.125-.892-1.768-.424-.375-.706-1.22-.01-.34-.008.017.02.71.704 1.253.423.385.893 1.817.161 1.16.639 1.49zm5.557 2.324l.044.032.528-.188-.227.037-.345.12zm1.537-.445l.679-.112.29-.237.419-.729.495-.324-.234-.009-.38.142-.762.486-.424.718-.083.065zm-105.794 73.077l.35-.192.48.127.23-.08.435-.007-.098-.436-.531-.92-.121-.429-.667-.148.405.682.162.701-1.21-.313-1.13.607-.946.303.004.008.164 1.036 1.27-.784.666-.676.227-.031.248.203.062.349zm-.424-14.443l-.141-.16-.303-.717-.206.234-.185-.028-.48.59-.448.112-.258-.064-.654.92-.427.139-.367.467-.038-.019-.084.266-.032 1.365.664-1.24.422.222.37-.476.423-.142.652-.937.261.065.447-.114.384-.483zm-4.19 1.819l-.369.673.033-1.34.14-.435.233-.402-.094-.45.185-.59.133-.17.076-.291-.117-.297-.762-.111-.262.329-.186.578.186.872-.13 1.043.174.579-.282.547.032.467.129.187.121 1.62.597 1.17-.153 1.463-.194.345.262-.127.186.063.238.25.428.193.01-.02.154-1.49-.596-1.192-.12-1.652-.13-.19-.031-.477.281-.558-.172-.587zm1.11 6.692l.014.058-.428.856.416.265.98 1.075.272.045-.329-.368-.41-.27.422-.874-.088-.395-.848-.392zm-12.52 8.632l-.525-.698-.03-.006.274.362.064.376.217-.034zm-18.04-2.994l-.1-.09.011.067.09.023zm-.809-1.093l-.125-.194h-.006l.117.181.014.013zm-3.898-1.012l.172-.196-.045-.97.467-.238.089-.287.281.016.065-.109.02-.792-1.368-2.59-.523-.698.088-.348-.555-.856.37-1.16.423-.157.672-.667.273-.602-.12-.682.261-.158.237.113.11-.174.228.017.218-.602-.109-.65.338-.272.044-.525.206-.335-.153-.937.096-.27-.193-.114-.23-.828.282-.558.033-.78.14-.222.684-.032.238-.174.261-.347.033-.255.173-.032.173-.254.12-.732.704-.206.035-.082-.303-.226-.144.328-.7.203-.121.717-.172.25-.172.031-.032.25-.26.34-.237.175-.68.032-.14.218-.033.765-.284.543.228.812.197.111-.1.262.152.923-.205.325-.044.516-.336.265.108.638-.216.595-.224-.016-.108.17-.24-.107-.257.155.116.67-.268.594-.669.654-.424.155-.364 1.137.548.844-.084.341.517.686 1.36 2.54-.02.777-.063.111-.284-.016-.085.282-.464.23.044.95-.283.32.448.203.06-.008zm5.841-16.143l.306.3 1.195-2.719.728-.953.64-1.176.39-.048.403-.542 1.324-1.066.273-.049.185-.395.576-.303.032-.174-.27-.558-1.118-1.575-.033-.91 1.57-1.005-.308.085-1.71 1.078.036.888 1.11 1.55.272.546-.032.17-.573.298-.184.388-.268.048-1.321 1.046-.4.531-.39.048-.636 1.153-.724.936-1.073 2.408zm6.583-11.331l.338-.093.239-.176-.242.028-.335.24zm1.206-.477l.27-.032.168-.138-.152-.065-.286.235zm4.772-.11l.082.006.39-.142.06-.44.39-.239h.665l.837-.27.305-.158.41-.492-.097-.236-.556-.107-.226.031-.492.58-.307.154-.835.265h-.666l-.39.234-.357-.317.028.039.853.765-.094.328zm3.733-1.807l.272.055.109.27.667-.118-.835-.244-.213.037zm1.777.365l.829.248 1.612-.229-.011-.029-.642-.238-1.788.248zm3.098 7.97l.608.511.402-.141.205.141.813-.158.652-.335.33-.074v-.583l-1.282.281-.654.325-.815.159-.21-.143-.05.018zm4.297 20.151l.125.155.197.065.447.493.824.29-.528-.635-1.065-.368zm-12.083-30l.151.212.194.032-.2-.282-.145.037zm15.38-4.27l.044 1.87.096.515.23.282.122-.049-.049-.261-.052-2.283-.39-.074zm-140.486-12.962l-.028-.061-1.173-.396-.858-.132.102.098.91.14 1.047.35zm-3.022-1.481l-.032-.031-.85-.568-1.18.804.066.154 1.256-.854.74.495zm-1.066-3.235l-.091-.098-.839-.176-.443.492-1.59.175.115.107 1.605-.172.441-.491.802.163zm-3.054.312l-.115-.106-.192.016-.171.236-.292.063-.698.492-.874.3-3.964.68-1.09.523-.483.112-.775-.631-.3.535-.97.712-5.465 3.081-.027.124 5.557-3.11.974-.707.301-.54.779.632.49-.108 1.09-.523 3.984-.679.879-.3.702-.486.293-.064.172-.236.195-.016zm-13.09-1.24l.001-.01-.477-.884.475.894zM205.6 151.26v-.018l-.122-.18-.001.021.122.177zm-.304-.968v-.904l.165-.187.052-.483-.171-.138-.136.16v1.416l.09.136zm-1.046-3.367l.01-.252-.099-.496-.025.709.114.039zm-.112-1.064l.19-.437.268-.17.756-.111 1.133-1.84.24-.063-.075-.34.26-.44-.179-.583-.188.32.076.347-.236.064-1.13 1.855-.754.112-.267.172-.216.504.122.61zm1.259-5.614l.464-1.08.408-.373.865-.314.68-.53.845-.282.681.281.973-.047.809-1.53-.012-.468.897-.345.248-.467v-1.53l.66-.547.269-.048.572-.546-.14-1.36.42-.42.293-.048.108-.202-.15-.765-.084.158-.291.048-.42.424.14 1.37-.57.553-.268.048-.659.551v1.543l-.247.472-.894.348.012.472-.807 1.543-.97.048-.678-.284-.839.284-.678.535-.862.316-.412.38-.602 1.419-.012.22.25.173zm8.68-11.88l.36-.508.304-1.019-.304-.245-.126.43-.387.552.152.79zm-5.488-3.348l.219-.414-.354-.393-.11.211.245.596zm-3.343-6.097l.755-1.106-.044-.203-.248-.015.484-1.114v-.515l.184-.14.393-2.223-.132-.455-.03-.028-.313 1.814-.183.144v.52l-.511 1.067.247.016.044.204-.862 1.279.216.755zm.806-7.59l-.007-.012h-.013l.02.013zm-.2-.123l-.007-.027-.017.013.023.014zm.124-.78l.045-.207-.272-.097-.013.059.056.22.164-.016.02.04zm-.703-1.38l.003-.017-.002.017zm.036-.211l.216-.34 1.793-1.173v-.44l.313-.08-.097-.297.185-.61-.12-.19.076-.234-.158-.195-.076.256.096.3-.312.08v.443l-1.788 1.187-.227.364-.044.348.215.16-.072.42zm.843-6.994l.097-1.325-.138-.408-.063.87.104.863zm-4.166-11.41l.083.15.397-.013.476.266.953.139 1.113-.579 1.165-.392 2.27-.583 1.438-.186 1.177 1.002 1.305.333 3.015-2.766-.425-.943-2.908 2.697-1.307-.332-1.175-1.016-1.436.192-2.266.588-1.164.396-1.111.588-.947-.144-.476-.268-.4.016-.14-.252-.103-.062.448.823-.012.268.03.078zm12.257-5.492l-.054-.466.564-.36 1.718.138.204.27 1.317-.223 1.049-.895.96 1.006.129.77.868 1.205.018-.556-1.22-1.712-.127-.776-.96-1.016-1.047.904-1.315.224-.204-.268-1.715-.144-.56.364.108.936.267.6zm7.063 3.431l-.027.879 1.393.562.172-.233 2.138-.377.217.111 1.005-.349.236-.154-.637-.817-.005-.032-.944.328-.216-.112-2.135.38-.172.236-1.025-.422zm4.527-.927l.403-.113.324.254h.865l.128-.317.336-.075.16-.397 1.17-.483 1.068.467.346.542.01-.465-.712-1.124-1.068-.476-1.163.492-.16.396-.336.08-.128.316h-.863l-.324-.252-.508.144.076.524.376.487zm5.163.717l-.004.304.332.721 1.125.143.725.329.528-.33.032-.269.529-.186 3.09-.487.675-.335-.158-1.146-.883.444-3.087.492-.527.192-.032.268-.528.332-.724-.332-1.093-.14zm5.467 1.845l-.07.013-.024.265.263.061-.173-.156.004-.183zm.379.529l-.017.66.613.552.164-.064.216.202.26-.154.257.25.356.88.392-.16.54.048.798-.44.024-.234 1.197.123.056-.594-.184-.08v-.97l.14.027.128-.392-.108-.626.304-.674 1.337-.864.877-3.317.184-.064.68.222.681-.016-.096-.36v-.175l.128-.079-.044-.313.26-.238v-.202l.453-.063.208-.754.961-.079.192.626.961-.075.12.392.777-.221.088.158.949.503.458.595.358-.66-.571-.192-.628-.824-.948-.508-.087-.16-.776.224-.12-.396-.96.08-.195-.636-.96.08-.204.76-.451.064v.208l-.26.24.044.316-.128.08v.176l.096.364-.68.016-.68-.224-.183.064-.876 3.344-1.339.872-.304.68.108.636-.128.396-.14-.032v.984l.184.08-.056.604-1.195-.128-.02.236-.8.444-.54-.048-.387.16-.356-.888-.26-.252-.26.16-.215-.204-.16.064-.233-.21zm14.695-3.897l.014.301.472.943.316.234.149-.139.723 1.063.014-.047-.356-.92-.767-1.14-.152.144-.312-.236-.101-.203zm2.123 4.976l.08.447.053-.276-.133-.17zm.5 1.3l-.147.763.076.138.522.094-.234-.78-.152-.204-.065-.012zm1.05 3.394v.286l.475.793-.013-.298-.462-.78zm.919 3.198l.01.243.228.594.312.159.125.216.011-.12-.248-.205.096-.144-.376-.664-.158-.08zm.917 1.674l-.082.122.248.202-.024.266.645.787-.018-.428-.769-.95zm.85 1.454l.229.28-.019-.18-.21-.1zm-159.69-2.471l.248.936.343.524-.02.444.412.84.642-.388-.055-.11.024-.438-.348-.518-.54-2.014-.706.724zm8.552-2.366l.21.268.667-.16.222.022-.187-.194-.056-.28-.856.344zm1.92.503l.442.62.42.209.33-.209-.395-.543-.797-.077zm12.386-10.098l.2.36-.248.225v.176l.368.363.674-.06.048-.041v-.186l.119-.117-.194-.352-.152-.126-.292.28-.249.032-.052-.656-.222.102zm12.818-7.667l.471.488.603-.127.121.033.17-.238-.348-.09-.905-.08-.112.014zm22.872-2.722l.44.22.105.002-.101-.334-.444.112zm7.026.88l.221.184.202-.004-.127-.184-.296.004zm6.024-2.41l2.045-.692-.26-.128-1.313.284-.345.014-.177.483.05.039zm-12.942-11.512v-.038l-.158-.157-.988-.214.057.18 1.089.229zm-1.867-1.23l-.1-.324-.339.013.093.324.346-.013zm-4.707-3.133l-.176-.101-.3-.113-.068-.098-.09-.052-.539-.54-.419-.16-.048-.071-.757-.288-.068-.502-.225-.042-.818-.32-.008-.064zm194.102 85.273h-.182l.368.766.14-.077-.326-.69zm-1.055 1.544l-.092.121-.342.962.053.002.38-1.085zm-1.87 1.732l-.067.021-.122.275.08-.045.109-.25zm-1.484.98l-.099.063-.06.124.054.03.105-.216zm-5.617-3.505l-.05.004-.728.786-.053.182.17-.024.096-.328.565-.62zm-1.574 1.213h-.004l-.217.14-.165 1.445.193 1.089.228-.132-.195-1.119.16-1.423zm-.72 3.002l-.208.12-.225.346-.37.83.052.691-.55.475-1.002 2.131-.02.251-1.081.823.11-.01 1.225-.946.02-.253.99-2.14.545-.477-.052-.694.366-.834.2-.313zm-6.135 6.207l-.092.002-.112.068.074.01.13-.08zm-2.107.33h-.003l-.483.19h.005l.48-.19zm-1.048.25l-.16-.043-.335.326.203.006.292-.289zm-.954.402l-.192-.006-.478.407-1.013.361.007.007 1.352-.489.324-.28zm-185.042-29.34l-.051.061.305.172-.006-.014-.248-.22zm-2.567 4.698l-.364.015-.096.407.374.095.247.236.015-.002.176-.341-.352-.41zm.508 9.084l-.439.405-1.181.567.732.22.171-.332.334-.251.418.095.55-.104-.182-.076-.403-.524zm.6.597l.023-.004.342.14.41.534.195.08.613-.786.215-.043-.247-.23-.375-.14-.064-.331.196-.14-.699.14-.61.78zm2.103.04l.048.255.374.14.386.363.772-.048.063-.375 1.739.407.588.614.732.22.708.422.322.032.537-.566.354-.112.537.016 1.34.347 1.878-.347 2.071.565.013-.151-.248-.3-.3-.188-2.478-.675-1.884.348-1.346-.348-.538-.016-.356.112-.539.567-.323-.032-.71-.423-.731-.22-.59-.612-1.745-.408-.064.376-.61.038zm10.365 7.146l.021-.025.171.123.14-.048.194-.315-.29-.251-.632-.204-.442.096.003-.069-.102-.074-.28.332.272.488.627.112.291-.22.027.055zm-1.954 1.393l.07.213.88.512-.312-.354-.638-.37zm-.763 19.67l.825.793.27-.14.374.124 1.019.032.708.171.17.156 1.04.22-.087-.523-1.928-.408-.172-.156-.71-.172-1.022-.032-.376-.124-.11.058zm5.036 3.04l-.122.186-.044.455 1.365.093-.252-.247-.291-.612-.184.156-.472-.032zm1.737.872l.158.332.362.356.32-.306-.336-.391-.504.009zm-1.364 7.355l-.093-.321-.45-.53-.457.016.15.514.367.268.031.676.16.376.152-.832.14-.167zm-27.587-40.056l.009.05.015-.04-.024-.01zm3.428-2.03l.004.29.323.692-1.014.316-.362.324.362.489-.12.08.215.738.398-.016.076-.315.525-.471 1.01-.315-.322-.69.064-.347-.14-.878-.588.203-.326-.143-.105.044zm8.58-2.675l.323.434.107-.048.128.379.15-.048.007.03.277-.196.196.032.119-.073.05-.104.29-.156-.008-.075.136.006.249-.134.086-1.259-.507-.268-.128.112.148.32-.451.3-.052-.124-.818.44-.076.16.14.111-.064.08-.152-.124-.15.205zm41.27-93.016l.21-.11.631-.848.783-1.436-.486.43-.794 1.49-.345.474zm2.165-2.892l.08-.07.504-.257-.17-.655.48-.978-.536-.692v-.411l-.537.2v.702l.522.691-.468.976.125.494zm36.36 12.308l.03-.09-.212-.081.182.171zm-.548-.468l-.209-.194-.216-.144-.363.055-.092.389.845-.13.035.024zm-.772-3.252l.027-.526-.731.4-1.232.064-.863-.032-.876-.332-.278-.023.12.267.58.048.865.334.856.032 1.222-.06.31-.172zm-5.537-3.702l-.028-.116-.678-.256.11.143.596.23zm-1.425-.992l-.081-.105-.002.164.083-.059zm-.52-1.336l.006-.48-.496.24-.152.336h-.114l-.037.257h.61l.151-.338.032-.015zm-2.043-2.126l-.262-.15-.204-.096-.216.064-.475.336-.788-.32-.636.112.216.368-.052.192-.12.016v1.544l-.12.496-.26.412-.839 1.004-.971.892-.636.876h-.444l-.495-.272-.096.128.096.288-.108.128-.17-.078-.028.079-.385.58.278.047.345-.418.202-.064.278.129.107-.13-.095-.289.095-.125.492.27h.44l.63-.88.965-.898.837-1.01.254-.414.119-.499v-1.552l.119-.016.051-.193-.214-.37.63-.113.782.322.472-.338.206-.058zm-7.202 2.276l-.352-.254-.507.016-2.535-.876-.28.112-.591-.016-.443-.169.006.027.996.386.587.016.278-.113 2.515.881.326-.01zm-5.379-1.903l-.082-.375-.623.176-.198-.08.093.157.202-.032.472.193.136-.04zm-1.498-.546l-.21-.353-.4.128h-.005l.037.122.548.113.03-.01zm193.675 19.913l.355-.234-.141-.422.129-.253-.075-.116-.108.216.14.434-.377.26.077.115zm.203-1.203l.346-.274.86-.221.347-.375.109-.69.238-.032.618.294-.041-.197-.628-.304-.242.032-.108.71-.347.385-.857.227-.382.308.087.137zm2.553-1.181l.041.189.383.173.194-.031.033.11.173-.047.032.126.384-.406.056-.296-.07-.131-.042.226-.379.422-.036-.13-.173.048-.032-.113-.193.032-.37-.172zM360.922 79.84l.064-.125-.138-.452-.067.1.141.477zm.107-1.16l.098-.141-.262-.438-.026-.24-.026.022.053.515.163.282zm-.18-1.113l.072-.062-.295-.876-.355-.026-.078.25.435.032.222.682zm3.198-4.653l.047-.015-.221-.886-.029.059.203.842zm2.11-2.037l.052-.019-.807-2.02-.016.047.77 1.992zm-.733-2.102l.098-.28-.044-.786-.86-.786.392-.205.09.034-.105-.04-.39.206.857.807.045.807-.083.243zm-.133-1.952l.014.006.205-.253 1.417.016.782-.23v-.024l-.802.244-1.412-.017-.204.258zm3.638.916l.016-.003.233-.335-.025.004-.224.334z"/></svg>